<svg width="207" height="62" viewBox="0 0 207 62" fill="none" xmlns="http://www.w3.org/2000/svg">
<path d="M0.375 10.5C0.375 7.23841 0.375 5.60761 0.907843 4.32122C1.6183 2.60602 2.98102 1.2433 4.69622 0.532843C5.98261 0 7.61341 0 10.875 0H195.875C199.137 0 200.767 0 202.054 0.532843C203.769 1.2433 205.132 2.60602 205.842 4.32122C206.375 5.60761 206.375 7.23841 206.375 10.5V51.5C206.375 54.7616 206.375 56.3924 205.842 57.6788C205.132 59.394 203.769 60.7567 202.054 61.4672C200.767 62 199.137 62 195.875 62H10.875C7.61341 62 5.98261 62 4.69622 61.4672C2.98102 60.7567 1.6183 59.394 0.907843 57.6788C0.375 56.3924 0.375 54.7616 0.375 51.5V10.5Z" fill="#072652"/>
<path d="M140.328 29.1221V33.0741H137.863V35.6658H140.328V44.4719C140.328 47.4789 141.682 48.6817 145.087 48.6817C145.686 48.6817 146.256 48.6101 146.754 48.5241V45.9611C146.327 46.004 146.056 46.0327 145.586 46.0327C144.061 46.0327 143.392 45.3167 143.392 43.6844V35.6658H146.754V33.0741H143.392V29.1221H140.328Z" fill="white"/>
<path d="M155.43 48.8964C159.962 48.8964 162.74 45.8465 162.74 40.792C162.74 35.7661 159.947 32.7018 155.43 32.7018C150.899 32.7018 148.106 35.7661 148.106 40.792C148.106 45.8465 150.885 48.8964 155.43 48.8964ZM155.43 46.1615C152.766 46.1615 151.269 44.1999 151.269 40.792C151.269 37.4127 152.766 35.4367 155.43 35.4367C158.081 35.4367 159.591 37.4127 159.591 40.792C159.591 44.1855 158.081 46.1615 155.43 46.1615Z" fill="white"/>
<path d="M165.118 48.5957H168.181V39.3887C168.181 37.1979 169.82 35.7231 172.143 35.7231C172.684 35.7231 173.596 35.8233 173.853 35.9092V32.8736C173.525 32.7877 172.941 32.7448 172.485 32.7448C170.461 32.7448 168.737 33.8616 168.295 35.3938H168.067V33.0025H165.118V48.5957Z" fill="white"/>
<path d="M181.46 35.3222C183.726 35.3222 185.208 36.9116 185.279 39.3601H177.441C177.612 36.9259 179.194 35.3222 181.46 35.3222ZM185.265 44.386C184.695 45.6031 183.426 46.2761 181.574 46.2761C179.123 46.2761 177.541 44.5435 177.441 41.8086V41.6368H188.399V40.5629C188.399 35.6658 185.792 32.7018 181.474 32.7018C177.099 32.7018 174.321 35.8663 174.321 40.8492C174.321 45.8322 177.042 48.8964 181.488 48.8964C185.037 48.8964 187.516 47.1782 188.214 44.386H185.265Z" fill="white"/>
<path d="M120.237 42.8374C120.473 46.6664 123.648 49.1152 128.375 49.1152C133.426 49.1152 136.586 46.5477 136.586 42.4515C136.586 39.231 134.785 37.4501 130.413 36.4261L128.064 35.8473C125.288 35.1943 124.165 34.3186 124.165 32.79C124.165 30.8607 125.908 29.5992 128.522 29.5992C131.004 29.5992 132.717 30.831 133.027 32.8048H136.247C136.055 29.1985 132.894 26.6606 128.567 26.6606C123.914 26.6606 120.813 29.1985 120.813 33.0126C120.813 36.1589 122.57 38.0289 126.425 38.9342L129.172 39.6021C131.993 40.2699 133.234 41.2494 133.234 42.8819C133.234 44.7816 131.284 46.1618 128.626 46.1618C125.775 46.1618 123.796 44.8706 123.516 42.8374H120.237Z" fill="white"/>
<path d="M88.5001 32.7448C86.3912 32.7448 84.5672 33.8044 83.6267 35.5799H83.3988V33.0025H80.4491V53.7792H83.5128V46.2331H83.755C84.5672 47.8798 86.3199 48.8535 88.5286 48.8535C92.4473 48.8535 94.941 45.7463 94.941 40.792C94.941 35.8376 92.4473 32.7448 88.5001 32.7448ZM87.6309 46.0899C85.066 46.0899 83.4558 44.0567 83.4558 40.8063C83.4558 37.5416 85.066 35.5083 87.6452 35.5083C90.2386 35.5083 91.7918 37.4986 91.7918 40.792C91.7918 44.0996 90.2386 46.0899 87.6309 46.0899Z" fill="white"/>
<path d="M105.661 32.7448C103.552 32.7448 101.728 33.8044 100.788 35.5799H100.56V33.0025H97.6102V53.7792H100.674V46.2331H100.916C101.728 47.8798 103.481 48.8535 105.69 48.8535C109.608 48.8535 112.102 45.7463 112.102 40.792C112.102 35.8376 109.608 32.7448 105.661 32.7448ZM104.792 46.0899C102.227 46.0899 100.617 44.0567 100.617 40.8063C100.617 37.5416 102.227 35.5083 104.806 35.5083C107.4 35.5083 108.953 37.4986 108.953 40.792C108.953 44.0996 107.4 46.0899 104.792 46.0899Z" fill="white"/>
<path d="M74.9523 48.5957H78.4674L70.7726 27.1801H67.2132L59.5183 48.5957H62.9153L64.8796 42.9116H73.0027L74.9523 48.5957ZM68.823 31.0684H69.0741L72.1609 40.1215H65.7214L68.823 31.0684Z" fill="white"/>
<path d="M61.5762 11.0261V21.3572H65.2882C68.3519 21.3572 70.126 19.4599 70.126 16.1594C70.126 12.9091 68.3376 11.0261 65.2882 11.0261H61.5762ZM63.1721 12.4867H65.1101C67.2404 12.4867 68.5015 13.847 68.5015 16.1809C68.5015 18.5507 67.2618 19.8967 65.1101 19.8967H63.1721V12.4867Z" fill="white"/>
<path d="M75.5594 21.5075C77.8251 21.5075 79.2144 19.9826 79.2144 17.4553C79.2144 14.9423 77.818 13.4102 75.5594 13.4102C73.2937 13.4102 71.8972 14.9423 71.8972 17.4553C71.8972 19.9826 73.2866 21.5075 75.5594 21.5075ZM75.5594 20.1401C74.227 20.1401 73.4789 19.1592 73.4789 17.4553C73.4789 15.7657 74.227 14.7777 75.5594 14.7777C76.8846 14.7777 77.6398 15.7657 77.6398 17.4553C77.6398 19.1521 76.8846 20.1401 75.5594 20.1401Z" fill="white"/>
<path d="M91.0459 13.5606H89.5141L88.1319 19.5101H88.0107L86.4148 13.5606H84.9471L83.3511 19.5101H83.2371L81.8478 13.5606H80.2945L82.432 21.3572H84.0066L85.6026 15.6153H85.7237L87.3268 21.3572H88.9156L91.0459 13.5606Z" fill="white"/>
<path d="M92.81 21.3572H94.3419V16.7966C94.3419 15.5795 95.0615 14.8206 96.1943 14.8206C97.3272 14.8206 97.8687 15.4435 97.8687 16.6964V21.3572H99.4005V16.3098C99.4005 14.4555 98.4458 13.4102 96.7145 13.4102C95.546 13.4102 94.7765 13.9329 94.3989 14.7992H94.2849V13.5606H92.81V21.3572Z" fill="white"/>
<path d="M101.813 21.3572H103.345V10.5178H101.813V21.3572Z" fill="white"/>
<path d="M109.106 21.5075C111.372 21.5075 112.761 19.9826 112.761 17.4553C112.761 14.9423 111.365 13.4102 109.106 13.4102C106.84 13.4102 105.444 14.9423 105.444 17.4553C105.444 19.9826 106.833 21.5075 109.106 21.5075ZM109.106 20.1401C107.774 20.1401 107.026 19.1592 107.026 17.4553C107.026 15.7657 107.774 14.7777 109.106 14.7777C110.431 14.7777 111.186 15.7657 111.186 17.4553C111.186 19.1521 110.431 20.1401 109.106 20.1401Z" fill="white"/>
<path d="M117.325 20.1902C116.492 20.1902 115.886 19.7821 115.886 19.0805C115.886 18.3932 116.37 18.0281 117.439 17.9565L119.334 17.8348V18.4863C119.334 19.4528 118.479 20.1902 117.325 20.1902ZM116.933 21.4861C117.952 21.4861 118.8 21.0422 119.263 20.2618H119.384V21.3572H120.859V16.0306C120.859 14.3839 119.762 13.4102 117.817 13.4102C116.057 13.4102 114.803 14.2694 114.646 15.6082H116.128C116.299 15.0569 116.891 14.7419 117.746 14.7419C118.793 14.7419 119.334 15.2072 119.334 16.0306V16.7036L117.233 16.8253C115.387 16.9398 114.347 17.7488 114.347 19.1521C114.347 20.5768 115.437 21.4861 116.933 21.4861Z" fill="white"/>
<path d="M126.057 21.4861C127.126 21.4861 128.031 20.9777 128.494 20.1258H128.615V21.3572H130.083V10.5178H128.551V14.7992H128.437C128.017 13.94 127.119 13.4317 126.057 13.4317C124.098 13.4317 122.837 14.9925 122.837 17.4553C122.837 19.9253 124.084 21.4861 126.057 21.4861ZM126.492 14.8135C127.774 14.8135 128.58 15.8373 128.58 17.4625C128.58 19.0948 127.782 20.1043 126.492 20.1043C125.195 20.1043 124.419 19.1091 124.419 17.4553C124.419 15.8158 125.202 14.8135 126.492 14.8135Z" fill="white"/>
<path d="M140.016 21.5075C142.282 21.5075 143.671 19.9826 143.671 17.4553C143.671 14.9423 142.275 13.4102 140.016 13.4102C137.751 13.4102 136.354 14.9423 136.354 17.4553C136.354 19.9826 137.744 21.5075 140.016 21.5075ZM140.016 20.1401C138.684 20.1401 137.936 19.1592 137.936 17.4553C137.936 15.7657 138.684 14.7777 140.016 14.7777C141.342 14.7777 142.097 15.7657 142.097 17.4553C142.097 19.1521 141.342 20.1401 140.016 20.1401Z" fill="white"/>
<path d="M145.699 21.3572H147.231V16.7966C147.231 15.5795 147.951 14.8206 149.083 14.8206C150.216 14.8206 150.758 15.4435 150.758 16.6964V21.3572H152.29V16.3098C152.29 14.4555 151.335 13.4102 149.604 13.4102C148.435 13.4102 147.666 13.9329 147.288 14.7992H147.174V13.5606H145.699V21.3572Z" fill="white"/>
<path d="M159.345 11.6204V13.5964H158.112V14.8922H159.345V19.2953C159.345 20.7988 160.021 21.4001 161.724 21.4001C162.024 21.4001 162.309 21.3644 162.558 21.3214V20.0399C162.344 20.0613 162.209 20.0757 161.974 20.0757C161.211 20.0757 160.876 19.7177 160.876 18.9015V14.8922H162.558V13.5964H160.876V11.6204H159.345Z" fill="white"/>
<path d="M164.614 21.3572H166.146V16.8038C166.146 15.6225 166.844 14.8278 168.098 14.8278C169.181 14.8278 169.758 15.4578 169.758 16.7036V21.3572H171.29V16.3241C171.29 14.4698 170.271 13.4174 168.618 13.4174C167.45 13.4174 166.63 13.94 166.253 14.8135H166.132V10.5178H164.614V21.3572Z" fill="white"/>
<path d="M176.816 14.7204C177.949 14.7204 178.69 15.5151 178.726 16.7394H174.807C174.892 15.5223 175.683 14.7204 176.816 14.7204ZM178.718 19.2523C178.433 19.8609 177.799 20.1974 176.873 20.1974C175.648 20.1974 174.857 19.3311 174.807 17.9636V17.8777H180.286V17.3408C180.286 14.8922 178.982 13.4102 176.823 13.4102C174.636 13.4102 173.247 14.9925 173.247 17.4839C173.247 19.9754 174.607 21.5075 176.83 21.5075C178.604 21.5075 179.844 20.6484 180.193 19.2523H178.718Z" fill="white"/>
<path d="M42.895 31.0193C42.9322 28.1196 44.4819 25.3758 46.9404 23.857C45.3894 21.6312 42.7916 20.22 40.0889 20.135C37.2062 19.831 34.4116 21.8684 32.9426 21.8684C31.4452 21.8684 29.1835 20.1652 26.748 20.2156C23.5735 20.3186 20.614 22.1323 19.0695 24.9211C15.7495 30.6972 18.2259 39.186 21.4062 43.8549C22.9974 46.1411 24.857 48.6949 27.2903 48.6043C29.6714 48.5051 30.5607 47.0786 33.435 47.0786C36.2825 47.0786 37.1168 48.6043 39.5995 48.5467C42.1546 48.5051 43.7644 46.2504 45.2997 43.9425C46.443 42.3135 47.3227 40.513 47.9063 38.6079C44.9037 37.3318 42.8985 34.2953 42.895 31.0193Z" fill="white"/>
<path d="M38.2056 17.0645C39.5987 15.384 40.2851 13.224 40.1189 11.0432C37.9905 11.2678 36.0245 12.29 34.6125 13.906C33.2318 15.485 32.5133 17.607 32.6492 19.7044C34.7783 19.7265 36.8714 18.732 38.2056 17.0645Z" fill="white"/>
</svg>
