<svg width="134" height="18" viewBox="0 0 134 18" fill="none" xmlns="http://www.w3.org/2000/svg">
<path fill-rule="evenodd" clip-rule="evenodd" d="M130.34 0.795592C129.336 1.05083 128.567 1.84673 128.339 2.86805C128.254 3.24758 128.262 3.78835 128.357 4.16626C128.604 5.1439 129.329 5.9001 130.268 6.16016C130.626 6.25953 131.208 6.26105 131.559 6.1636C132.718 5.84141 133.503 4.84643 133.569 3.6146C133.654 2.03734 132.429 0.71609 130.893 0.728604C130.716 0.730054 130.49 0.757477 130.34 0.795592ZM62.9081 1.1873C60.3946 1.32941 58.3931 1.97636 56.924 3.1215C55.5085 4.22485 54.6448 5.76252 54.3581 7.68939C54.2999 8.08063 54.2874 8.31438 54.2866 9.02383C54.2853 10.0937 54.3566 10.6774 54.5971 11.5672C55.3564 14.3765 57.5953 16.233 60.9239 16.8135C62.0393 17.008 63.5282 17.0698 64.6872 16.9697C65.9705 16.8588 67.3532 16.6017 68.3216 16.2939C69.1589 16.0277 70.3458 15.5951 70.4339 15.524C70.4654 15.4986 70.4733 15.3429 70.4665 14.8797L70.4577 14.2689L69.4888 14.26L68.5201 14.251L68.3901 14.433C67.9354 15.0696 67.3399 15.3966 66.3812 15.5363C65.9982 15.5921 63.4359 15.6167 62.8859 15.5699C60.4127 15.3594 58.7999 14.3626 57.9479 12.5179C57.0185 10.5056 57.1121 7.21707 58.1532 5.30517C58.6534 4.38659 59.3542 3.70618 60.2828 3.23753C60.9761 2.88765 61.625 2.70135 62.5167 2.59615C63.1265 2.52424 65.3583 2.54383 65.9083 2.62593C67 2.78892 67.6421 3.10342 68.2736 3.78427L68.5353 4.06652L69.4965 4.05755L70.4577 4.04861L70.4665 3.33451L70.4753 2.6204L70.2871 2.54714C69.0257 2.05579 67.4349 1.59756 66.316 1.40331C65.2 1.20956 63.9338 1.12929 62.9081 1.1873ZM91.8673 1.18676C89.9352 1.29015 88.3722 1.67966 87.0057 2.39839C85.335 3.27706 84.1995 4.5976 83.62 6.33583C83.342 7.16981 83.2252 7.96487 83.2252 9.02302C83.2252 10.5435 83.4697 11.7015 84.0325 12.847C85.3632 15.5551 88.2792 17.0189 92.3402 17.0174C94.2683 17.0167 96.0847 16.7077 97.982 16.0576C98.3766 15.9225 98.8572 15.7481 99.05 15.6703L99.4006 15.5288V14.8904V14.252H98.4266H97.4526L97.3609 14.3953C97.1118 14.7846 96.6717 15.1434 96.2405 15.3087C95.6035 15.5529 94.9003 15.6149 93.032 15.5916C91.5674 15.5733 91.2673 15.5478 90.5476 15.3799C88.1178 14.8129 86.679 13.1329 86.3176 10.4405C86.2523 9.95361 86.2622 8.34501 86.3339 7.80954C86.6725 5.27872 87.907 3.62108 89.9775 2.91689C90.4118 2.76919 91.0424 2.63605 91.555 2.58387C92.0151 2.53705 93.8501 2.53702 94.4145 2.58384C94.97 2.62991 95.5791 2.75475 95.9483 2.89817C96.4145 3.0793 96.7299 3.29457 97.1281 3.70338L97.4818 4.06649L98.4331 4.05755L99.3843 4.04861V3.32479V2.60097L98.8581 2.40692C96.3288 1.47408 94.0219 1.07144 91.8673 1.18676ZM131.433 1.33103C132.217 1.53847 132.827 2.16717 133.005 2.95238C133.069 3.23325 133.069 3.71741 133.005 3.99751C132.9 4.45823 132.606 4.9368 132.249 5.23045C131.087 6.1831 129.383 5.65751 128.892 4.19493C128.778 3.8581 128.753 3.36736 128.831 3.00705C129.006 2.19344 129.648 1.51597 130.431 1.32033C130.716 1.24903 131.14 1.25355 131.433 1.33103ZM0 9.44546V17.0179L3.43239 17.0178C6.86617 17.0176 7.52421 17.0009 8.77256 16.8819C10.375 16.7292 11.6718 16.444 12.6953 16.0192C13.3953 15.7287 13.9 15.3986 14.3348 14.9469C14.9171 14.342 15.1652 13.7181 15.1639 12.8621C15.1632 12.3602 15.1029 12.0812 14.9067 11.6717C14.39 10.5926 13.1912 9.81605 11.2347 9.29296C10.8421 9.18796 9.94564 8.9901 9.86267 8.9901C9.85263 8.9901 9.84907 8.94969 9.85475 8.90031C9.86486 8.81234 9.87598 8.80829 10.416 8.69651C12.2012 8.32696 13.4452 7.57329 13.9563 6.55177C14.1387 6.18728 14.1982 5.86998 14.1785 5.36804C14.1602 4.90229 14.0778 4.59427 13.8763 4.23868C13.2449 3.1244 11.7182 2.4273 9.18021 2.09438C7.8384 1.91837 6.57965 1.87324 3.00843 1.87311L0 1.87301V9.44546ZM27.9383 1.89463C27.9267 1.9065 27.9171 5.3141 27.9168 9.46708L27.9162 17.0179H34.7162H41.5161L41.5073 16.3517L41.4984 15.6856L36.1583 15.677L30.8181 15.6685V12.6667V9.66494L35.6365 9.65637L40.4549 9.64784V8.97324V8.29863L35.6365 8.29009L30.8181 8.28153V5.71816V3.15476H35.9055H40.993V2.51388V1.87301H34.4761C30.8917 1.87301 27.9497 1.88272 27.9383 1.89463ZM118.267 3.062C117.983 3.71596 117.201 5.50323 116.53 7.03374C115.859 8.56426 115.045 10.4236 114.721 11.1657C113.953 12.929 112.218 16.8832 112.179 16.9589C112.151 17.0147 112.233 17.0179 113.693 17.0179H115.236L116.154 15.0951L117.072 13.1724L120.765 13.181L124.459 13.1895L124.657 13.6304C124.765 13.873 125.148 14.7342 125.506 15.5443L126.159 17.0172L127.814 17.0176L129.47 17.0179L129.424 16.9083C129.384 16.811 128.962 15.8544 127.554 12.6667C127.329 12.1565 126.759 10.8739 126.289 9.81649C125.818 8.75905 125.102 7.14252 124.698 6.22422C124.294 5.30591 123.777 4.13715 123.55 3.62698C123.323 3.11681 123.056 2.51344 122.956 2.2862L122.774 1.87301H120.779H118.784L118.267 3.062ZM129.737 3.48363L129.746 4.95933H130.072H130.398L130.414 4.36905C130.432 3.71863 130.414 3.7646 130.632 3.81334C130.729 3.83506 130.903 4.09067 131.142 4.56212L131.344 4.95933L131.743 4.96881C131.972 4.9742 132.143 4.96496 132.143 4.94722C132.143 4.90549 131.705 4.08858 131.615 3.96324C131.576 3.9086 131.488 3.8237 131.419 3.77459C131.351 3.72544 131.295 3.67545 131.295 3.66348C131.295 3.6515 131.363 3.62104 131.445 3.59581C131.632 3.53888 131.841 3.37697 131.929 3.22171C131.979 3.13351 131.996 3.04523 131.996 2.86805C131.996 2.56751 131.97 2.47607 131.844 2.32698C131.617 2.06038 131.387 2.00793 130.445 2.00793H129.729L129.737 3.48363ZM131.123 2.60279C131.265 2.71114 131.31 2.83472 131.265 2.99039C131.212 3.17432 131.091 3.23139 130.716 3.24947L130.414 3.26401V2.88491V2.50582L130.724 2.51982C130.97 2.53098 131.052 2.54788 131.123 2.60279ZM6.5066 3.1555C9.30276 3.34034 10.8197 4.04244 11.1359 5.29805C11.2003 5.55396 11.2003 6.08494 11.1359 6.34085C10.833 7.54358 9.53173 8.16877 6.79955 8.42427C6.30907 8.47015 2.97625 8.48074 2.90727 8.43665C2.85164 8.40107 2.85376 3.23649 2.90942 3.2009C3.0203 3.13003 5.62425 3.09715 6.5066 3.1555ZM121.243 3.3993C121.262 3.42251 121.328 3.59325 121.39 3.77877C121.453 3.96428 121.724 4.70804 121.993 5.43155C122.525 6.85929 122.782 7.61046 122.946 8.2143C123.004 8.42765 123.299 9.30939 123.602 10.1737C123.905 11.0381 124.153 11.7628 124.153 11.7844C124.153 11.8137 123.299 11.8234 120.709 11.8234C117.442 11.8234 117.266 11.8204 117.287 11.7644C117.3 11.732 117.515 11.0907 117.767 10.3393C118.019 9.58797 118.349 8.61654 118.502 8.18057C118.982 6.80589 119.285 5.87716 119.656 4.64081C119.854 3.98118 120.021 3.42251 120.029 3.3993C120.039 3.36763 120.187 3.35714 120.626 3.35714C121.053 3.35714 121.219 3.36844 121.243 3.3993ZM6.99522 9.79851C9.7815 10.0407 11.3963 10.6715 12.0101 11.7574C12.4224 12.4867 12.3772 13.4549 11.9005 14.108C11.2818 14.9555 9.94381 15.4017 7.40287 15.6079C6.82156 15.655 3.03074 15.6717 2.92671 15.6275C2.87267 15.6046 2.86993 15.4411 2.87779 12.693L2.88614 9.78276L3.3427 9.76215C4.02279 9.73149 6.50878 9.75622 6.99522 9.79851Z" fill="#525252"/>
</svg>
