<svg width="103" height="43" viewBox="0 0 103 43" fill="none" xmlns="http://www.w3.org/2000/svg">
<rect width="102.08" height="42.3524" transform="translate(0.842773 0.378998)" fill="#FF7380"/>
<path fill-rule="evenodd" clip-rule="evenodd" d="M9.30002 6.75116C8.78274 7.21571 8.30829 7.31574 6.2671 7.39099L4.44531 7.45813V7.77939V8.10066H5.56641H6.68752V18.1261V28.1516H5.56641H4.44531V28.4895V28.8274H7.0799H9.71449V27.8095V26.7914L10.191 27.3769C10.7586 28.0744 11.4992 28.6074 12.3783 28.951C13.2775 29.3023 14.8403 29.3094 15.9366 28.9671C18.2221 28.2534 20.0212 26.2706 20.6629 23.7584C20.9152 22.7709 20.9123 20.9945 20.6569 20.0411C20.0801 17.8877 18.5484 15.8869 16.8298 15.0413C14.189 13.7422 11.4113 14.5284 9.98726 16.9781L9.77055 17.3509L9.71449 11.8902L9.65844 6.42934L9.30002 6.75116ZM78.0093 6.52542C75.4397 7.06567 72.3696 10.2678 70.7097 14.1392L70.2802 15.141L68.6415 15.1722L67.0028 15.2033V15.5383V15.8732H68.5283C69.7531 15.8732 70.0424 15.9028 69.9965 16.0234C69.6657 16.8891 68.6591 20.3569 67.1133 25.955C65.4995 31.7995 65.0053 33.1341 64.1106 34.0638C63.6307 34.5624 62.8364 34.9553 62.5154 34.853C62.2355 34.7637 62.2364 34.6598 62.5194 34.4025C62.8947 34.0612 63.0188 33.4512 62.8135 32.9571C62.6784 32.6324 62.5176 32.4819 62.1142 32.3025C61.201 31.8967 60.3412 32.2401 59.9958 33.1489C59.7394 33.8235 59.9033 34.4112 60.4986 34.9516C61.0509 35.4529 61.2889 35.5141 62.4406 35.4502C63.1532 35.4108 63.4935 35.3302 63.9581 35.0913C65.2273 34.4386 66.7666 32.4672 68.0135 29.8976C68.8303 28.2141 69.0891 27.5112 71.2183 21.1911C72.1636 18.3851 72.9669 16.0407 73.0035 15.9812C73.0404 15.9213 73.7158 15.8732 74.5208 15.8732H75.9716V15.5353V15.1973H74.6263C73.8864 15.1973 73.281 15.1534 73.281 15.0998C73.281 15.046 73.5369 14.2478 73.8496 13.3258C75.1412 9.51864 76.8186 7.08685 78.1533 7.08685C78.5041 7.08685 78.5117 7.22123 78.1858 7.66416C77.6771 8.35557 78.0128 9.56189 78.8211 9.94737C80.32 10.662 81.7604 9.14128 80.9958 7.65143C80.5179 6.7203 79.2879 6.25665 78.0093 6.52542ZM87.9176 11.4438C87.3367 13.9198 86.1472 14.9721 83.7165 15.1605C82.8112 15.2307 82.8103 15.231 82.8103 15.5519V15.8732H84.2678H85.7252L85.7259 21.3083C85.7262 24.6019 85.7708 26.904 85.8391 27.151C86.2126 28.502 87.4345 29.1924 89.4809 29.2086C90.7994 29.219 91.4742 28.988 92.2768 28.2509C92.8831 27.6941 93.4291 26.7964 93.2945 26.5776C93.2554 26.5139 93.101 26.4619 92.9516 26.4619C92.7403 26.4619 92.6194 26.5808 92.4081 26.9969C92.0795 27.644 91.6407 28.0801 91.082 28.3146C90.5583 28.5344 89.7345 28.5397 89.3229 28.3258C88.7027 28.0037 88.6961 27.9329 88.6961 21.6744V15.9295L90.9663 15.899L93.2366 15.8686V15.5353V15.2019L90.9663 15.1715L88.6961 15.141L88.6657 12.8599L88.6355 10.5789H88.3779C88.1494 10.5789 88.0978 10.676 87.9176 11.4438ZM28.1656 14.538C25.8992 14.8549 23.7306 17.1019 22.9461 19.9463C22.6705 20.9457 22.6431 22.7593 22.8864 23.9129C23.1269 25.0536 23.8188 26.4001 24.5883 27.2249C25.8239 28.5496 27.3559 29.2052 29.2217 29.2079C32.0073 29.212 34.0201 27.7381 34.9541 25.0106C35.2608 24.1148 35.2391 23.9618 34.8113 24.0047C34.4884 24.0371 34.4464 24.0892 34.3094 24.6297C33.8319 26.5138 32.3184 27.9859 30.4434 28.3898C29.5626 28.5796 28.3268 28.466 27.684 28.1358C27.0776 27.8245 26.4983 27.0628 26.2959 26.3106C26.1131 25.6307 25.9791 23.9217 25.9745 22.2095L25.9705 20.717H30.2787C35.1072 20.717 34.9783 20.7384 34.8626 19.9558C34.5147 17.6017 31.9765 14.8409 29.9204 14.58C29.6286 14.543 29.2637 14.4975 29.1096 14.4789C28.9554 14.4604 28.5306 14.487 28.1656 14.538ZM40.6905 14.5601C40.6412 14.6432 40.4519 14.808 40.2697 14.9262C39.9775 15.1158 39.6716 15.1455 37.6631 15.1792L35.3877 15.2174V15.5453V15.8732H36.677H37.9663V22.0124V28.1516H36.677H35.3877V28.4895V28.8274H39.4237H43.4597V28.4895V28.1516H42.2264H40.9932V23.4966V18.8415L41.6629 17.8202C42.4232 16.6606 43.0942 16.0148 44.0066 15.5647C44.5284 15.3072 44.7848 15.2536 45.497 15.2536C46.4934 15.2536 46.826 15.4301 47.2076 16.1612C47.4333 16.5935 47.4396 16.7602 47.4396 22.3503V28.0952L46.1783 28.1271L44.9171 28.159V28.4932V28.8274H48.9531H52.989V28.4895V28.1516H51.7038H50.4186L50.3865 22.6601C50.3547 17.2004 50.353 17.1654 50.0965 16.6054C49.5147 15.3353 48.5526 14.7427 46.7234 14.5275C44.919 14.3154 43.5062 14.8004 42.2435 16.0653C41.8233 16.4862 41.3716 16.9828 41.2399 17.1686L41.0003 17.5066L40.9968 15.9577C40.9935 14.5031 40.9208 14.1716 40.6905 14.5601ZM58.2253 14.5349C57.1127 14.693 56.1928 15.2188 55.1169 16.3113C54.0033 17.4422 53.3572 18.5991 52.9727 20.1509C52.638 21.5013 52.7154 23.3008 53.1664 24.6568C53.539 25.7772 54.3432 27.0455 55.0964 27.7004C56.4045 28.838 58.3755 29.4142 60.1641 29.1819C62.5512 28.8719 64.4173 27.2091 65.0817 24.8L65.3069 23.9837H64.9237C64.5966 23.9837 64.531 24.0288 64.4747 24.2934C64.1497 25.8196 63.0926 27.2871 61.8651 27.9164C60.2641 28.737 58.1437 28.6626 57.2117 27.7531C56.3231 26.886 56.132 26.0462 56.1298 22.998L56.1281 20.717H60.3396C63.0283 20.717 64.6295 20.6748 64.768 20.6004C65.0518 20.4477 65.0415 20.1943 64.7112 19.2053C64.3253 18.0504 63.7219 17.0741 62.8643 16.2169C61.5046 14.8578 59.9411 14.291 58.2253 14.5349ZM80.9045 14.6264C80.404 14.9827 79.8631 15.1055 78.5221 15.1675L77.2048 15.2283V15.5445C77.2048 15.842 77.2365 15.8629 77.7373 15.8952L78.2699 15.9295V22.0124V28.0952L76.9526 28.127L75.6353 28.1587V28.4931V28.8274H79.7273H83.8193V28.4895V28.1516H82.531H81.2425L81.2137 21.2892L81.1847 14.4268L80.9045 14.6264ZM15.6003 15.415C16.5178 15.8147 17.076 16.8098 17.3425 18.521C17.5412 19.7969 17.5156 24.4477 17.3033 25.6235C16.9097 27.8035 15.9293 28.5937 13.7749 28.4672C12.1228 28.3702 10.6298 27.3114 10.0329 25.8138C9.79297 25.2118 9.77234 24.9744 9.73747 22.4254C9.71415 20.7277 9.74633 19.467 9.82178 19.1132C10.1185 17.7231 11.1905 16.2192 12.2973 15.6406C13.3629 15.0834 14.6395 14.9963 15.6003 15.415ZM29.7012 15.3167C30.2894 15.4809 30.8313 15.9949 31.1152 16.6579C31.3659 17.2434 31.6656 19.4188 31.5405 19.7461C31.479 19.9073 31.1513 19.9284 28.7148 19.9284H25.9588L26.03 18.9428C26.1509 17.2676 26.5765 16.1437 27.2605 15.6933C27.9652 15.2294 28.8815 15.0881 29.7012 15.3167ZM60.0039 15.4106C60.9872 15.8593 61.4761 16.9254 61.5918 18.8728L61.6545 19.9284H58.8913H56.1281L56.1295 18.9991C56.1323 17.001 56.8351 15.6981 58.1196 15.3095C58.6578 15.1467 59.528 15.1934 60.0039 15.4106ZM7.07486 32.3707C6.54469 32.9033 6.79705 33.5462 7.67274 33.8937C8.08284 34.0564 8.29148 34.351 8.18822 34.6215C8.09024 34.8782 7.61669 34.9636 7.2678 34.7874C7.10277 34.704 6.9299 34.6174 6.88371 34.5948C6.83752 34.5721 6.79963 34.6618 6.79963 34.794C6.79963 34.9646 6.91958 35.0848 7.21286 35.2079C7.73014 35.4251 8.20212 35.3087 8.5157 34.8867C8.87344 34.4052 8.67826 33.9156 7.98553 33.5567C7.31623 33.21 7.14313 32.9765 7.3604 32.7134C7.51668 32.5242 7.9695 32.5221 8.3972 32.7086C8.54832 32.7744 8.59339 32.7405 8.59339 32.5607C8.59339 32.0419 7.53395 31.9093 7.07486 32.3707ZM11.2928 32.5729C11.1787 32.8361 10.8554 33.5458 10.5745 34.1499C10.0704 35.234 10.0672 35.2482 10.3283 35.2482C10.5385 35.2482 10.6323 35.1441 10.7855 34.7413L10.9782 34.2344H11.6371H12.2959L12.541 34.7413C12.7042 35.0789 12.8576 35.2482 13 35.2482C13.2498 35.2482 13.2891 35.3718 12.4546 33.5304C12.0874 32.7202 11.7376 32.0942 11.652 32.0942C11.5686 32.0942 11.4069 32.3096 11.2928 32.5729ZM14.7594 33.6712C14.7594 35.1641 14.7712 35.2482 14.9799 35.2482C15.183 35.2482 15.2028 35.1555 15.2321 34.0663L15.2639 32.8844L16.2729 34.0631C16.8279 34.7114 17.3702 35.2433 17.4781 35.2451C17.6558 35.2479 17.6743 35.0992 17.6743 33.6712C17.6743 32.1783 17.6625 32.0942 17.4539 32.0942C17.2509 32.0942 17.2309 32.1869 17.2017 33.2668L17.1698 34.4393L16.1608 33.2671C15.5985 32.6138 15.0649 32.0948 14.9556 32.0946C14.7781 32.0942 14.7594 32.2442 14.7594 33.6712ZM22.2708 33.6712C22.2708 35.1731 22.2815 35.2482 22.4951 35.2482C22.6963 35.2482 22.7193 35.1731 22.7193 34.516V33.7838H23.3359C23.8092 33.7838 23.9525 33.7446 23.9525 33.6149C23.9525 33.4851 23.8092 33.4459 23.3359 33.4459H22.7193V33.0009V32.556L23.3628 32.5222C23.8704 32.4955 24.0143 32.4467 24.0437 32.2913C24.0768 32.1167 23.9774 32.0942 23.1759 32.0942H22.2708V33.6712ZM25.6341 33.6581C25.6341 35.1731 25.6447 35.2482 25.8584 35.2482C26.0579 35.2482 26.0826 35.1731 26.0826 34.5653V33.8822L26.4469 33.9175C26.7503 33.9469 26.8832 34.0613 27.2401 34.6005C27.5149 35.0155 27.7464 35.2482 27.8848 35.2482C28.0035 35.2482 28.1006 35.2201 28.1006 35.1857C28.1006 35.1514 27.8961 34.8206 27.6461 34.4508L27.1917 33.7784L27.4218 33.4843C27.7211 33.1021 27.7125 32.8532 27.387 32.4729C27.1582 32.2056 27.0197 32.1566 26.378 32.1154L25.6341 32.0679V33.6581ZM30.5755 32.3476C30.5216 32.4871 30.1978 33.1967 29.8561 33.9246C29.2509 35.214 29.2417 35.2482 29.4992 35.2482C29.7093 35.2482 29.8033 35.1441 29.9563 34.7413L30.149 34.2344H30.8079H31.4668L31.7119 34.7413C31.8751 35.0789 32.0285 35.2482 32.1708 35.2482C32.4206 35.2482 32.46 35.3718 31.6254 33.5304C31.2621 32.7285 30.9081 32.0942 30.8241 32.0942C30.7413 32.0942 30.6294 32.2081 30.5755 32.3476ZM33.9303 33.6712C33.9303 35.1641 33.9421 35.2482 34.1507 35.2482C34.3538 35.2482 34.3737 35.1555 34.4029 34.0663L34.4348 32.8844L35.4438 34.0631C35.9987 34.7114 36.5411 35.2433 36.649 35.2451C36.8267 35.2479 36.8452 35.0992 36.8452 33.6712C36.8452 32.1783 36.8334 32.0942 36.6247 32.0942C36.4217 32.0942 36.4018 32.1869 36.3725 33.2668L36.3407 34.4393L35.3317 33.2671C34.7693 32.6138 34.2358 32.0948 34.1265 32.0946C33.9489 32.0942 33.9303 32.2442 33.9303 33.6712ZM39.4749 32.304C38.3594 32.9875 38.4327 34.5718 39.6063 35.1426C39.9606 35.3149 40.2351 35.3709 40.5245 35.3298C41.2108 35.2321 41.5538 35.0526 41.5538 34.791C41.5538 34.645 41.4999 34.5761 41.4136 34.612C40.7866 34.8732 40.3905 34.9394 40.0193 34.8447C39.1201 34.6156 38.8422 33.4726 39.5346 32.8509C39.8579 32.5607 39.9598 32.5309 40.4733 32.5762C40.7901 32.6041 41.1679 32.6664 41.3129 32.7146C41.5326 32.7877 41.5697 32.7672 41.5361 32.5918C41.441 32.0956 40.1169 31.9107 39.4749 32.304ZM43.2354 33.6712C43.2354 35.1731 43.2461 35.2482 43.4597 35.2482C43.6732 35.2482 43.6839 35.1731 43.6839 33.6712C43.6839 32.1693 43.6732 32.0942 43.4597 32.0942C43.2461 32.0942 43.2354 32.1693 43.2354 33.6712ZM45.7731 32.3277C45.5626 32.4939 45.4776 32.6659 45.4776 32.9256C45.4776 33.4097 45.6519 33.6159 46.2904 33.8874C46.7094 34.0654 46.823 34.1699 46.823 34.3768C46.823 34.8834 46.3064 35.0815 45.8634 34.7449C45.5707 34.5225 45.4776 34.5318 45.4776 34.7839C45.4776 35.4242 46.8348 35.5195 47.1636 34.9023C47.4799 34.3084 47.1714 33.7476 46.3388 33.4029C45.9699 33.2502 45.9157 33.1824 45.9464 32.9133C45.9761 32.6535 46.0424 32.5952 46.3413 32.5661C46.5389 32.547 46.8037 32.5868 46.9299 32.6546C47.1316 32.763 47.1593 32.7451 47.1593 32.5055C47.1593 32.0488 46.2701 31.9348 45.7731 32.3277ZM49.7648 32.3189C48.4339 33.1342 48.8226 35.0669 50.3662 35.3088C50.9751 35.4042 51.6892 35.1536 51.7353 34.8283C51.7698 34.5836 51.7612 34.5816 51.3745 34.7439C50.6972 35.0283 50.2162 34.9629 49.7827 34.5273C49.5006 34.2439 49.4016 34.0462 49.4019 33.7669C49.4025 33.2715 49.7689 32.6822 50.1334 32.5901C50.444 32.5118 51.2367 32.5803 51.5596 32.7134C51.708 32.7744 51.7558 32.739 51.7558 32.5678C51.7558 32.0948 50.406 31.926 49.7648 32.3189ZM54.1614 32.2974C52.815 33.1485 53.3127 35.1596 54.9101 35.3231C55.8926 35.4236 56.6887 34.6749 56.6887 33.6501C56.6887 33.1664 56.636 33.0424 56.256 32.6332C55.8587 32.2053 55.7692 32.1637 55.1629 32.1245C54.6532 32.0914 54.4247 32.1309 54.1614 32.2974ZM27.0876 32.7626C27.2378 33.0444 27.236 33.0594 27.0276 33.2689C26.9306 33.3663 26.6783 33.4459 26.467 33.4459C26.0932 33.4459 26.0826 33.4334 26.0826 32.9953C26.0826 32.5454 26.0833 32.5447 26.5271 32.5447C26.8518 32.5447 27.0029 32.6034 27.0876 32.7626ZM55.9125 32.874C56.4458 33.4099 56.3295 34.3377 55.6808 34.7227C54.4286 35.466 53.1386 33.7598 54.2453 32.8241C54.735 32.41 55.4727 32.4321 55.9125 32.874ZM12.0449 33.8453C12.0088 33.8817 11.8049 33.8954 11.592 33.8758L11.2048 33.8402L11.4238 33.3333L11.643 32.8263L11.8769 33.3028C12.0056 33.5649 12.0811 33.809 12.0449 33.8453ZM31.2158 33.8453C31.1797 33.8817 30.9757 33.8954 30.7628 33.8758L30.3756 33.8402L30.5947 33.3333L30.8139 32.8263L31.0477 33.3028C31.1764 33.5649 31.252 33.809 31.2158 33.8453Z" fill="white"/>
</svg>
