<svg width="31" height="31" viewBox="0 0 31 31" fill="none" xmlns="http://www.w3.org/2000/svg">
<path d="M17.5771 15.5929L29.7818 3.38815C30.023 3.10651 30.1491 2.74423 30.1348 2.37371C30.1204 2.00318 29.9668 1.65171 29.7046 1.38951C29.4425 1.12732 29.091 0.973718 28.7204 0.959406C28.3499 0.945094 27.9876 1.07113 27.706 1.31231L15.5013 13.517L3.29657 1.29759C3.01934 1.02037 2.64334 0.864624 2.25129 0.864624C1.85923 0.864624 1.48324 1.02037 1.20601 1.29759C0.928787 1.57482 0.773044 1.95081 0.773044 2.34287C0.773044 2.73493 0.928787 3.11092 1.20601 3.38815L13.4255 15.5929L1.20601 27.7976C1.0519 27.9296 0.926728 28.092 0.838361 28.2746C0.749993 28.4573 0.700335 28.6562 0.692503 28.859C0.684672 29.0617 0.718835 29.2639 0.792851 29.4528C0.866866 29.6418 0.979135 29.8133 1.12261 29.9568C1.26609 30.1003 1.43767 30.2126 1.62659 30.2866C1.81551 30.3606 2.0177 30.3948 2.22045 30.3869C2.4232 30.3791 2.62215 30.3294 2.8048 30.2411C2.98745 30.1527 3.14986 30.0275 3.28184 29.8734L15.5013 17.6687L27.706 29.8734C27.9876 30.1146 28.3499 30.2406 28.7204 30.2263C29.091 30.212 29.4425 30.0584 29.7046 29.7962C29.9668 29.534 30.1204 29.1826 30.1348 28.812C30.1491 28.4415 30.023 28.0792 29.7818 27.7976L17.5771 15.5929Z" fill="#072652"/>
</svg>
