<svg width="114" height="45" viewBox="0 0 114 45" fill="none" xmlns="http://www.w3.org/2000/svg">
<path fill-rule="evenodd" clip-rule="evenodd" d="M1.59807 0.668962C1.59807 0.975239 2.58947 1.19311 3.98175 1.19311C6.87219 1.19311 8.75488 1.98054 9.08839 3.32883C9.22507 3.88148 9.27416 12.7495 9.19715 23.0358C9.07491 39.4216 8.9623 41.8346 8.28661 42.5119C7.77792 43.0225 6.26436 43.38 3.83497 43.5646C1.81079 43.7182 0.154297 44.0303 0.154297 44.2573C0.154297 44.8245 29.553 44.7771 33.0344 44.2047C38.7392 43.267 43.2992 40.3965 46.3768 35.8062C50.9266 29.0193 51.4955 19.0943 47.7566 11.7374C46.4182 9.10461 42.7996 5.2718 40.2186 3.75347C35.1789 0.788768 33.5128 0.544809 16.878 0.336599C6.09929 0.201335 1.59807 0.299401 1.59807 0.668962ZM31.1921 3.14671C35.2617 4.70176 38.9813 8.52974 40.7942 13.0287C43.3083 19.2668 42.9984 28.2474 40.0579 34.3628C38.513 37.5762 35.5899 40.5549 32.7779 41.7815C30.5453 42.7549 29.4052 42.8969 23.4954 42.9356L16.7577 42.98L16.6321 22.9325C16.5628 11.906 16.6215 2.58295 16.7625 2.21435C17.1928 1.08876 27.5591 1.75832 31.1921 3.14671ZM57.5079 11.4896C56.2672 12.8157 56.1988 13.6451 57.2109 15.0949C58.1359 16.4209 60.3276 16.5195 61.4402 15.2852C62.577 14.0244 62.4456 12.0229 61.1669 11.1239C59.6904 10.0853 58.7327 10.1809 57.5079 11.4896ZM77.637 23.4576C71.371 24.7015 67.6364 31.3623 69.4768 38.0134C70.6607 42.2926 74.5285 44.8356 79.8027 44.8027C86.8849 44.7583 91.556 40.5685 91.5829 34.2357C91.6161 26.487 85.6408 21.8687 77.637 23.4576ZM58.146 25.3851C56.5579 26.16 55.0005 26.7942 54.6853 26.7952C54.37 26.7962 53.9908 26.9933 53.8431 27.2339C53.69 27.4826 54.409 27.5585 55.5111 27.4102L57.4482 27.1493L57.3158 35.3062L57.1835 43.4631L55.3788 43.6129C54.3864 43.6955 53.574 43.9675 53.574 44.2167C53.574 44.4771 56.2845 44.6708 59.9267 44.6708C63.8181 44.6708 66.1022 44.4979 65.8221 44.225C65.5709 43.9795 64.7152 43.708 63.9211 43.6211L62.4773 43.4631L62.2367 33.841C62.0914 28.0343 61.805 24.1711 61.5148 24.0977C61.2501 24.031 59.7342 24.6102 58.146 25.3851ZM101.7 24.6223C101.038 25.002 99.4708 25.6629 98.2166 26.0914C95.3276 27.0783 94.9628 27.6445 97.2608 27.5754L99.053 27.5213L99.1863 34.9439C99.3312 43.0317 99.1502 43.7047 96.8287 43.7047C96.0668 43.7047 95.4436 43.9221 95.4436 44.1878C95.4436 44.4853 97.8595 44.6708 101.728 44.6708C105.795 44.6708 107.908 44.5003 107.716 44.1878C107.552 43.9221 106.789 43.7047 106.02 43.7047C103.888 43.7047 103.499 42.4569 103.696 36.2371C103.856 31.1889 103.958 30.7068 105.212 29.0565C106.926 26.7991 108.828 26.231 109.791 27.6875C110.711 29.0783 112.182 29.0077 112.847 27.5411C113.682 25.702 112.309 23.8981 110.074 23.8981C108.298 23.8981 106.951 24.93 104.711 28.0044L103.655 29.4536L103.64 26.6759C103.632 25.1479 103.462 23.9059 103.264 23.9151C103.066 23.9247 102.362 24.2431 101.7 24.6223ZM83.904 26.2102C86.1793 28.4947 86.9599 31.2097 86.6678 35.8255C86.4219 39.7076 85.6365 41.3086 83.2658 42.7598C80.1265 44.681 77.0898 43.4047 75.057 39.31C74.0179 37.2168 73.7884 36.0883 73.7946 33.1029C73.8076 27.2967 75.9401 24.4049 80.2204 24.3885C81.7373 24.3827 82.4183 24.7194 83.904 26.2102Z" fill="black"/>
</svg>
