<svg width="21" height="16" viewBox="0 0 21 16" fill="none" xmlns="http://www.w3.org/2000/svg">
<path d="M18.8369 0.311035L2.58691 0.311035C2.06608 0.311035 1.62337 0.493327 1.25879 0.85791C0.894206 1.22249 0.711914 1.6652 0.711914 2.18604L0.711914 13.436C0.711914 13.9569 0.894206 14.3996 1.25879 14.7642C1.62337 15.1287 2.06608 15.311 2.58691 15.311H18.8369C19.3577 15.311 19.8005 15.1287 20.165 14.7642C20.5296 14.3996 20.7119 13.9569 20.7119 13.436V2.18604C20.7119 1.6652 20.5296 1.22249 20.165 0.85791C19.8005 0.493327 19.3577 0.311035 18.8369 0.311035ZM2.58691 1.56104L18.8369 1.56104C19.0192 1.56104 19.1624 1.62614 19.2666 1.75635C19.3968 1.86051 19.4619 2.00374 19.4619 2.18604V3.7876C18.5505 4.56885 16.5843 6.15739 13.5635 8.55322L13.1729 8.86572C12.652 9.30843 12.2484 9.62093 11.9619 9.80322C11.4671 10.1418 11.0505 10.311 10.7119 10.311C10.3734 10.311 9.95671 10.1418 9.46191 9.80322C9.14941 9.62093 8.73275 9.30843 8.21191 8.86572L7.86035 8.55322C4.83952 6.15739 2.87337 4.56885 1.96191 3.7876V2.18604C1.96191 2.00374 2.014 1.86051 2.11816 1.75635C2.24837 1.62614 2.40462 1.56104 2.58691 1.56104ZM18.8369 14.061H2.58691C2.40462 14.061 2.24837 14.009 2.11816 13.9048C2.014 13.7746 1.96191 13.6183 1.96191 13.436L1.96191 5.42822C2.87337 6.15739 4.5791 7.52458 7.0791 9.52979L7.46973 9.84229C8.06868 10.3631 8.56348 10.7407 8.9541 10.9751C9.60514 11.3657 10.1911 11.561 10.7119 11.561C11.2327 11.561 11.8187 11.3657 12.4697 10.9751C12.8343 10.7407 13.3291 10.3631 13.9541 9.84229L14.3447 9.52979C16.8447 7.52458 18.5505 6.15739 19.4619 5.42822V13.436C19.4619 13.6183 19.3968 13.7746 19.2666 13.9048C19.1624 14.009 19.0192 14.061 18.8369 14.061Z" fill="#0F001A"/>
</svg>
