<svg width="147" height="18" viewBox="0 0 147 18" fill="none" xmlns="http://www.w3.org/2000/svg">
<path d="M43.9753 0.378998H36.1636V1.05894H43.9753V0.378998Z" fill="black"/>
<path d="M20.4128 5.30691L20.2108 4.82158C19.7806 4.02046 18.9464 3.26829 18.0874 2.97578C16.4438 2.41762 14.497 2.75729 13.2333 3.8742C12.2468 4.7971 11.8682 6.15697 12.2723 7.4679C12.9859 8.96531 14.3214 9.68657 15.6647 10.4121C16.8909 11.0743 18.1237 11.7401 18.8961 13.0029C19.2746 13.7551 19.2746 14.7992 18.7693 15.4791C17.8338 16.6205 16.2916 16.9357 14.8252 16.5715C13.789 16.3537 12.9038 15.3335 12.5501 14.435C12.225 14.5072 11.8986 14.6033 11.5735 14.6992L11.5643 14.7019C11.8573 15.5002 12.3732 16.2058 13.0555 16.7417C14.3708 17.7368 16.4184 17.9075 17.9854 17.3488C19.3511 16.9363 20.6913 15.6492 20.8678 14.2655C21.2204 11.6034 19.2576 10.4629 17.2643 9.30455C16.1125 8.63526 14.9505 7.96006 14.2191 6.98198C13.789 6.32652 13.84 5.28243 14.3198 4.65144C15.0285 3.7769 16.115 3.4617 17.2526 3.65571C18.2894 3.80137 19.2249 4.77263 19.5786 5.69553L20.4128 5.30691Z" fill="black"/>
<path d="M2.48885 3.99599H8.15104V3.07368H0.541992V17.3739H8.15104V16.451H2.48885V10.1387H7.44365V9.24027L2.46337 9.2158L2.48885 3.99599Z" fill="black"/>
<path d="M29.1096 3.99599H33.3316V3.07368H22.9408V3.99599L27.1379 4.02046V17.3739H29.1096V3.99599Z" fill="black"/>
<path d="M38.6407 3.99599H44.3035V3.07368H36.618V17.3739H44.3035V16.451H38.6407V10.1387H43.5458V9.24027L38.6152 9.2158L38.6407 3.99599Z" fill="black"/>
<path d="M50.9273 3.99599H56.5907V3.07368H48.9301V17.3739H56.5397V16.451H50.9273V10.1387H55.8317V9.24027L50.9273 9.2158V3.99599Z" fill="black"/>
<path d="M74.9442 16.451L69.3069 16.4265V3.07368H67.3351V17.3739H74.9442V16.451Z" fill="black"/>
<path fill-rule="evenodd" clip-rule="evenodd" d="M88.3186 17.3249H90.6695L84.1725 3.07368H83.3887L76.6387 17.3494L77.9279 17.3249L80.8351 11.0855H85.5375L85.6128 11.1338C85.9664 11.9352 86.3123 12.7402 86.6579 13.5446C87.2025 14.8118 87.7463 16.0775 88.3186 17.3249ZM83.2369 5.88963L81.2397 10.1137H85.1328L83.2369 5.88963Z" fill="black"/>
<path d="M97.0907 16.3781C95.8779 15.6743 95.2961 14.4601 95.1189 13.1975L95.0941 3.07368H93.1478V12.3236C93.1727 13.8052 93.5768 15.1162 94.6136 16.1841C96.1309 17.8108 98.7093 18.0783 100.807 17.4222C102.653 16.8885 104.094 15.0672 104.245 13.2465L104.271 3.07368H103.184V10.867C103.31 12.9552 103.133 14.9705 101.288 16.2086C100.175 16.9858 98.2792 17.0581 97.0907 16.3781Z" fill="black"/>
<path fill-rule="evenodd" clip-rule="evenodd" d="M120.78 10.2115C120.881 7.39566 119.187 4.65204 116.457 3.63243C114.984 2.98295 113.213 3.02983 111.447 3.0766C110.638 3.09805 109.829 3.11948 109.05 3.07368V17.3739C109.769 17.3407 110.508 17.3547 111.248 17.3687C113.214 17.406 115.18 17.4432 116.76 16.5966C119.289 15.383 120.78 12.8579 120.78 10.2115ZM116.785 15.0667C118.883 12.9791 119.061 9.43438 117.948 6.86029C116.734 4.26292 113.827 3.80147 110.996 3.99548V16.4504C113.145 16.4994 115.294 16.5477 116.785 15.0667Z" fill="black"/>
<path d="M126.689 3.99599H132.334V3.07368H124.698V17.3739H132.334V16.451H126.689V10.1387H131.575V9.24027L126.689 9.2158V3.99599Z" fill="black"/>
<path fill-rule="evenodd" clip-rule="evenodd" d="M145.125 8.43976C145.783 7.34732 145.732 5.67166 144.898 4.65205C143.411 2.94727 141.084 3.00524 138.771 3.06288C138.135 3.07872 137.499 3.09454 136.883 3.07368V17.3739H138.811V10.479H140.676L140.751 10.5273L144.114 17.3745L146.061 17.35L142.572 10.2366L142.547 10.1148C143.533 9.87187 144.518 9.36206 145.125 8.43976ZM143.482 8.14793C143.912 7.41904 143.937 6.32661 143.532 5.54937C142.703 3.97924 140.88 3.98735 139.155 3.99501C139.04 3.99553 138.925 3.99604 138.811 3.99607V9.67734C140.632 9.75076 142.521 9.75077 143.482 8.14793Z" fill="black"/>
</svg>
