<svg width="117" height="106" viewBox="0 0 117 106" fill="none" xmlns="http://www.w3.org/2000/svg">
<path d="M18.3423 0L11.345 16.8469L4.34766 0L0.212891 22.2168H2.75737L5.19582 8.10755L11.345 22.7433L17.4941 8.10755L19.9326 22.2168H22.4771L18.3423 0Z" fill="black"/>
<path d="M33.29 0L23.5361 22.2168H26.2926L28.6251 16.8469H37.9548L40.2873 22.2168H43.0438L33.29 0ZM33.29 5.79111L36.8946 14.4251H29.6853L33.29 5.79111Z" fill="black"/>
<path d="M56.9324 0.945969L48.2388 10.1064V0.945969H45.6943V22.2151H48.2388V13.3705L49.299 12.3176L56.9324 22.2151H60.4311L51.1013 10.5276L60.219 0.945969H56.9324Z" fill="black"/>
<path d="M62.8701 0.945969V22.2151H73.8962V19.7934H65.4146V11.7911H73.5781V9.2641H65.4146V3.3677H73.8962V0.945969H62.8701Z" fill="black"/>
<path d="M92.7676 22.7502C97.4325 22.7502 100.189 19.1702 100.189 14.432V0.954559H97.6446V13.5897C97.6446 17.0644 96.6904 20.3284 92.7676 20.3284C88.8449 20.3284 87.8907 17.0644 87.8907 13.5897V0.954559H85.2402V14.432C85.2402 19.0649 88.1028 22.7502 92.7676 22.7502Z" fill="black"/>
<path d="M107.293 13.2699H108.777C112.7 13.2699 115.881 11.5852 115.881 7.0576C115.881 3.16176 113.972 0.845322 107.611 0.845322H104.643V22.2198H107.187V13.2699H107.293ZM107.293 3.26706H107.929C110.474 3.26706 113.442 3.68823 113.442 6.95231C113.442 10.3217 110.58 10.8481 108.035 10.8481H107.187V3.26706H107.293Z" fill="black"/>
<path d="M2.54448 41.0643H9.64781V38.6426H2.54448V32.6409H9.85984V30.2192H0V51.4883H2.54448V41.0643Z" fill="black"/>
<path d="M11.4502 40.8531C11.4502 47.1707 16.2211 52.0142 22.1582 52.0142C28.0953 52.0142 32.8662 47.276 32.8662 40.8531C32.8662 34.7461 27.9893 29.6921 22.1582 29.6921C16.2211 29.6921 11.4502 34.7461 11.4502 40.8531ZM30.2157 40.8531C30.2157 45.6966 26.505 49.4871 22.0522 49.4871C17.5993 49.4871 13.8887 45.6966 13.8887 40.8531C13.8887 36.115 17.2813 32.2191 22.0522 32.2191C26.9291 32.2191 30.2157 36.115 30.2157 40.8531Z" fill="black"/>
<path d="M35.3047 30.2184V51.5928H37.8492V42.5376H38.9094L44.9525 51.5928H48.0271L41.5599 42.3271C44.5284 42.0112 46.4368 39.3789 46.4368 36.3254C46.4368 34.3248 45.4826 32.3242 43.7863 31.2713C42.196 30.3237 40.1816 30.3237 38.3793 30.3237H35.3047V30.2184ZM43.9983 36.4307C43.9983 39.8 41.1358 40.3265 38.5913 40.3265H37.7431V32.6401H38.3793C41.0298 32.5348 43.9983 33.0613 43.9983 36.4307Z" fill="black"/>
<path d="M68.7003 32.6409V30.2192H57.7803V51.4883H68.7003V49.0666H60.3248V41.0643H68.4883V38.5373H60.3248V32.6409H68.7003Z" fill="black"/>
<path d="M69.7607 30.2192L78.6664 52.6465L87.466 30.2192H84.7095L78.6664 46.0131L72.5173 30.2192H69.7607Z" fill="black"/>
<path d="M100.189 32.6409V30.2192H89.1631V51.4883H100.189V49.0666H91.7076V41.0643H99.9771V38.5373H91.7076V32.6409H100.189Z" fill="black"/>
<path d="M105.808 42.5381H106.868L112.911 51.5933H115.986L109.519 42.3275C112.487 42.0117 114.396 39.3793 114.396 36.3259C114.396 34.3253 113.442 32.3247 111.745 31.2718C110.155 30.3242 108.141 30.3242 106.338 30.3242H103.264V51.6986H105.808V42.5381ZM105.808 32.5353H106.444C108.989 32.5353 111.957 33.0618 111.957 36.3259C111.957 39.6952 109.095 40.2217 106.55 40.2217H105.702V32.5353H105.808Z" fill="black"/>
<path d="M1.0602 97.9239H0V105.084H0.848159V102.136H1.37826C2.75652 102.136 3.92273 101.609 3.92273 100.03C3.92273 98.661 3.28662 97.9239 1.0602 97.9239ZM1.16622 101.188H0.848159V98.661H1.0602C1.90836 98.661 2.96856 98.7662 2.96856 99.9245C3.07458 101.083 2.1204 101.188 1.16622 101.188Z" fill="black"/>
<path d="M9.64832 99.9245C9.64832 99.2927 9.33026 98.5557 8.69414 98.2398C8.16404 97.9239 7.52792 97.9239 6.8918 97.9239H5.72559V105.084H6.57374V102.03H6.8918L9.0122 105.084H10.0724L7.84598 102.03C9.0122 101.82 9.64832 100.977 9.64832 99.9245ZM6.8918 101.293H6.67976V98.7663H6.8918C7.73996 98.7663 8.80016 98.9768 8.80016 100.03C8.80016 101.083 7.84598 101.293 6.8918 101.293Z" fill="black"/>
<path d="M15.2664 97.7139C13.252 97.7139 11.5557 99.3986 11.5557 101.399C11.5557 103.505 13.252 105.084 15.2664 105.084C17.3868 105.084 18.9771 103.505 18.9771 101.399C18.9771 99.3986 17.2807 97.7139 15.2664 97.7139ZM15.2664 104.347C13.6761 104.347 12.4038 103.084 12.4038 101.504C12.4038 99.9251 13.57 98.6616 15.2664 98.6616C16.9627 98.6616 18.1289 99.9251 18.1289 101.504C18.1289 103.084 16.7506 104.347 15.2664 104.347Z" fill="black"/>
<path d="M20.8857 104.977H21.7339V101.502H24.2784V100.66H21.7339V98.659H24.3844V97.922H20.8857V104.977Z" fill="black"/>
<path d="M26.3994 104.977H30.3221V104.24H27.3536V101.502H30.2161V100.66H27.3536V98.659H30.3221V97.922H26.3994V104.977Z" fill="black"/>
<path d="M34.7751 100.766L34.245 100.555C33.8209 100.345 33.2908 100.134 33.2908 99.5024C33.2908 98.8706 33.9269 98.4494 34.457 98.4494C34.9871 98.4494 35.3052 98.66 35.6232 99.0812L36.3654 98.66C35.9413 97.923 35.3052 97.6071 34.563 97.6071C33.5028 97.6071 32.4426 98.3442 32.4426 99.3971C32.4426 100.345 33.1848 100.871 34.0329 101.187L34.563 101.398C35.1992 101.608 35.8353 102.029 35.8353 102.766C35.8353 103.503 35.3052 104.135 34.563 104.135C33.8209 104.135 33.1848 103.609 33.1848 102.766L32.0186 103.188C32.1246 104.346 33.0788 105.188 34.245 105.188C35.5172 105.188 36.5774 104.241 36.5774 102.977C36.5774 101.714 35.8353 101.187 34.7751 100.766Z" fill="black"/>
<path d="M40.9245 100.766L40.3944 100.555C39.9703 100.345 39.4402 100.134 39.4402 99.5024C39.4402 98.8706 40.0763 98.4495 40.6064 98.4495C41.1365 98.4495 41.4546 98.66 41.7726 99.0812L42.5148 98.66C42.0907 97.923 41.4546 97.6071 40.7124 97.6071C39.6522 97.6071 38.592 98.3442 38.592 99.3971C38.592 100.345 39.3342 100.871 40.1823 101.187L40.7124 101.398C41.3486 101.608 41.9847 102.029 41.9847 102.766C41.9847 103.504 41.4546 104.135 40.7124 104.135C39.9703 104.135 39.3342 103.609 39.3342 102.766L38.168 103.188C38.274 104.346 39.2282 105.188 40.3944 105.188C41.6666 105.188 42.7268 104.241 42.7268 102.977C42.7268 101.714 41.9847 101.187 40.9245 100.766Z" fill="black"/>
<path d="M45.5884 97.922H44.7402V105.082H45.5884V97.922Z" fill="black"/>
<path d="M51.2078 97.7109C49.1934 97.7109 47.4971 99.3956 47.4971 101.396C47.4971 103.502 49.1934 105.081 51.2078 105.081C53.3282 105.081 54.9185 103.502 54.9185 101.396C55.0245 99.3956 53.3282 97.7109 51.2078 97.7109ZM51.2078 104.344C49.6175 104.344 48.3452 103.081 48.3452 101.501C48.3452 99.9221 49.5114 98.6585 51.2078 98.6585C52.9041 98.6585 54.0703 99.9221 54.0703 101.501C54.0703 103.081 52.7981 104.344 51.2078 104.344Z" fill="black"/>
<path d="M56.8262 104.977H57.7803V99.7121L63.0813 105.293V97.9221H62.2332V103.187L56.8262 97.5009V104.977Z" fill="black"/>
<path d="M79.9385 100.973V101.184V101.605V101.815H85.1335V100.973H79.9385Z" fill="black"/>
<path d="M64.6729 104.977H65.627L66.4752 103.188H69.7618L70.61 104.977H71.5641L68.1715 97.607L64.6729 104.977ZM66.7933 102.45L68.0655 99.6076L69.3377 102.45H66.7933Z" fill="black"/>
<path d="M74.1075 97.922H73.1533V104.977H76.2279V104.24H74.1075V97.922Z" fill="black"/>
<path d="M90.7526 97.922H89.6924V105.082H90.5405V102.134H91.0706C92.4489 102.134 93.6151 101.607 93.6151 100.028C93.6151 98.659 92.873 97.922 90.7526 97.922ZM90.8586 101.186H90.5405V98.659H90.7526C91.6007 98.659 92.6609 98.7643 92.6609 99.9225C92.767 101.081 91.8128 101.186 90.8586 101.186Z" fill="black"/>
<path d="M93.9336 104.977H94.8878L95.7359 103.188H99.0225L99.8707 104.977H100.825L97.4322 97.607L93.9336 104.977ZM96.054 102.45L97.3262 99.6076L98.5985 102.45H96.054Z" fill="black"/>
<path d="M106.338 99.9225C106.338 99.2908 106.02 98.5537 105.384 98.2378C104.853 97.922 104.111 97.922 103.475 97.922H102.415V105.082H103.263V102.028H103.687L105.808 105.082H106.868L104.641 102.028C105.596 101.818 106.338 100.975 106.338 99.9225ZM103.581 101.291H103.263V98.7643H103.475C104.323 98.7643 105.384 98.9749 105.384 100.028C105.49 101.081 104.535 101.291 103.581 101.291Z" fill="black"/>
<path d="M109.413 97.922H108.564V105.082H109.413V97.922Z" fill="black"/>
<path d="M114.183 100.766L113.653 100.555C113.229 100.345 112.699 100.134 112.699 99.5023C112.699 98.8705 113.335 98.4493 113.865 98.4493C114.395 98.4493 114.713 98.6599 115.031 99.0811L115.773 98.6599C115.349 97.9229 114.713 97.607 113.971 97.607C112.911 97.607 111.851 98.344 111.851 99.397C111.851 100.345 112.593 100.871 113.441 101.187L113.971 101.398C114.607 101.608 115.243 102.029 115.243 102.766C115.243 103.503 114.713 104.135 113.971 104.135C113.229 104.135 112.593 103.609 112.593 102.766L111.639 102.977C111.745 104.135 112.699 104.977 113.865 104.977C115.137 104.977 116.198 104.03 116.198 102.766C115.985 101.713 115.243 101.187 114.183 100.766Z" fill="black"/>
<path d="M70.6092 79.0749C67.6407 80.1278 62.8698 79.3908 58.2049 79.2855C53.54 79.3908 48.7691 80.1278 45.8006 79.0749C38.3792 76.4426 42.3019 74.5473 42.3019 74.5473C45.4825 71.8097 49.5113 69.4933 51.1016 68.4403C53.434 66.9662 55.0243 68.8615 58.3109 68.9668C61.5975 68.9668 63.1879 66.9662 65.5203 68.4403C67.0046 69.4933 71.0333 71.8097 74.3199 74.5473C74.2139 74.5473 78.1366 76.4426 70.6092 79.0749ZM82.1654 75.1791C80.045 72.2309 74.1079 63.281 66.3684 59.4905C62.9758 57.8058 61.1735 61.2804 58.2049 61.3857C55.2364 61.2804 53.54 57.8058 50.0414 59.4905C42.408 63.281 36.4708 72.2309 34.3505 75.1791C33.0782 76.8638 34.6685 81.1808 40.7116 85.919C43.1501 87.8142 45.8006 89.0777 49.0872 89.8148C51.6317 90.3413 55.6604 89.7095 58.3109 89.7095C60.9614 89.6042 64.9902 90.3413 67.5347 89.8148C70.9273 89.0777 73.4718 87.8142 75.9102 85.919C81.8473 81.1808 83.4376 76.8638 82.1654 75.1791Z" fill="#EB1C50"/>
<path d="M74.2141 74.5462C71.0335 71.8086 67.0047 69.4921 65.4144 68.4392C63.082 66.9651 61.4917 68.8604 58.2051 68.9657C54.9185 68.9657 53.3282 66.9651 50.9957 68.4392C49.5114 69.4921 45.4827 71.8086 42.1961 74.5462C42.1961 74.5462 38.2733 76.4415 45.6947 79.0738C48.6633 80.1267 53.4342 79.3897 58.0991 79.2844C62.7639 79.3897 67.5348 80.1267 70.5034 79.0738C78.1368 76.4415 74.2141 74.5462 74.2141 74.5462Z" fill="white"/>
<path d="M51.6311 61.9121C52.3732 61.8068 53.1154 63.1756 52.7973 63.3862C52.4793 63.5968 50.1468 64.2285 49.0866 64.8603C48.1324 65.5973 46.3301 66.3344 47.0722 64.9656C47.8144 63.7021 49.4047 62.1227 51.6311 61.9121Z" fill="white"/>
<path d="M59.265 82.3385C60.4313 82.4438 61.9155 83.0756 60.3252 83.7073C58.735 84.4444 57.6748 84.5497 55.3423 84.3391C53.0099 84.1285 51.1015 83.9179 49.1932 83.8126C47.2848 83.7073 45.3764 82.0227 47.1788 82.2332C53.1159 82.9703 57.1447 82.1279 59.265 82.3385Z" fill="white"/>
<path d="M104.854 74.0216C103.9 74.1269 101.779 74.4427 101.779 74.4427V76.9698C101.779 76.9698 104.006 77.3909 104.854 77.3909C105.596 77.3909 106.974 76.4433 107.292 75.7062C106.974 74.9692 105.596 74.0216 104.854 74.0216Z" fill="black"/>
<path d="M104.96 73.6005C104.854 73.6005 104.854 73.7058 104.96 73.6005C104.005 73.7058 101.885 74.0217 101.779 74.0217L101.461 74.127V74.4429V76.9699V77.2858L101.779 77.3911C101.885 77.3911 104.005 77.8122 104.96 77.8122C104.96 77.8122 104.96 77.8122 105.066 77.8122C106.02 77.8122 107.504 76.7593 107.822 75.8117V75.7064V75.8117V75.7064V75.6011C107.186 74.6535 105.808 73.6005 104.96 73.6005ZM104.96 74.0217C105.702 74.0217 106.974 74.9693 107.398 75.7064C107.08 76.4434 105.808 77.3911 105.066 77.3911C104.111 77.3911 101.991 76.9699 101.991 76.9699V74.4429C101.779 74.5482 104.005 74.127 104.96 74.0217C104.854 74.0217 104.96 74.0217 104.96 74.0217Z" fill="white"/>
<path d="M10.6017 75.1793C10.6017 75.1793 41.9836 74.6529 44.316 74.7582C47.9207 74.8635 60.113 75.3899 71.4571 74.7582C72.6233 74.6529 79.6206 74.5476 84.3915 74.5476C91.3888 74.5476 100.507 74.7582 100.507 74.7582V76.864C97.75 77.0746 89.6925 77.0746 84.3915 76.9693C78.9845 76.9693 74.3196 76.9693 71.3511 76.864C57.5685 76.2323 50.1471 76.9693 44.316 76.9693C44.316 76.9693 11.3439 76.5481 8.69336 76.2323L10.6017 75.1793Z" fill="black"/>
<path d="M84.1797 74.1255C79.3028 74.1255 72.4115 74.2308 71.3513 74.3361C67.8526 74.5467 63.8239 74.652 59.4771 74.652C54.1761 74.652 49.6172 74.5467 46.6487 74.4414C45.6945 74.4414 44.9524 74.3361 44.3162 74.3361C44.2102 74.3361 43.9982 74.3361 43.7861 74.3361C39.0152 74.3361 10.92 74.7572 10.6019 74.7572H10.4959L10.3899 74.8625L8.48152 76.0208L7.52734 76.6525L8.69356 76.7578C11.238 77.0737 42.938 77.3896 44.3162 77.4949C46.1186 77.4949 47.9209 77.3896 50.1473 77.3896C53.1159 77.2843 56.4025 77.179 60.6433 77.179C64.1419 77.179 67.6406 77.2843 71.3513 77.3896C73.3657 77.4949 76.1222 77.4949 79.4088 77.4949C80.9991 77.4949 82.6954 77.4949 84.4978 77.4949C86.0881 77.4949 87.8904 77.4949 89.5867 77.4949C92.7673 77.4949 98.3864 77.4949 100.613 77.3896H101.037V76.8631V74.7572V74.3361H100.613C100.507 74.3361 91.389 74.1255 84.4978 74.1255H84.1797ZM84.1797 74.5467H84.2857C91.283 74.5467 100.401 74.7572 100.401 74.7572V76.8631C98.3864 76.9684 93.8275 76.9684 89.3747 76.9684C87.5723 76.9684 85.876 76.9684 84.2857 76.9684C78.8787 76.9684 74.2138 76.9684 71.2453 76.8631C67.1105 76.6525 63.6118 76.6525 60.5373 76.6525C53.2219 76.6525 48.345 76.9684 44.2102 76.9684C44.2102 76.9684 11.238 76.5472 8.58754 76.2313L10.4959 75.0731C10.4959 75.0731 38.8032 74.652 43.6801 74.652C43.8921 74.652 44.1042 74.652 44.2102 74.652C46.5426 74.652 52.4798 74.9678 59.371 74.9678C63.1878 74.9678 67.3225 74.8625 71.2453 74.652C72.5175 74.652 79.4088 74.5467 84.1797 74.5467Z" fill="white"/>
</svg>
