<svg width="207" height="62" viewBox="0 0 207 62" fill="none" xmlns="http://www.w3.org/2000/svg">
<path d="M0.625 5C0.625 2.23858 2.86358 0 5.625 0H201.625C204.386 0 206.625 2.23858 206.625 5V57C206.625 59.7614 204.386 62 201.625 62H5.625C2.86358 62 0.625 59.7614 0.625 57V5Z" fill="#072652"/>
<path d="M104.595 33.7138C101.006 33.7138 98.0812 36.4868 98.0812 40.306C98.0812 44.1019 101.006 46.8981 104.595 46.8981C108.186 46.8981 111.111 44.1019 111.111 40.306C111.11 36.4868 108.184 33.7138 104.595 33.7138ZM104.595 44.3034C102.628 44.3034 100.933 42.6558 100.933 40.3075C100.933 37.9345 102.63 36.3116 104.595 36.3116C106.562 36.3116 108.258 37.9345 108.258 40.3075C108.258 42.6542 106.562 44.3034 104.595 44.3034ZM90.3829 33.7138C86.7939 33.7138 83.8687 36.4868 83.8687 40.306C83.8687 44.1019 86.7939 46.8981 90.3829 46.8981C93.9734 46.8981 96.8986 44.1019 96.8986 40.306C96.8986 36.4868 93.9734 33.7138 90.3829 33.7138ZM90.3829 44.3034C88.416 44.3034 86.7207 42.6558 86.7207 40.3075C86.7207 37.9345 88.4175 36.3116 90.3829 36.3116C92.3498 36.3116 94.0451 37.9345 94.0451 40.3075C94.0467 42.6542 92.3498 44.3034 90.3829 44.3034ZM73.4787 35.7381V38.5343H80.0677C79.8708 40.1076 79.355 41.2561 78.5677 42.0544C77.6094 43.0278 76.1094 44.1019 73.4787 44.1019C69.4228 44.1019 66.2519 40.7803 66.2519 36.6604C66.2519 32.5405 69.4228 29.2188 73.4787 29.2188C75.6669 29.2188 77.2645 30.093 78.4441 31.2168L80.3866 29.2436C78.7386 27.6456 76.5519 26.4226 73.4787 26.4226C67.9228 26.4226 63.252 31.0168 63.252 36.6604C63.252 42.3039 67.9228 46.8981 73.4787 46.8981C76.4772 46.8981 78.7401 45.8984 80.5087 44.026C82.3276 42.1784 82.8937 39.5806 82.8937 37.4834C82.8937 36.8355 82.8448 36.2357 82.7457 35.7366H73.4787V35.7381ZM142.615 37.9097C142.075 36.4372 140.427 33.7138 137.059 33.7138C133.716 33.7138 130.937 36.386 130.937 40.306C130.937 44.0012 133.692 46.8981 137.378 46.8981C140.352 46.8981 142.074 45.0505 142.788 43.9764L140.575 42.4775C139.838 43.5765 138.83 44.3003 137.378 44.3003C135.929 44.3003 134.896 43.6261 134.232 42.3024L142.91 38.6568L142.615 37.9097ZM133.765 40.1076C133.692 37.5594 135.707 36.262 137.159 36.262C138.289 36.262 139.248 36.8371 139.568 37.6601L133.765 40.1076ZM126.711 46.4998H129.561V27.1232H126.711V46.4998ZM122.038 35.1879H121.941C121.301 34.4129 120.071 33.7138 118.524 33.7138C115.278 33.7138 112.304 36.6108 112.304 40.3323C112.304 44.0275 115.278 46.8997 118.524 46.8997C120.073 46.8997 121.301 46.2006 121.941 45.4024H122.038V46.351C122.038 48.8728 120.711 50.2213 118.573 50.2213C116.827 50.2213 115.745 48.9488 115.303 47.8746L112.82 48.924C113.533 50.6708 115.425 52.8191 118.573 52.8191C121.916 52.8191 124.744 50.8212 124.744 45.9511V34.1153H122.04V35.1879H122.038ZM118.77 44.3034C116.803 44.3034 115.156 42.6294 115.156 40.3323C115.156 38.0089 116.803 36.3116 118.77 36.3116C120.711 36.3116 122.235 38.0089 122.235 40.3323C122.235 42.6294 120.711 44.3034 118.77 44.3034ZM155.973 27.1232H149.151V46.4998H151.997V39.159H155.972C159.127 39.159 162.231 36.8386 162.231 33.1419C162.231 29.4451 159.129 27.1232 155.973 27.1232ZM156.047 36.462H151.997V29.8202H156.047C158.175 29.8202 159.384 31.6105 159.384 33.1419C159.384 34.6423 158.175 36.462 156.047 36.462ZM173.644 33.6797C171.582 33.6797 169.447 34.602 168.564 36.6464L171.091 37.7175C171.631 36.6464 172.638 36.2961 173.692 36.2961C175.165 36.2961 176.662 37.1936 176.686 38.7885V38.9885C176.17 38.6893 175.066 38.2414 173.717 38.2414C170.993 38.2414 168.219 39.7619 168.219 42.6031C168.219 45.1962 170.453 46.8656 172.955 46.8656C174.869 46.8656 175.925 45.9929 176.587 44.9699H176.685V46.4657H179.434V39.0365C179.436 35.5986 176.906 33.6797 173.644 33.6797ZM173.299 44.2988C172.368 44.2988 171.066 43.8245 171.066 42.6527C171.066 41.1569 172.687 40.5834 174.086 40.5834C175.336 40.5834 175.926 40.8578 176.686 41.2313C176.465 43.0278 174.944 44.2988 173.299 44.2988ZM189.448 34.1029L186.184 42.5039H186.086L182.698 34.1029H179.631L184.711 45.8441L181.815 52.3758H184.784L192.614 34.1029H189.448ZM163.803 46.4998H166.649V27.1232H163.803V46.4998Z" fill="white"/>
<path d="M72.9814 15.877C72.9814 17.1759 72.603 18.2097 71.8446 18.9816C70.984 19.8992 69.8609 20.358 68.4815 20.358C67.16 20.358 66.0354 19.893 65.1122 18.963C64.1875 18.0315 63.7252 16.8783 63.7252 15.5019C63.7252 14.1239 64.1875 12.9707 65.1122 12.0407C66.0354 11.1092 67.16 10.6442 68.4815 10.6442C69.1376 10.6442 69.7648 10.7744 70.3599 11.0332C70.9565 11.2936 71.4341 11.6393 71.7912 12.0717L70.987 12.8901C70.3813 12.1539 69.5466 11.7865 68.4799 11.7865C67.5156 11.7865 66.6824 12.1306 65.979 12.8188C65.2755 13.507 64.9245 14.4014 64.9245 15.5003C64.9245 16.5993 65.2755 17.4936 65.979 18.1818C66.6824 18.87 67.5156 19.2141 68.4799 19.2141C69.5023 19.2141 70.3553 18.8685 71.0374 18.1756C71.4799 17.7246 71.7363 17.0968 71.8049 16.2924H68.4799V15.1748H72.9158C72.9616 15.4182 72.9814 15.6522 72.9814 15.877Z" fill="white"/>
<path d="M80.0161 11.9927H75.8473V14.9408H79.6071V16.0584H75.8473V19.0065H80.0161V20.1504H74.6708V10.8504H80.0161V11.9927Z" fill="white"/>
<path d="M84.9767 20.1504H83.8002V11.9927H81.2428V10.8504H87.5342V11.9927H84.9767V20.1504Z" fill="white"/>
<path d="M92.0859 20.1504V10.8504H93.2624V20.1504H92.0859Z" fill="white"/>
<path d="M98.4798 20.1504H97.3033V11.9927H94.7459V10.8504H101.037V11.9927H98.4798V20.1504Z" fill="white"/>
<path d="M112.947 18.9491C112.046 19.8884 110.928 20.3581 109.59 20.3581C108.251 20.3581 107.133 19.8884 106.234 18.9491C105.334 18.0098 104.885 16.8597 104.885 15.5004C104.885 14.141 105.334 12.9909 106.234 12.0516C107.133 11.1123 108.251 10.6411 109.59 10.6411C110.92 10.6411 112.037 11.1139 112.941 12.0578C113.844 13.0018 114.296 14.1488 114.296 15.5004C114.296 16.8597 113.846 18.0098 112.947 18.9491ZM107.102 18.1695C107.78 18.867 108.609 19.2142 109.59 19.2142C110.571 19.2142 111.401 18.8654 112.077 18.1695C112.755 17.472 113.095 16.5823 113.095 15.5004C113.095 14.4185 112.755 13.5288 112.077 12.8313C111.401 12.1338 110.571 11.7866 109.59 11.7866C108.609 11.7866 107.78 12.1353 107.102 12.8313C106.426 13.5288 106.086 14.4185 106.086 15.5004C106.086 16.5823 106.426 17.472 107.102 18.1695Z" fill="white"/>
<path d="M115.947 20.1504V10.8504H117.378L121.828 18.0842H121.878L121.828 16.2924V10.8504H123.004V20.1504H121.776L117.12 12.5647H117.07L117.12 14.3565V20.1504H115.947Z" fill="white"/>
<path fill-rule="evenodd" clip-rule="evenodd" d="M109.59 10.731C108.275 10.731 107.18 11.1929 106.298 12.114C105.415 13.0357 104.974 14.1632 104.974 15.5004C104.974 16.8376 105.415 17.965 106.298 18.8867C107.18 19.8078 108.275 20.2682 109.59 20.2682C110.905 20.2682 112 19.8078 112.883 18.8867C113.765 17.9649 114.207 16.8375 114.207 15.5004C114.207 14.1713 113.763 13.0468 112.876 12.1202C111.99 11.1942 110.897 10.731 109.59 10.731ZM106.17 11.9892C107.086 11.0318 108.228 10.5513 109.59 10.5513C110.944 10.5513 112.084 11.0335 113.005 11.9955C113.925 12.9567 114.385 14.1263 114.385 15.5004C114.385 16.8819 113.926 18.0547 113.011 19.0115C112.093 19.9689 110.951 20.4479 109.59 20.4479C108.228 20.4479 107.086 19.969 106.17 19.0115C105.253 18.0547 104.796 16.8819 104.796 15.5004C104.796 14.1189 105.253 12.9461 106.17 11.9892ZM68.4815 10.734C67.1833 10.734 66.0815 11.1898 65.1753 12.1042C64.2682 13.0165 63.8143 14.1465 63.8143 15.5019C63.8143 16.8556 64.2681 17.9856 65.1753 18.8995C66.0815 19.8123 67.1833 20.2681 68.4815 20.2681C69.8392 20.2681 70.9379 19.8176 71.7798 18.9199L71.7812 18.9184C72.5199 18.1665 72.8923 17.1572 72.8923 15.877C72.8923 15.6802 72.8767 15.4761 72.8412 15.2647H68.5691V16.2025H71.9021L71.8938 16.3001C71.8238 17.1197 71.5616 17.7691 71.1008 18.2388C70.4009 18.9497 69.5246 19.304 68.4799 19.304C67.4919 19.304 66.6366 18.9504 65.9168 18.2463C65.194 17.5391 64.8354 16.6205 64.8354 15.5003C64.8354 14.3801 65.194 13.4615 65.9168 12.7543C66.6366 12.0502 67.4919 11.6966 68.4799 11.6966C69.5328 11.6966 70.3726 12.0483 70.9919 12.7575L71.6701 12.0672C71.3294 11.6759 70.8814 11.3587 70.3245 11.1157C69.7407 10.8617 69.1256 10.734 68.4815 10.734ZM65.0492 11.9772C65.9894 11.0285 67.1368 10.5543 68.4815 10.5543C69.1497 10.5543 69.7889 10.687 70.3952 10.9507C71.0025 11.2157 71.4923 11.5692 71.8598 12.0142L71.9115 12.0769L70.9812 13.0238L70.9184 12.9475C70.3318 12.2345 69.5237 11.8764 68.4799 11.8764C67.5392 11.8764 66.7282 12.211 66.0411 12.8833C65.357 13.5525 65.0137 14.4226 65.0137 15.5003C65.0137 16.578 65.357 17.4481 66.0411 18.1173C66.7282 18.7896 67.5392 19.1242 68.4799 19.1242C69.4801 19.1242 70.3098 18.7871 70.9741 18.1123C71.3807 17.6979 71.6276 17.124 71.7067 16.3822H68.3908V15.0849H72.9897L73.0034 15.1581C73.0503 15.4072 73.0706 15.6468 73.0706 15.877C73.0706 17.1941 72.6863 18.2522 71.9087 19.0441C71.0295 19.9811 69.8823 20.4479 68.4815 20.4479C67.1367 20.4479 65.9894 19.9737 65.0492 19.0265C64.1069 18.0773 63.636 16.9009 63.636 15.5019C63.636 14.1013 64.1069 12.9248 65.0492 11.9772ZM74.5816 10.7605H80.1053V12.0826H75.9364V14.851H79.6963V16.1482H75.9364V18.9166H80.1053V20.2402H74.5816V10.7605ZM74.76 10.9402V20.0605H79.9269V19.0963H75.7581V15.9685H79.518V15.0307H75.7581V11.9029H79.9269V10.9402H74.76ZM81.1536 10.7605H87.6233V12.0826H85.0659V20.2402H83.711V12.0826H81.1536V10.7605ZM81.3319 10.9402V11.9029H83.8894V20.0605H84.8875V11.9029H87.445V10.9402H81.3319ZM91.9968 10.7605H93.3516V20.2402H91.9968V10.7605ZM92.1751 10.9402V20.0605H93.1732V10.9402H92.1751ZM94.6567 10.7605H101.126V12.0826H98.569V20.2402H97.2141V12.0826H94.6567V10.7605ZM94.835 10.9402V11.9029H97.3925V20.0605H98.3906V11.9029H100.948V10.9402H94.835ZM115.858 10.7605H117.428L121.782 17.8393L121.739 16.295L121.739 16.2924V10.7605H123.093V20.2402H121.726L117.166 12.8101L117.209 14.3565L117.209 20.2402H115.858V10.7605ZM116.036 10.9402V20.0605H117.031V14.3565L116.978 12.4748H117.17L121.826 20.0605H122.915V10.9402H121.917V16.2924L121.97 18.1741H121.778L117.328 10.9402H116.036ZM107.039 12.7684C107.733 12.055 108.585 11.6967 109.59 11.6967C110.594 11.6967 111.448 12.0533 112.141 12.7684C112.836 13.4845 113.184 14.3977 113.184 15.5004C113.184 16.6031 112.836 17.5162 112.141 18.2323C111.448 18.9458 110.594 19.304 109.59 19.304C108.585 19.304 107.733 18.9474 107.039 18.2323C106.345 17.5162 105.997 16.6031 105.997 15.5004C105.997 14.3977 106.345 13.4844 107.039 12.7684ZM107.166 12.8941C106.508 13.573 106.175 14.4393 106.175 15.5004C106.175 16.5615 106.508 17.4278 107.166 18.1067C107.827 18.7866 108.632 19.1243 109.59 19.1243C110.547 19.1243 111.354 18.785 112.013 18.1066C112.673 17.4277 113.006 16.5615 113.006 15.5004C113.006 14.4393 112.673 13.573 112.013 12.8941C111.354 12.2143 110.547 11.8764 109.59 11.8764C108.632 11.8764 107.827 12.2156 107.166 12.8941Z" fill="white"/>
<g filter="url(#filter0_ii)">
<path d="M16.5495 11.6837C16.1055 12.1611 15.843 12.902 15.843 13.8615V48.1412C15.843 49.1022 16.1055 49.8416 16.5495 50.319L16.6624 50.4306L35.5671 31.2276V31.0014V30.7751L16.6624 11.5706L16.5495 11.6837Z" fill="url(#paint0_linear)"/>
<path d="M41.8677 37.6304L35.5671 31.2274V31.0011V30.7748L41.8692 24.3733L42.0111 24.4554L49.4775 28.7644C51.6092 29.9951 51.6092 32.0086 49.4775 33.2408L42.0111 37.5498L41.8677 37.6304Z" fill="url(#paint1_linear)"/>
<g filter="url(#filter1_i)">
<path d="M42.0112 37.5487L35.5656 31.0015L16.5496 50.3191C17.2515 51.0755 18.4127 51.1685 19.7204 50.4152L42.0112 37.5487Z" fill="url(#paint2_linear)"/>
</g>
<path d="M42.0112 24.454L19.7204 11.589C18.4127 10.8342 17.2515 10.9287 16.5496 11.6851L35.5672 31.0028L42.0112 24.454Z" fill="url(#paint3_linear)"/>
</g>
<defs>
<filter id="filter0_ii" x="15.843" y="11.0681" width="35.2333" height="39.8674" filterUnits="userSpaceOnUse" color-interpolation-filters="sRGB">
<feFlood flood-opacity="0" result="BackgroundImageFix"/>
<feBlend mode="normal" in="SourceGraphic" in2="BackgroundImageFix" result="shape"/>
<feColorMatrix in="SourceAlpha" type="matrix" values="0 0 0 0 0 0 0 0 0 0 0 0 0 0 0 0 0 0 127 0" result="hardAlpha"/>
<feOffset dy="-0.15"/>
<feComposite in2="hardAlpha" operator="arithmetic" k2="-1" k3="1"/>
<feColorMatrix type="matrix" values="0 0 0 0 0 0 0 0 0 0 0 0 0 0 0 0 0 0 0.12 0"/>
<feBlend mode="normal" in2="shape" result="effect1_innerShadow"/>
<feColorMatrix in="SourceAlpha" type="matrix" values="0 0 0 0 0 0 0 0 0 0 0 0 0 0 0 0 0 0 127 0" result="hardAlpha"/>
<feOffset dy="0.15"/>
<feComposite in2="hardAlpha" operator="arithmetic" k2="-1" k3="1"/>
<feColorMatrix type="matrix" values="0 0 0 0 1 0 0 0 0 1 0 0 0 0 1 0 0 0 0.25 0"/>
<feBlend mode="normal" in2="effect1_innerShadow" result="effect2_innerShadow"/>
</filter>
<filter id="filter1_i" x="16.5496" y="31.0015" width="25.4616" height="19.9341" filterUnits="userSpaceOnUse" color-interpolation-filters="sRGB">
<feFlood flood-opacity="0" result="BackgroundImageFix"/>
<feBlend mode="normal" in="SourceGraphic" in2="BackgroundImageFix" result="shape"/>
<feColorMatrix in="SourceAlpha" type="matrix" values="0 0 0 0 0 0 0 0 0 0 0 0 0 0 0 0 0 0 127 0" result="hardAlpha"/>
<feOffset dy="-0.15"/>
<feComposite in2="hardAlpha" operator="arithmetic" k2="-1" k3="1"/>
<feColorMatrix type="matrix" values="0 0 0 0 0 0 0 0 0 0 0 0 0 0 0 0 0 0 0.08 0"/>
<feBlend mode="normal" in2="shape" result="effect1_innerShadow"/>
</filter>
<linearGradient id="paint0_linear" x1="33.8914" y1="13.4988" x2="7.88246" y2="39.1037" gradientUnits="userSpaceOnUse">
<stop stop-color="#00A0FF"/>
<stop offset="0.0066" stop-color="#00A1FF"/>
<stop offset="0.2601" stop-color="#00BEFF"/>
<stop offset="0.5122" stop-color="#00D2FF"/>
<stop offset="0.7604" stop-color="#00DFFF"/>
<stop offset="1" stop-color="#00E3FF"/>
</linearGradient>
<linearGradient id="paint1_linear" x1="52.2524" y1="31.0011" x2="15.3312" y2="31.0011" gradientUnits="userSpaceOnUse">
<stop stop-color="#FFE000"/>
<stop offset="0.4087" stop-color="#FFBD00"/>
<stop offset="0.7754" stop-color="#FFA500"/>
<stop offset="1" stop-color="#FF9C00"/>
</linearGradient>
<linearGradient id="paint2_linear" x1="38.5108" y1="34.557" x2="3.23948" y2="69.2805" gradientUnits="userSpaceOnUse">
<stop stop-color="#FF3A44"/>
<stop offset="1" stop-color="#C31162"/>
</linearGradient>
<linearGradient id="paint3_linear" x1="11.7603" y1="0.273724" x2="27.5099" y2="15.7787" gradientUnits="userSpaceOnUse">
<stop stop-color="#32A071"/>
<stop offset="0.0685" stop-color="#2DA771"/>
<stop offset="0.4762" stop-color="#15CF74"/>
<stop offset="0.8009" stop-color="#06E775"/>
<stop offset="1" stop-color="#00F076"/>
</linearGradient>
</defs>
</svg>
