<svg width="128" height="19" viewBox="0 0 128 19" fill="none" xmlns="http://www.w3.org/2000/svg">
<path d="M1 18.3754V1H3.76963V18.3754H1ZM12.3352 18.3754V1H14.0697L26.4351 12.6192C26.7177 12.883 27.0166 13.2032 27.3367 13.573C27.6517 13.9493 27.9772 14.3588 28.3135 14.8078C28.2282 14.2517 28.1695 13.6684 28.1267 13.0571C28.0838 12.4515 28.0626 11.6096 28.0626 10.5324V1H30.5978V18.3754H29.0502L16.3539 6.29062C16.2953 6.2399 16.1991 6.15019 16.0763 6.03209C15.4469 5.43781 14.9825 4.87116 14.6836 4.33782C14.7473 4.8651 14.7902 5.42607 14.8222 6.02073C14.8543 6.62107 14.8705 7.3221 14.8705 8.13592V18.3746H12.3352V18.3754ZM54.6409 3.36766H41.699V15.9577H54.6409V10.8685H47.9483V8.64693H57.3946V14.2691C57.3946 15.8563 57.1224 16.9396 56.5834 17.5116C56.0394 18.0888 55.0146 18.375 53.5149 18.375H42.8253C41.3098 18.375 40.2904 18.0835 39.7514 17.5055C39.2124 16.9222 38.9456 15.8449 38.9456 14.2688V5.11228C38.9456 3.53611 39.2124 2.45315 39.7514 1.86985C40.2908 1.29184 41.3098 1 42.8253 1H53.5149C54.9984 1 56.0127 1.28049 56.5679 1.84714C57.1174 2.41378 57.395 3.43504 57.395 4.91582V5.34204L54.6412 5.92005V3.36766H54.6409ZM65.3197 18.3754V1H68.0893V15.9577H80.5991V18.3754H65.3197ZM88.199 15.9577H101.877V3.36766H88.199V15.9577ZM85.4456 5.11228C85.4456 3.53005 85.7121 2.45315 86.2511 1.86985C86.7901 1.29184 87.8148 1 89.3253 1H100.751C102.241 1 103.254 1.28616 103.793 1.86417C104.333 2.43612 104.599 3.51907 104.599 5.11228V14.2631C104.599 15.8673 104.333 16.9506 103.793 17.5225C103.254 18.0888 102.24 18.375 100.751 18.375H89.3253C87.8148 18.375 86.7901 18.0835 86.2511 17.5055C85.7121 16.9222 85.4456 15.8449 85.4456 14.2631V5.11228ZM119.388 3.36766V18.3754H116.634V3.36766H109.082V1H126.971V3.36766H119.388Z" fill="#1D1D1B" stroke="#1D1D1B" stroke-width="0.216" stroke-miterlimit="22.9256"/>
</svg>
