<svg width="38" height="38" viewBox="0 0 38 38" fill="none" xmlns="http://www.w3.org/2000/svg">
<path fill-rule="evenodd" clip-rule="evenodd" d="M19.3047 0.412109C14.2804 0.412109 13.6498 0.434078 11.6765 0.523881C9.70697 0.61407 8.36262 0.925875 7.18632 1.38337C5.96954 1.8559 4.93739 2.48799 3.90908 3.51667C2.88001 4.54498 2.24792 5.57713 1.77385 6.79352C1.3152 7.97021 1.00301 9.31494 0.914365 11.2837C0.826104 13.257 0.802979 13.888 0.802979 18.9123C0.802979 23.9366 0.825333 24.5653 0.914751 26.5386C1.00532 28.5081 1.31713 29.8525 1.77424 31.0288C2.24715 32.2455 2.87924 33.2777 3.90793 34.306C4.93584 35.3351 5.968 35.9687 7.184 36.4412C8.36108 36.8987 9.70581 37.2105 11.6749 37.3007C13.6483 37.3905 14.2784 37.4125 19.3024 37.4125C24.3271 37.4125 24.9558 37.3905 26.9291 37.3007C28.8986 37.2105 30.2445 36.8987 31.4216 36.4412C32.638 35.9687 33.6686 35.3351 34.6965 34.306C35.7256 33.2777 36.3577 32.2455 36.8317 31.0292C37.2865 29.8525 37.5987 28.5077 37.6912 26.539C37.7799 24.5657 37.803 23.9366 37.803 18.9123C37.803 13.888 37.7799 13.2574 37.6912 11.2841C37.5987 9.31456 37.2865 7.97021 36.8317 6.7939C36.3577 5.57713 35.7256 4.54498 34.6965 3.51667C33.6674 2.4876 32.6383 1.85551 31.4204 1.38337C30.241 0.925875 28.8959 0.61407 26.9264 0.523881C24.9531 0.434078 24.3248 0.412109 19.2989 0.412109H19.3047ZM17.6462 3.74584C18.1388 3.74507 18.6884 3.74584 19.3058 3.74584C24.2454 3.74584 24.8308 3.76357 26.7814 3.85221C28.5852 3.93469 29.5642 4.23609 30.2163 4.48931C31.0797 4.82463 31.6952 5.22547 32.3423 5.87297C32.9898 6.52048 33.3906 7.13715 33.7267 8.00049C33.9799 8.65186 34.2817 9.63082 34.3638 11.4346C34.4525 13.3848 34.4717 13.9707 34.4717 18.9079C34.4717 23.8451 34.4525 24.431 34.3638 26.3812C34.2813 28.185 33.9799 29.1639 33.7267 29.8153C33.3914 30.6786 32.9898 31.2934 32.3423 31.9405C31.6948 32.588 31.08 32.9889 30.2163 33.3242C29.565 33.5785 28.5852 33.8792 26.7814 33.9617C24.8312 34.0503 24.2454 34.0696 19.3058 34.0696C14.3659 34.0696 13.7804 34.0503 11.8302 33.9617C10.0264 33.8784 9.04747 33.577 8.39496 33.3238C7.53161 32.9885 6.91494 32.5876 6.26743 31.9401C5.61993 31.2926 5.21909 30.6775 4.883 29.8138C4.62978 29.1624 4.328 28.1834 4.2459 26.3797C4.15726 24.4294 4.13953 23.8436 4.13953 18.9033C4.13953 13.963 4.15726 13.3802 4.2459 11.43C4.32838 9.6262 4.62978 8.64723 4.883 7.9951C5.21832 7.13176 5.61993 6.51508 6.26743 5.86758C6.91494 5.22007 7.53161 4.81923 8.39496 4.48315C9.04709 4.22877 10.0264 3.92814 11.8302 3.84527C13.5369 3.76819 14.1982 3.74507 17.6462 3.74121V3.74584ZM29.1811 6.81669C27.9554 6.81669 26.9611 7.80992 26.9611 9.03594C26.9611 10.2616 27.9554 11.256 29.1811 11.256C30.4067 11.256 31.4011 10.2616 31.4011 9.03594C31.4011 7.8103 30.4067 6.81592 29.1811 6.81592V6.81669ZM19.3048 9.41309C14.0581 9.41309 9.8042 13.667 9.8042 18.9137C9.8042 24.1604 14.0581 28.4124 19.3048 28.4124C24.5515 28.4124 28.8039 24.1604 28.8039 18.9137C28.8039 13.667 24.5512 9.41309 19.3044 9.41309H19.3048ZM19.3055 12.748C22.7111 12.748 25.4723 15.5088 25.4723 18.9148C25.4723 22.3204 22.7111 25.0815 19.3055 25.0815C15.8996 25.0815 13.1388 22.3204 13.1388 18.9148C13.1388 15.5088 15.8996 12.748 19.3055 12.748Z" fill="#072652"/>
</svg>
