<svg width="20" height="20" viewBox="0 0 20 20" fill="none" xmlns="http://www.w3.org/2000/svg">
<path fill-rule="evenodd" clip-rule="evenodd" d="M10.0832 0.250977C7.49501 0.250977 7.1702 0.262293 6.15368 0.308553C5.13914 0.355011 4.44664 0.515629 3.8407 0.751295C3.21391 0.994704 2.68222 1.32031 2.15252 1.85021C1.62242 2.37991 1.29681 2.9116 1.05261 3.53819C0.816349 4.14433 0.655532 4.83703 0.609868 5.85117C0.564403 6.86769 0.55249 7.1927 0.55249 9.78086C0.55249 12.369 0.564006 12.6928 0.610067 13.7093C0.656723 14.7239 0.817341 15.4164 1.05281 16.0223C1.29642 16.6491 1.62202 17.1808 2.15192 17.7105C2.68143 18.2406 3.21311 18.567 3.8395 18.8104C4.44584 19.0461 5.13855 19.2067 6.15288 19.2532C7.1694 19.2994 7.49402 19.3107 10.082 19.3107C12.6703 19.3107 12.9941 19.2994 14.0107 19.2532C15.0252 19.2067 15.7185 19.0461 16.3248 18.8104C16.9514 18.567 17.4823 18.2406 18.0118 17.7105C18.5419 17.1808 18.8675 16.6491 19.1117 16.0225C19.346 15.4164 19.5068 14.7237 19.5545 13.7095C19.6001 12.693 19.6121 12.369 19.6121 9.78086C19.6121 7.1927 19.6001 6.86789 19.5545 5.85137C19.5068 4.83683 19.346 4.14433 19.1117 3.53839C18.8675 2.9116 18.5419 2.37991 18.0118 1.85021C17.4817 1.32011 16.9516 0.994506 16.3242 0.751295C15.7167 0.515629 15.0238 0.355011 14.0093 0.308553C12.9928 0.262293 12.6691 0.250977 10.0802 0.250977H10.0832ZM9.22872 1.9682C9.48246 1.96781 9.76557 1.9682 10.0836 1.9682C12.6281 1.9682 12.9297 1.97734 13.9345 2.023C14.8637 2.06549 15.368 2.22074 15.7039 2.35118C16.1486 2.52391 16.4657 2.73039 16.799 3.06394C17.1326 3.39749 17.339 3.71515 17.5122 4.15988C17.6426 4.49541 17.7981 4.9997 17.8404 5.92886C17.886 6.93347 17.896 7.23525 17.896 9.77853C17.896 12.3218 17.886 12.6236 17.8404 13.6282C17.7979 14.5574 17.6426 15.0617 17.5122 15.3972C17.3394 15.8419 17.1326 16.1586 16.799 16.4919C16.4655 16.8255 16.1488 17.032 15.7039 17.2047C15.3683 17.3357 14.8637 17.4906 13.9345 17.5331C12.9299 17.5787 12.6281 17.5887 10.0836 17.5887C7.53896 17.5887 7.23738 17.5787 6.23277 17.5331C5.30361 17.4902 4.79932 17.3349 4.46319 17.2045C4.01846 17.0318 3.7008 16.8253 3.36725 16.4917C3.03371 16.1582 2.82723 15.8413 2.6541 15.3964C2.52366 15.0609 2.3682 14.5566 2.32591 13.6274C2.28025 12.6228 2.27112 12.321 2.27112 9.77615C2.27112 7.23128 2.28025 6.93109 2.32591 5.92648C2.3684 4.99731 2.52366 4.49302 2.6541 4.1571C2.82683 3.71237 3.03371 3.39471 3.36725 3.06116C3.7008 2.72762 4.01846 2.52113 4.46319 2.34801C4.79912 2.21697 5.30361 2.06211 6.23277 2.01943C7.1119 1.97972 7.45259 1.96781 9.22872 1.96582V1.9682ZM15.1706 3.55069C14.5392 3.55069 14.027 4.06233 14.027 4.69388C14.027 5.32523 14.5392 5.83746 15.1706 5.83746C15.8019 5.83746 16.3141 5.32523 16.3141 4.69388C16.3141 4.06252 15.8019 3.55029 15.1706 3.55029V3.55069ZM10.0832 4.88818C7.38049 4.88818 5.18921 7.07946 5.18921 9.78217C5.18921 12.4849 7.38049 14.6752 10.0832 14.6752C12.7859 14.6752 14.9764 12.4849 14.9764 9.78217C14.9764 7.07946 12.7857 4.88818 10.083 4.88818H10.0832ZM10.0832 6.60498C11.8375 6.60498 13.2599 8.02712 13.2599 9.78161C13.2599 11.5359 11.8375 12.9582 10.0832 12.9582C8.32875 12.9582 6.90662 11.5359 6.90662 9.78161C6.90662 8.02712 8.32875 6.60498 10.0832 6.60498Z" fill="#072652"/>
</svg>
