<svg width="309" height="96" viewBox="0 0 309 96" fill="none" xmlns="http://www.w3.org/2000/svg">
<path d="M6.31462 50.0432C6.37825 46.7983 6.44187 43.5534 6.47368 40.2131V22.3345C10.4503 19.3123 15.5403 17.4671 19.7395 17.4671C27.0882 17.4671 32.9099 24.1478 32.9099 33.5007C32.9099 42.8536 27.2791 49.5342 19.7395 49.5342C13.727 49.5342 8.85963 43.9034 8.85963 36.9364V31.8146C8.85963 29.2696 9.17775 24.7522 9.17775 24.7522L8.38244 24.9113V36.9364C8.38244 44.2851 13.4406 50.2023 19.7395 50.2023C27.8199 50.2023 33.6734 43.1399 33.6734 33.5007C33.6734 23.8615 27.629 16.7991 19.7395 16.7991C15.4448 16.7991 10.4184 18.6442 6.47368 21.5391V21.5073V1.59265L2.33805 1.68809H1.22461V2.16528H2.33805C4.78762 2.16528 5.67837 2.57884 5.67837 3.75591V50.0432H6.31462Z" fill="#F55449"/>
<path d="M66.498 32.5463H42.0342C42.2887 24.1796 47.5378 17.4353 53.9639 17.4353C61.5353 17.4353 66.5935 22.3344 67.8342 29.4287C67.8978 29.715 67.9296 30.0331 67.9296 30.383C67.9296 31.4328 67.6115 32.5463 66.498 32.5463ZM41.557 33.1825H68.5977C68.7249 33.1825 68.9158 33.0871 68.9158 32.8644C68.9158 23.6388 63.0623 16.7991 53.9639 16.7991C44.9927 16.7991 38.3757 23.7024 38.3757 33.5007C38.3757 43.0763 44.7064 50.2023 53.6458 50.2023C61.0263 50.2023 65.7027 46.9574 68.1841 42.5354L67.6115 42.2173C65.2255 46.4484 60.8354 49.566 53.6458 49.566C45.12 49.566 39.171 42.7899 39.171 33.5007C39.171 25.8338 43.2431 20.0758 49.3193 18.1352C44.7701 20.5529 41.557 26.3746 41.557 33.1825Z" fill="#F55449"/>
<path d="M106.736 49.0888L103.332 49.407C102.441 49.3751 101.837 48.2617 101.391 45.5894L100.882 42.5672V27.1063C100.882 20.9347 96.3015 16.7991 89.4618 16.7991C82.4312 16.7991 76.3868 19.9167 76.3868 23.766C76.3868 24.1796 76.6413 24.4341 77.0548 24.4341C77.4684 24.4341 77.7229 24.1796 77.7229 23.766C77.7229 20.2666 83.1947 17.4353 89.5572 17.4353C95.8561 17.4353 100.087 21.3164 100.087 27.1063V42.5991C100.087 42.8536 100.437 44.7305 100.596 45.7167C101.01 48.2935 101.741 50.2023 103.3 50.2023H103.332L106.8 49.7251L106.736 49.0888ZM97.3831 29.7786V35.8866C97.3831 42.5672 91.6568 49.5342 84.1172 49.5342C78.0729 49.5342 73.81 46.3848 73.81 42.2809C73.81 37.4454 78.8682 34.5187 85.008 33.8824C88.3483 33.5325 95.029 33.1507 97.3831 29.7786ZM97.3831 24.4977V26.8836C97.3831 27.3608 97.2558 28.0607 97.1286 28.4425C95.8561 32.1327 88.7937 32.7372 84.9444 33.1189C78.6773 33.7552 73.0465 36.8092 73.0465 42.2809C73.0465 47.021 77.882 50.2341 84.1172 50.2341C92.1658 50.2341 97.8603 42.9172 97.8603 35.8866V25.0385L97.3831 24.4977Z" fill="#F55449"/>
<path d="M107.737 16.9581V17.4353H108.532C110.982 17.4353 111.873 17.8489 111.873 19.0259V41.2947C111.873 47.0846 115.308 50.2023 121.735 50.2023C129.751 50.2023 135.891 42.3446 135.891 32.928V17.7534H137.8V42.1537L138.086 45.3668C138.277 47.7527 139.327 50.2023 140.981 50.2023H141.045L144.131 49.6933L144.003 49.057L140.949 49.566C139.995 49.5342 139.072 47.6891 138.882 45.3031L138.595 42.1219V16.9581H128.733V17.4353H130.642C135 17.4353 135.414 18.2624 135.414 19.185V32.928C135.414 42.1537 129.211 49.4706 121.735 49.4706C115.817 49.4706 112.668 46.5756 112.668 41.1993V16.8627L108.532 16.9581H107.737Z" fill="#F55449"/>
<path d="M169.545 17.5944H154.625V35.7275C154.625 42.2809 156.216 47.1483 158.856 49.1206C155.071 47.7527 152.685 43.4898 152.685 37.6363V8.05061H152.049V13.6814C152.049 17.0536 151.635 17.5944 148.867 17.5944H146.004V18.2306H150.744C151.603 18.2306 151.889 18.6442 151.889 19.3441V37.6363C151.889 45.1759 155.771 50.2023 161.624 50.2023C164.646 50.2023 167.987 48.8979 169.8 46.003L169.291 45.6849C167.605 48.3571 164.487 49.566 161.624 49.566C157.711 49.566 155.103 44.0306 155.103 35.7275V19.3441C155.103 18.6442 155.389 18.2306 156.248 18.2306H169.545V17.5944Z" fill="#F55449"/>
<path d="M172.729 50.0432H187.999V49.566H186.886C182.527 49.566 182.114 48.7389 182.114 47.8163V16.8627C180.491 16.8945 176.865 16.9581 176.865 16.9581H174.638V17.4353H175.592C178.042 17.4353 178.933 17.8489 178.933 19.0259V37.3182C178.933 39.5451 178.774 44.6351 178.774 44.6351H179.41V17.9125H181.319V47.8163C181.319 48.7389 180.905 49.566 176.547 49.566H172.729V50.0432ZM179.124 6.14185C179.124 6.84173 179.728 7.41436 180.396 7.41436C181.096 7.41436 181.669 6.80991 181.669 6.14185C181.669 5.44197 181.064 4.86935 180.396 4.86935C179.696 4.86935 179.124 5.47379 179.124 6.14185Z" fill="#F55449"/>
<path d="M207.88 50.075L221.145 17.7534H223.786L213.733 42.1537C212.715 44.5078 210.138 50.0432 210.138 50.0432H210.997L223.468 19.7894C224.168 18.1034 225.345 17.4353 227.572 17.4353H227.922V16.9581H212.715V17.4353H215.26C218.664 17.4353 220.032 17.5626 220.032 18.5806C220.032 18.8669 219.905 19.2168 219.746 19.5986L208.134 47.8163C207.848 48.5162 207.752 48.7707 207.53 48.7707C207.307 48.7707 207.212 48.5162 206.925 47.8481L195.695 21.5391C194.168 18.0079 193.628 16.7991 190.828 16.7991C190.224 16.7991 188.665 16.8627 188.665 17.6898C188.665 18.1034 188.887 18.2943 189.269 18.2943C189.333 18.2943 189.428 18.2624 189.492 18.2306C190.065 18.0398 190.542 17.9761 190.987 17.9761C193.055 17.9761 193.5 18.4533 194.932 21.73L206.448 48.8343C206.639 49.3115 207.243 50.1068 207.88 50.075Z" fill="#F55449"/>
<path d="M228.96 50.0432H244.23V49.566H243.117C238.759 49.566 238.345 48.7389 238.345 47.8163V16.8627C236.723 16.8945 233.096 16.9581 233.096 16.9581H230.869V17.4353H231.824C234.273 17.4353 235.164 17.8489 235.164 19.0259V37.3182C235.164 39.5451 235.005 44.6351 235.005 44.6351H235.641V17.9125H237.55V47.8163C237.55 48.7389 237.136 49.566 232.778 49.566H228.96V50.0432ZM235.355 6.14185C235.355 6.84173 235.959 7.41436 236.627 7.41436C237.327 7.41436 237.9 6.80991 237.9 6.14185C237.9 5.44197 237.295 4.86935 236.627 4.86935C235.927 4.86935 235.355 5.47379 235.355 6.14185Z" fill="#F55449"/>
<path d="M271.994 17.5944H254.847V35.7275C254.847 42.2809 256.438 47.1483 259.078 49.1206C255.293 47.7527 252.907 43.4898 252.907 37.6363V8.05061H252.271V13.6814C252.271 17.0536 251.857 17.5944 249.089 17.5944H246.226V18.2306H250.966C251.825 18.2306 252.111 18.6442 252.111 19.3441V37.6363C252.111 45.1759 255.993 50.2023 261.846 50.2023C264.868 50.2023 268.209 48.8979 270.022 46.003L269.513 45.6849C267.827 48.3571 264.709 49.566 261.846 49.566C257.933 49.566 255.325 44.0306 255.325 35.7275V19.3441C255.325 18.6442 255.611 18.2306 256.47 18.2306H271.994V17.5944Z" fill="#F55449"/>
<path d="M307.739 49.0888L304.335 49.407C303.445 49.3751 302.84 48.2617 302.395 45.5894L301.886 42.5672V27.1063C301.886 20.9347 297.305 16.7991 290.465 16.7991C283.434 16.7991 277.39 19.9167 277.39 23.766C277.39 24.1796 277.645 24.4341 278.058 24.4341C278.472 24.4341 278.726 24.1796 278.726 23.766C278.726 20.2666 284.198 17.4353 290.56 17.4353C296.859 17.4353 301.09 21.3164 301.09 27.1063V42.5991C301.09 42.8536 301.44 44.7305 301.599 45.7167C302.013 48.2935 302.745 50.2023 304.304 50.2023H304.335L307.803 49.7251L307.739 49.0888ZM298.386 29.7786V35.8866C298.386 42.5672 292.66 49.5342 285.121 49.5342C279.076 49.5342 274.813 46.3848 274.813 42.2809C274.813 37.4454 279.871 34.5187 286.011 33.8824C289.352 33.5325 296.032 33.1507 298.386 29.7786ZM298.386 24.4977V26.8836C298.386 27.3608 298.259 28.0607 298.132 28.4425C296.859 32.1327 289.797 32.7372 285.948 33.1189C279.681 33.7552 274.05 36.8092 274.05 42.2809C274.05 47.021 278.885 50.2341 285.121 50.2341C293.169 50.2341 298.864 42.9172 298.864 35.8866V25.0385L298.386 24.4977Z" fill="#F55449"/>
<path fill-rule="evenodd" clip-rule="evenodd" d="M6.96517 50.7056H5.01626V3.75555C5.01626 3.54366 4.97633 3.4237 4.93228 3.3498C4.8908 3.28022 4.81452 3.1987 4.64373 3.1178C4.26159 2.93679 3.56106 2.82768 2.3387 2.82768H0.5625V1.02497H2.33108L7.1371 0.914062V20.271C10.9923 17.7317 15.6588 16.1359 19.7402 16.1359C28.0988 16.1359 34.3369 23.6075 34.3369 33.5003C34.3369 43.3867 28.2951 50.8647 19.7402 50.8647C12.9821 50.8647 7.72033 44.5502 7.72033 36.9361V24.3676L9.90058 23.9315L9.83953 24.7984L9.17841 24.7519L8.38309 24.9109V36.9361C8.38309 43.5765 12.5132 49.048 17.9569 50.041C18.5375 50.1469 19.1331 50.2019 19.7402 50.2019C27.8206 50.2019 33.6741 43.1395 33.6741 33.5003C33.6741 23.8611 27.6297 16.7987 19.7402 16.7987C18.0143 16.7987 16.1703 17.0967 14.3257 17.641C11.8337 18.3765 9.34071 19.5616 7.1371 21.0692C6.92797 21.2122 6.72145 21.3582 6.51778 21.507C6.50329 21.5176 6.4888 21.5282 6.47434 21.5388V1.5923L2.3387 1.68773H1.22526V2.16492H2.3387C2.34238 2.16492 2.34605 2.16492 2.34971 2.16492C3.1369 2.16532 3.7626 2.20865 4.2491 2.30659C5.27133 2.51236 5.67902 2.95923 5.67902 3.75555V50.0428H6.31527C6.32414 49.5908 6.33301 49.1384 6.34178 48.6862C6.39601 45.8918 6.44696 43.0876 6.47434 40.2128V22.3341C6.59909 22.2393 6.72494 22.1456 6.85182 22.0532C9.18418 20.3533 11.8659 19.0518 14.5127 18.2769C16.3116 17.7502 18.0943 17.4668 19.7402 17.4668C27.0889 17.4668 32.9106 24.1474 32.9106 33.5003C32.9106 42.8532 27.2798 49.5338 19.7402 49.5338C19.1811 49.5338 18.6319 49.4852 18.0956 49.3912C12.8645 48.4751 8.86028 43.2552 8.86028 36.9361V31.8142C8.86028 30.3998 8.95855 28.376 9.04585 26.8572C9.0781 26.2961 9.10886 25.804 9.13261 25.4369C9.16025 25.0097 9.17841 24.7519 9.17841 24.7519L9.83953 24.7984L9.83602 24.8489L9.82598 24.9957C9.81733 25.1235 9.80495 25.3092 9.79009 25.54C9.76037 26.0018 9.72073 26.6438 9.68111 27.365C9.60162 28.8117 9.52304 30.5615 9.52304 31.8142V36.9361C9.52304 43.6313 14.1813 48.8711 19.7402 48.8711C26.802 48.8711 32.2478 42.61 32.2478 33.5003C32.2478 24.3974 26.6167 18.1295 19.7402 18.1295C15.7988 18.1295 10.9772 19.8334 7.1371 22.6658V40.2191C7.10522 43.5627 7.04155 46.8104 6.97794 50.0542L6.96517 50.7056ZM46.6821 20.0535C43.7053 22.8848 41.7256 27.3943 41.5678 32.5194C41.5677 32.5235 41.5676 32.5276 41.5675 32.5317C41.5609 32.7475 41.5576 32.9643 41.5576 33.1822H68.5983C68.7256 33.1822 68.9165 33.0867 68.9165 32.8641C68.9165 26.9937 66.5464 22.0894 62.4785 19.2986C60.1534 17.7034 57.2736 16.7987 53.9645 16.7987C53.5946 16.7987 53.2287 16.8104 52.8671 16.8336C51.559 16.9175 50.3073 17.1513 49.126 17.5217C49.1254 17.5219 49.1248 17.5221 49.1243 17.5223C49.0872 17.5339 49.0501 17.5457 49.0131 17.5576C48.9968 17.5628 48.9805 17.5681 48.9642 17.5734C48.0017 17.8871 47.0869 18.292 46.2276 18.781C41.4414 21.504 38.3764 26.8317 38.3764 33.5003C38.3764 39.645 40.9833 44.781 45.2135 47.6726C47.5754 49.2871 50.4435 50.2019 53.6464 50.2019C60.7054 50.2019 65.2908 47.2336 67.8479 43.1061C67.9637 42.9193 68.0753 42.7301 68.1827 42.5387C68.1834 42.5376 68.184 42.5364 68.1847 42.5353C68.1846 42.5353 68.1847 42.5352 68.1847 42.5353L67.6121 42.217C67.6122 42.2169 67.6121 42.217 67.6121 42.217C65.2262 46.4479 60.836 49.5657 53.6464 49.5657C50.5844 49.5657 47.8547 48.6916 45.6137 47.141C41.6149 44.3742 39.1717 39.4533 39.1717 33.5003C39.1717 27.1983 41.923 22.186 46.2771 19.5234C46.344 19.4825 46.4112 19.4421 46.4788 19.4024C47.0825 19.0473 47.7159 18.7367 48.3761 18.4732C48.685 18.35 48.9997 18.2371 49.3199 18.1348C49.2867 18.1525 49.2537 18.1703 49.2206 18.1883C48.3156 18.6812 47.4644 19.3094 46.6821 20.0535ZM49.4674 18.5966C49.2002 18.7407 48.9379 18.8972 48.6808 19.0655C45.0185 21.4632 42.4163 26.2686 42.0656 31.8832C42.0524 32.0941 42.0424 32.3062 42.0357 32.5194C42.0354 32.5283 42.0351 32.5371 42.0348 32.5459H66.4987C66.5995 32.5459 66.6938 32.5368 66.7819 32.5194C67.6671 32.3448 67.9303 31.3374 67.9303 30.3827C67.9303 30.0327 67.8985 29.7146 67.8348 29.4283C67.1172 25.3252 65.1227 21.9564 62.1034 19.8451C59.9024 18.3059 57.1569 17.435 53.9645 17.435C53.6148 17.435 53.2685 17.4549 52.9263 17.4941C51.7465 17.629 50.6155 17.9916 49.5585 18.5481C49.5536 18.5507 49.5486 18.5533 49.5437 18.5559C49.5182 18.5694 49.4928 18.583 49.4674 18.5966ZM42.7297 31.8832C42.9736 28.1034 44.2703 24.7256 46.2064 22.2625C48.2578 19.6526 50.9985 18.0977 53.9645 18.0977C57.6005 18.0977 60.5972 19.271 62.8324 21.2658C65.0716 23.2641 66.5835 26.1204 67.182 29.5425L67.1846 29.5573L67.1879 29.5721C67.2392 29.8032 67.2675 30.0721 67.2675 30.3827C67.2675 30.8599 67.1922 31.2747 67.0474 31.5458C66.9265 31.7721 66.776 31.8832 66.4987 31.8832H42.7297ZM44.1129 22.0844C41.4431 24.7963 39.8345 28.7488 39.8345 33.5003C39.8345 42.4952 45.5545 48.9029 53.6464 48.9029C60.6077 48.9029 64.7716 45.9049 67.0348 41.8914L67.3583 41.3178L69.0885 42.279L68.7627 42.8594C66.1575 47.5021 61.2529 50.8647 53.6464 50.8647C44.2814 50.8647 37.7136 43.3792 37.7136 33.5003C37.7136 23.3748 44.5898 16.1359 53.9645 16.1359C58.6899 16.1359 62.6097 17.917 65.343 20.9261C68.0707 23.9291 69.5792 28.1122 69.5792 32.8641C69.5792 33.1889 69.4304 33.4525 69.223 33.621C69.0363 33.7728 68.8076 33.8449 68.5983 33.8449H40.8949V33.1822C40.8949 28.9591 42.0985 25.0679 44.1129 22.0844ZM107.331 48.3673L107.523 50.2942L103.378 50.8647H103.301C102.182 50.8647 101.427 50.1538 100.936 49.2391C100.452 48.3391 100.152 47.1278 99.9425 45.8219C99.888 45.4841 99.8112 45.0422 99.7331 44.5932C99.6982 44.3925 99.663 44.1904 99.6295 43.9955C99.5757 43.6829 99.5262 43.3891 99.4901 43.1563C99.4585 42.9527 99.425 42.7262 99.425 42.5987V27.106C99.425 24.3807 98.4338 22.1456 96.7367 20.5875C95.0346 19.0247 92.5718 18.0977 89.5578 18.0977C86.4659 18.0977 83.6172 18.7872 81.5649 19.8738C79.4789 20.9781 78.3863 22.387 78.3863 23.7657C78.3863 24.1096 78.2778 24.4589 78.0133 24.7234C77.7488 24.9879 77.3994 25.0965 77.0555 25.0965C76.7116 25.0965 76.3622 24.9879 76.0977 24.7234C75.8333 24.4589 75.7247 24.1096 75.7247 23.7657C75.7247 21.4686 77.513 19.5533 79.9793 18.2525C82.4798 16.9335 85.8582 16.1359 89.4624 16.1359C93.0145 16.1359 96.038 17.2111 98.1817 19.146C100.331 21.0863 101.546 23.8469 101.546 27.106V42.5115L102.046 45.479C102.266 46.7988 102.515 47.6625 102.784 48.184C103.023 48.647 103.212 48.7279 103.324 48.7417L107.331 48.3673ZM103.333 49.4066C102.442 49.3748 101.838 48.2613 101.392 45.5891L100.883 42.5669V27.106C100.883 22.9079 98.7635 19.6519 95.2552 17.9988C93.6299 17.2329 91.7066 16.8111 89.5578 16.799C89.5261 16.7988 89.4943 16.7987 89.4624 16.7987C88.4818 16.7987 87.5203 16.8594 86.5918 16.9742C80.8633 17.6826 76.3874 20.4533 76.3874 23.7657C76.3874 24.1792 76.6419 24.4337 77.0555 24.4337C77.4691 24.4337 77.7236 24.1792 77.7236 23.7657C77.7236 20.8092 81.6292 18.3296 86.6779 17.6313C87.5751 17.5072 88.5085 17.4394 89.4624 17.4352C89.4942 17.435 89.526 17.435 89.5578 17.435C91.6043 17.435 93.4324 17.8446 94.9681 18.5963C98.1594 20.1583 100.088 23.1971 100.088 27.106V42.5987C100.088 42.765 100.237 43.6239 100.385 44.4744C100.464 44.9256 100.542 45.3745 100.597 45.7163C101.01 48.2932 101.742 50.2019 103.301 50.2019H103.333L106.8 49.7247L106.737 49.0892L103.333 49.4066ZM93.0649 46.6553C90.7227 48.8273 87.6465 50.2337 84.1179 50.2337C77.8826 50.2337 73.0471 47.0207 73.0471 42.2806C73.0471 36.8088 78.6779 33.7548 84.945 33.1186C85.0415 33.109 85.14 33.0993 85.2403 33.0894C89.1447 32.7046 95.8886 32.0399 97.1292 28.4421C97.1525 28.3724 97.1757 28.2921 97.1982 28.2045C97.2987 27.8122 97.3837 27.2734 97.3837 26.8833V24.4974L97.8609 25.0382V35.8863C97.8609 39.8345 96.065 43.8731 93.0649 46.6553ZM97.3837 29.7782C97.3246 29.863 97.2627 29.9458 97.1982 30.0269C97.052 30.2104 96.8925 30.3845 96.721 30.5497C94.195 32.9822 89.0698 33.4832 85.8645 33.7965C85.5607 33.8262 85.2741 33.8542 85.0086 33.8821C78.8688 34.5183 73.8106 37.4451 73.8106 42.2806C73.8106 46.3844 78.0735 49.5338 84.1179 49.5338C87.3979 49.5338 90.3346 48.2153 92.6061 46.1755C95.556 43.5263 97.3837 39.6606 97.3837 35.8863V29.7782ZM96.721 31.4309C95.354 32.5286 93.5174 33.185 91.7179 33.6086C89.6668 34.0914 87.524 34.3006 85.9182 34.4573C85.6179 34.4866 85.3363 34.5141 85.0777 34.5412C82.0819 34.8517 79.3994 35.7175 77.4861 37.0504C75.5866 38.3737 74.4734 40.1296 74.4734 42.2806C74.4734 44.0802 75.4021 45.7069 77.0827 46.9068C78.77 48.1114 81.2047 48.8711 84.1179 48.8711C91.2413 48.8711 96.721 42.2531 96.721 35.8863V31.4309ZM96.5015 28.2294C96.2458 28.9682 95.6891 29.5908 94.8706 30.1191C94.0478 30.65 92.9965 31.0613 91.8281 31.3819C89.5992 31.9935 87.0742 32.2425 85.1628 32.431C85.0669 32.4405 84.9724 32.4498 84.8796 32.459L84.8781 32.4592C81.67 32.7849 78.5773 33.7324 76.267 35.3425C73.9408 36.9637 72.3844 39.2806 72.3844 42.2806C72.3844 44.903 73.7306 47.0798 75.8635 48.5771C77.9857 50.0669 80.8942 50.8965 84.1179 50.8965C92.5983 50.8965 98.5237 43.2134 98.5237 35.8863V24.7876L96.721 22.7445V26.8833C96.721 27.2822 96.6078 27.9085 96.5015 28.2294ZM107.075 16.295H108.525L113.331 16.1841V41.199C113.331 43.7566 114.077 45.6245 115.43 46.8615C116.793 48.1076 118.876 48.8075 121.735 48.8075C128.737 48.8075 134.752 41.9056 134.752 32.9277V19.1847C134.752 18.9971 134.729 18.896 134.693 18.8258C134.663 18.7678 134.592 18.6687 134.368 18.5574C133.871 18.3102 132.817 18.0977 130.643 18.0977H128.071V16.295H139.259V42.0918L139.542 45.2434L139.543 45.2499C139.633 46.3796 139.896 47.3526 140.225 48.0256C140.39 48.3631 140.56 48.5993 140.71 48.7436C140.817 48.846 140.893 48.883 140.936 48.8962L144.528 48.2974L144.916 50.2353L141.1 50.8647H140.982C139.787 50.8647 138.937 49.9813 138.403 48.9945C137.855 47.9835 137.528 46.6807 137.427 45.4223C137.426 45.4213 137.426 45.4202 137.426 45.4193L137.138 42.1828V18.4158H136.555V32.9277C136.555 42.5709 130.243 50.8647 121.735 50.8647C118.425 50.8647 115.776 50.062 113.95 48.4109C112.113 46.7498 111.211 44.3223 111.211 41.2944V19.0256C111.211 18.8137 111.171 18.6937 111.127 18.6198C111.085 18.5503 111.009 18.4687 110.838 18.3878C110.456 18.2068 109.755 18.0977 108.533 18.0977H107.075V16.295ZM135.892 17.7531H137.801V42.1533L138.087 45.3664C138.242 47.3098 138.968 49.2953 140.125 49.9651C140.374 50.1088 140.642 50.1919 140.929 50.2011C140.946 50.2016 140.964 50.2019 140.982 50.2019H141.046L144.131 49.6929L144.004 49.0568L140.95 49.5657C140.947 49.5656 140.944 49.5654 140.94 49.5653C140.777 49.5578 140.615 49.4973 140.457 49.3904C139.696 48.8739 139.04 47.2726 138.882 45.3028L138.596 42.1215V16.9578H128.734V17.435H130.643C131.888 17.435 132.812 17.5025 133.495 17.6205C134.517 17.797 135.003 18.0863 135.229 18.4314C135.381 18.6631 135.415 18.9199 135.415 19.1847V32.9277C135.415 38.5626 133.1 43.4855 129.595 46.4639C127.362 48.3618 124.645 49.4702 121.735 49.4702C115.818 49.4702 112.669 46.5753 112.669 41.199V16.8623L108.533 16.9578H107.738V17.435H108.533C108.537 17.435 108.54 17.435 108.544 17.435C109.331 17.4354 109.957 17.4787 110.443 17.5766C111.466 17.7824 111.873 18.2293 111.873 19.0256V41.2944C111.873 47.0843 115.309 50.2019 121.735 50.2019C124.882 50.2019 127.74 48.9913 130.05 46.9509C133.626 43.7931 135.892 38.648 135.892 32.9277V17.7531ZM170.209 16.9313V18.893H156.248C155.916 18.893 155.842 18.9726 155.837 18.9777C155.826 18.99 155.766 19.0657 155.766 19.3437V35.7272C155.766 39.8214 156.411 43.1746 157.496 45.4775C158.586 47.7904 160.038 48.9029 161.625 48.9029C164.328 48.9029 167.198 47.7601 168.731 45.3309L169.083 44.7727L170.714 45.7922L170.362 46.3545C168.397 49.4913 164.812 50.8647 161.625 50.8647C158.488 50.8647 155.863 49.5096 154.038 47.1519C152.225 44.8087 151.227 41.5127 151.227 37.6359V19.3437C151.227 19.0657 151.168 18.9901 151.156 18.9778C151.152 18.9739 151.08 18.893 150.745 18.893H145.342V16.9313H148.868C149.551 16.9313 150.029 16.8966 150.377 16.8126C150.707 16.7328 150.873 16.6197 150.981 16.4858C151.101 16.3369 151.213 16.0847 151.286 15.6128C151.36 15.1418 151.386 14.5192 151.386 13.6811V7.38749H153.348V37.6359C153.348 41.185 154.244 44.0425 155.743 45.993C155.513 45.4761 155.305 44.9248 155.12 44.3429C154.366 41.9794 153.963 39.0532 153.963 35.7272V16.9313H170.209ZM157.639 48.5537C157.403 48.4171 157.174 48.2677 156.952 48.1059C154.289 46.1637 152.685 42.4342 152.685 37.6359V8.05025H152.049V13.6811C152.049 14.1295 152.042 14.5279 152.023 14.8816C151.915 16.8728 151.43 17.4477 149.755 17.5675C149.49 17.5865 149.195 17.594 148.868 17.594H146.005V18.2303H150.745C151.604 18.2303 151.89 18.6438 151.89 19.3437V37.6359C151.89 43.0934 153.924 47.234 157.267 49.1048C157.703 49.3489 158.161 49.5544 158.641 49.7191C158.642 49.7195 158.643 49.7199 158.644 49.7204C159.362 49.9667 160.126 50.1216 160.931 50.1779C161.159 50.1939 161.39 50.2019 161.625 50.2019C164.449 50.2019 167.552 49.0625 169.426 46.55C169.557 46.375 169.681 46.1933 169.799 46.0048C169.8 46.0041 169.8 46.0034 169.801 46.0027L169.292 45.6845C167.606 48.3568 164.488 49.5657 161.625 49.5657C161.417 49.5657 161.212 49.55 161.011 49.5191C160.355 49.4178 159.739 49.153 159.173 48.7394C159.166 48.7345 159.159 48.7295 159.153 48.7245C159.113 48.6949 159.073 48.6646 159.033 48.6334C158.917 48.5427 158.804 48.4457 158.693 48.3425C156.463 46.2752 155.103 41.7227 155.103 35.7272V19.3437C155.103 19.0397 155.157 18.7897 155.289 18.6041C155.415 18.4255 155.614 18.3066 155.905 18.2568C156.008 18.2392 156.122 18.2303 156.248 18.2303H169.546V17.594H154.626V35.7272C154.626 40.9886 155.651 45.1632 157.422 47.6255C157.838 48.2039 158.295 48.6878 158.79 49.0691C158.812 49.0864 158.835 49.1034 158.857 49.1203C158.677 49.0554 158.501 48.984 158.328 48.9062C158.092 48.8004 157.863 48.6827 157.639 48.5537ZM172.067 50.7056V48.9029H176.547C178.722 48.9029 179.775 48.6904 180.273 48.4433C180.497 48.3319 180.568 48.2328 180.597 48.1748C180.634 48.1047 180.656 48.0035 180.656 47.816V18.5749H180.073V45.2975H178.09L178.112 44.614L178.112 44.6104L178.119 44.3916C178.123 44.2483 178.129 44.041 178.137 43.7853C178.152 43.2739 178.171 42.5688 178.191 41.7944C178.231 40.2425 178.271 38.4215 178.271 37.3178V19.0256C178.271 18.8137 178.231 18.6937 178.187 18.6198C178.145 18.5503 178.069 18.4687 177.898 18.3878C177.516 18.2068 176.815 18.0977 175.593 18.0977H173.976V16.295H176.86L178.87 16.2593C179.979 16.2394 181.291 16.2156 182.102 16.1997L182.777 16.1864V47.816C182.777 48.0035 182.8 48.1047 182.836 48.1748C182.866 48.2328 182.937 48.3319 183.161 48.4433C183.658 48.6904 184.712 48.9029 186.886 48.9029H188.663V50.7056H172.067ZM174.639 16.9578V17.435H175.593C176.076 17.435 176.499 17.451 176.865 17.4859C176.869 17.4862 176.872 17.4865 176.875 17.4868C177.164 17.5146 177.419 17.5542 177.642 17.6069C178.198 17.7385 178.553 17.9516 178.748 18.2671C178.875 18.474 178.933 18.7249 178.933 19.0256V37.3178C178.933 39.0514 178.837 42.5203 178.794 43.9719C178.782 44.385 178.774 44.6347 178.774 44.6347H179.41V17.9121H181.319V47.816C181.319 48.4749 181.108 49.0851 179.4 49.3801C178.716 49.4981 177.793 49.5657 176.547 49.5657H172.73V50.0428H188V49.5657H186.886C185.641 49.5657 184.718 49.4981 184.034 49.3801C182.326 49.0851 182.115 48.4749 182.115 47.816V16.8623C181.919 16.8662 181.695 16.8704 181.452 16.875C180.286 16.897 178.679 16.9257 177.709 16.9429C177.199 16.9519 176.865 16.9578 176.865 16.9578H174.639ZM180.397 8.07676C179.373 8.07676 178.461 7.21804 178.461 6.14149C178.461 5.11813 179.32 4.20623 180.397 4.20623C181.42 4.20623 182.332 5.06495 182.332 6.14149C182.332 7.16486 181.473 8.07676 180.397 8.07676ZM208.334 50.7156L207.913 50.7366C207.314 50.7666 206.83 50.4149 206.529 50.1138C206.215 49.7995 205.967 49.4098 205.836 49.0878C205.835 49.0852 205.834 49.0827 205.833 49.0801L194.325 21.995C194.325 21.9942 194.324 21.9934 194.324 21.9925C193.594 20.3209 193.174 19.5202 192.739 19.1012C192.383 18.7585 191.981 18.6385 190.988 18.6385C190.621 18.6385 190.225 18.6885 189.737 18.8475C189.627 18.8966 189.452 18.9567 189.27 18.9567C188.977 18.9567 188.634 18.8833 188.365 18.6245C188.091 18.3612 188.003 18.0114 188.003 17.6895C188.003 17.2381 188.229 16.9003 188.509 16.6803C188.768 16.4764 189.083 16.3618 189.356 16.2919C189.906 16.1508 190.517 16.1359 190.829 16.1359C192.341 16.1359 193.386 16.4703 194.23 17.3987C194.989 18.2336 195.547 19.5241 196.278 21.2151L196.304 21.2757L196.306 21.2786L207.524 47.5597L219.135 19.3433C219.301 18.9432 219.37 18.7133 219.37 18.5802C219.37 18.4995 219.355 18.4923 219.335 18.4756C219.28 18.4281 219.132 18.3459 218.789 18.2748C218.101 18.1323 216.981 18.0977 215.261 18.0977H212.053V16.295H228.585V18.0977H227.572C226.516 18.0977 225.796 18.258 225.277 18.555C224.775 18.8425 224.39 19.2989 224.081 20.0426C224.081 20.0428 224.081 20.0424 224.081 20.0426L211.442 50.7056H209.099L209.538 49.7631L209.54 49.7592L209.651 49.5212C209.723 49.3654 209.827 49.1402 209.956 48.8625C210.213 48.3072 210.567 47.5424 210.952 46.7041C211.723 45.0275 212.617 43.0652 213.123 41.8955C213.124 41.8938 213.125 41.892 213.125 41.8903L222.797 18.4158H221.59L208.334 50.7156ZM221.146 17.7531H223.787L223.024 19.6045L213.734 42.1533C213.2 43.387 212.239 45.4942 211.444 47.2207C211.044 48.0906 210.686 48.864 210.447 49.3801C210.255 49.7943 210.139 50.0428 210.139 50.0428H210.998L223.468 19.7891C223.652 19.3477 223.868 18.9761 224.126 18.668C224.563 18.1483 225.122 17.8092 225.852 17.6205C226.343 17.4938 226.912 17.435 227.572 17.435H227.922V16.9578H212.716V17.435H215.261C216.944 17.435 218.129 17.4661 218.897 17.6205C219.683 17.7785 220.033 18.0655 220.033 18.5802C220.033 18.6357 220.028 18.6936 220.019 18.7537C219.982 19.0034 219.875 19.2905 219.746 19.5982L208.135 47.816L208.104 47.892C207.947 48.2747 207.85 48.5132 207.751 48.6434C207.684 48.7318 207.617 48.7703 207.53 48.7703C207.32 48.7703 207.223 48.5438 206.973 47.957C206.958 47.9219 206.942 47.8855 206.926 47.8478L195.696 21.5388C194.169 18.0076 193.628 16.7987 190.829 16.7987C190.224 16.7987 188.665 16.8623 188.665 17.6895C188.665 18.103 188.888 18.2939 189.27 18.2939C189.334 18.2939 189.429 18.2621 189.493 18.2303C190.065 18.0394 190.542 17.9758 190.988 17.9758C193.056 17.9758 193.501 18.453 194.933 21.7297L206.449 48.834C206.64 49.3112 207.244 50.1065 207.88 50.0747L220.295 19.8268L220.296 19.8244L221.146 17.7531ZM228.298 50.7056V48.9029H232.779C234.953 48.9029 236.007 48.6904 236.504 48.4433C236.728 48.3319 236.799 48.2328 236.829 48.1748C236.865 48.1047 236.888 48.0035 236.888 47.816V18.5749H236.304V45.2975H234.322L234.343 44.614L234.343 44.6104L234.35 44.3916C234.354 44.2483 234.36 44.041 234.368 43.7853C234.383 43.2739 234.403 42.5688 234.422 41.7944C234.462 40.2425 234.502 38.4215 234.502 37.3178V19.0256C234.502 18.8137 234.462 18.6937 234.418 18.6198C234.376 18.5503 234.3 18.4687 234.129 18.3878C233.747 18.2068 233.047 18.0977 231.824 18.0977H230.207V16.295H233.091L235.101 16.2593C236.21 16.2394 237.522 16.2156 238.333 16.1997L239.009 16.1864V47.816C239.009 48.0035 239.031 48.1047 239.068 48.1748C239.097 48.2328 239.168 48.3319 239.392 48.4433C239.89 48.6904 240.943 48.9029 243.118 48.9029H244.894V50.7056H228.298ZM230.87 16.9578V17.435H231.824C232.307 17.435 232.73 17.451 233.097 17.4859C233.1 17.4862 233.103 17.4865 233.106 17.4868C233.396 17.5146 233.651 17.5542 233.873 17.6069C234.429 17.7385 234.785 17.9516 234.979 18.2671C235.106 18.474 235.165 18.7249 235.165 19.0256V37.3178C235.165 39.0514 235.068 42.5203 235.025 43.9719C235.013 44.385 235.005 44.6347 235.005 44.6347H235.642V17.9121H237.55V47.816C237.55 48.4749 237.339 49.0851 235.631 49.3801C234.947 49.4981 234.024 49.5657 232.779 49.5657H228.961V50.0428H244.231V49.5657H243.118C241.872 49.5657 240.949 49.4981 240.265 49.3801C238.557 49.0851 238.346 48.4749 238.346 47.816V16.8623C238.151 16.8662 237.926 16.8704 237.683 16.875C236.517 16.897 234.91 16.9257 233.941 16.9429C233.43 16.9519 233.097 16.9578 233.097 16.9578H230.87ZM236.628 8.07676C235.605 8.07676 234.693 7.21804 234.693 6.14149C234.693 5.11813 235.551 4.20623 236.628 4.20623C237.651 4.20623 238.563 5.06495 238.563 6.14149C238.563 7.16486 237.704 8.07676 236.628 8.07676ZM272.658 16.9313V18.893H256.47C256.138 18.893 256.064 18.9724 256.059 18.9777C256.048 18.9899 255.988 19.0657 255.988 19.3437V35.7272C255.988 39.8214 256.633 43.1746 257.718 45.4775C258.808 47.7904 260.26 48.9029 261.847 48.9029C264.55 48.9029 267.42 47.7601 268.953 45.3309L269.305 44.7727L270.936 45.7922L270.584 46.3545C268.62 49.4913 265.034 50.8647 261.847 50.8647C258.711 50.8647 256.085 49.5096 254.26 47.1519C252.447 44.8087 251.449 41.5127 251.449 37.6359V19.3437C251.449 19.0657 251.39 18.9901 251.378 18.9778C251.373 18.9725 251.299 18.893 250.967 18.893H245.564V16.9313H249.09C249.773 16.9313 250.252 16.8966 250.599 16.8126C250.929 16.7328 251.095 16.6197 251.203 16.4858C251.323 16.3369 251.435 16.0847 251.509 15.6128C251.582 15.1418 251.608 14.5192 251.608 13.6811V7.38749H253.57V37.6359C253.57 41.185 254.466 44.0425 255.966 45.993C255.735 45.4761 255.527 44.9248 255.342 44.3429C254.588 41.9794 254.185 39.0532 254.185 35.7272V16.9313H272.658ZM257.861 48.5537C257.625 48.4171 257.396 48.2677 257.174 48.1059C254.511 46.1637 252.907 42.4342 252.907 37.6359V8.05025H252.271V13.6811C252.271 14.1296 252.264 14.528 252.245 14.8818C252.137 16.8729 251.652 17.4477 249.977 17.5675C249.712 17.5865 249.417 17.594 249.09 17.594H246.227V18.2303H250.967C251.826 18.2303 252.112 18.6438 252.112 19.3437V37.6359C252.112 43.0934 254.146 47.2341 257.489 49.1049C257.925 49.349 258.384 49.5544 258.863 49.7191C258.864 49.7195 258.865 49.7199 258.866 49.7204C259.584 49.9667 260.348 50.1216 261.154 50.1779C261.381 50.1939 261.613 50.2019 261.847 50.2019C264.671 50.2019 267.774 49.0625 269.648 46.55C269.779 46.375 269.903 46.1933 270.021 46.0048C270.022 46.0041 270.022 46.0034 270.023 46.0027L269.514 45.6845C267.828 48.3568 264.71 49.5657 261.847 49.5657C261.639 49.5657 261.434 49.55 261.234 49.5191C260.577 49.4178 259.961 49.153 259.395 48.7394C259.388 48.7344 259.381 48.7295 259.375 48.7245C259.335 48.6949 259.295 48.6646 259.255 48.6334C259.139 48.5427 259.026 48.4457 258.915 48.3425C256.685 46.2752 255.325 41.7227 255.325 35.7272V19.3437C255.325 19.0397 255.379 18.7897 255.511 18.6041C255.637 18.4255 255.836 18.3066 256.127 18.2568C256.23 18.2392 256.344 18.2303 256.47 18.2303H271.995V17.594H254.848V35.7272C254.848 40.9886 255.873 45.1632 257.644 47.6255C258.06 48.2039 258.517 48.6878 259.012 49.0692C259.034 49.0864 259.057 49.1035 259.079 49.1203C258.9 49.0554 258.723 48.984 258.55 48.9062C258.314 48.8004 258.085 48.6828 257.861 48.5537ZM308.334 48.3673L308.527 50.2942L304.381 50.8647H304.304C303.185 50.8647 302.43 50.1538 301.939 49.2391C301.455 48.3391 301.155 47.1278 300.946 45.8219C300.891 45.4836 300.814 45.0409 300.736 44.5911C300.701 44.3911 300.666 44.1897 300.633 43.9955C300.579 43.6829 300.53 43.3891 300.493 43.1563C300.462 42.9527 300.428 42.7262 300.428 42.5987V27.106C300.428 24.3807 299.437 22.1456 297.74 20.5875C296.038 19.0247 293.575 18.0977 290.561 18.0977C287.469 18.0977 284.621 18.7872 282.568 19.8738C280.482 20.9781 279.39 22.387 279.39 23.7657C279.39 24.1096 279.281 24.4589 279.017 24.7234C278.752 24.9879 278.403 25.0965 278.059 25.0965C277.715 25.0965 277.366 24.9879 277.101 24.7234C276.837 24.4589 276.728 24.1096 276.728 23.7657C276.728 21.4686 278.516 19.5533 280.983 18.2525C283.483 16.9335 286.861 16.1359 290.466 16.1359C294.018 16.1359 297.041 17.2111 299.185 19.146C301.335 21.0863 302.549 23.8469 302.549 27.106V42.5115L303.049 45.479C303.269 46.7988 303.518 47.6625 303.788 48.184C304.027 48.6471 304.215 48.7279 304.327 48.7418L308.334 48.3673ZM304.336 49.4066C303.445 49.3748 302.841 48.2613 302.395 45.5891L301.886 42.5669V27.106C301.886 22.908 299.767 19.652 296.259 17.9988C294.633 17.233 292.71 16.8111 290.561 16.799C290.529 16.7988 290.498 16.7987 290.466 16.7987C289.485 16.7987 288.524 16.8594 287.595 16.9742C281.867 17.6826 277.391 20.4532 277.391 23.7657C277.391 24.1792 277.645 24.4337 278.059 24.4337C278.472 24.4337 278.727 24.1792 278.727 23.7657C278.727 20.8092 282.632 18.3296 287.681 17.6313C288.578 17.5072 289.512 17.4394 290.466 17.4352C290.497 17.435 290.529 17.435 290.561 17.435C292.608 17.435 294.436 17.8446 295.971 18.5963C299.163 20.1583 301.091 23.1972 301.091 27.106V42.5987C301.091 42.765 301.24 43.6238 301.388 44.4742C301.467 44.9255 301.545 45.3745 301.6 45.7163C302.014 48.2932 302.745 50.2019 304.304 50.2019H304.336L307.799 49.7251L307.804 49.7247L307.74 49.0885L304.336 49.4066ZM294.068 46.6554C291.726 48.8274 288.65 50.2337 285.121 50.2337C278.886 50.2337 274.05 47.0207 274.05 42.2806C274.05 36.8088 279.681 33.7548 285.948 33.1186C286.045 33.109 286.143 33.0993 286.244 33.0894C290.148 32.7046 296.892 32.0399 298.133 28.4421C298.156 28.3724 298.179 28.2921 298.201 28.2045C298.302 27.8122 298.387 27.2734 298.387 26.8833V24.4974L298.864 25.0382V35.8863C298.864 39.8346 297.068 43.8732 294.068 46.6554ZM298.387 29.7782C298.328 29.863 298.266 29.9458 298.201 30.0269C298.055 30.2104 297.896 30.3845 297.724 30.5497C295.198 32.9822 290.073 33.4832 286.868 33.7965C286.564 33.8262 286.277 33.8542 286.012 33.8821C279.872 34.5183 274.814 37.4451 274.814 42.2806C274.814 46.3844 279.077 49.5338 285.121 49.5338C288.401 49.5338 291.338 48.2154 293.609 46.1756C296.559 43.5265 298.387 39.6607 298.387 35.8863V29.7782ZM297.724 31.4309C296.357 32.5286 294.521 33.185 292.721 33.6086C290.67 34.0914 288.527 34.3006 286.922 34.4573C286.621 34.4866 286.34 34.5141 286.081 34.5412C283.085 34.8517 280.403 35.7175 278.489 37.0504C276.59 38.3737 275.477 40.1296 275.477 42.2806C275.477 44.0802 276.405 45.7069 278.086 46.9068C279.773 48.1114 282.208 48.8711 285.121 48.8711C292.245 48.8711 297.724 42.2531 297.724 35.8863V31.4309ZM297.505 28.2287C297.249 28.9678 296.693 29.5907 295.874 30.1191C295.051 30.65 294 31.0613 292.831 31.3819C290.602 31.9935 288.077 32.2425 286.166 32.431L285.883 32.459L285.881 32.4592C282.673 32.7849 279.581 33.7324 277.27 35.3425C274.944 36.9637 273.388 39.2806 273.388 42.2806C273.388 44.903 274.734 47.0798 276.867 48.5771C278.989 50.0669 281.897 50.8965 285.121 50.8965C293.602 50.8965 299.527 43.2134 299.527 35.8863V24.7876L297.724 22.7445V26.8833C297.724 27.2819 297.611 27.9077 297.505 28.2287ZM180.397 7.414C179.729 7.414 179.124 6.84137 179.124 6.14149C179.124 5.47343 179.697 4.86899 180.397 4.86899C181.065 4.86899 181.669 5.44162 181.669 6.14149C181.669 6.80956 181.097 7.414 180.397 7.414ZM236.628 7.414C235.96 7.414 235.355 6.84137 235.355 6.14149C235.355 5.47343 235.928 4.86899 236.628 4.86899C237.296 4.86899 237.9 5.44162 237.9 6.14149C237.9 6.80956 237.328 7.414 236.628 7.414Z" fill="#F55449"/>
<path fill-rule="evenodd" clip-rule="evenodd" d="M305.142 67.2745H4.24805V65.949H305.142V67.2745Z" fill="#F55449"/>
<path fill-rule="evenodd" clip-rule="evenodd" d="M242.842 69.9251H66.5469V68.5996H242.842V69.9251Z" fill="#F55449"/>
<path d="M47.3327 88.2229C47.7224 88.7478 48.1479 89.1176 48.6092 89.3324C49.0784 89.5471 49.5914 89.6545 50.1481 89.6545C51.2854 89.6545 52.1563 89.2528 52.7607 88.4496C53.3651 87.6463 53.6674 86.4493 53.6674 84.8587C53.6674 83.3794 53.397 82.2938 52.8561 81.6019C52.3233 80.902 51.5598 80.5521 50.5656 80.5521C49.8737 80.5521 49.2693 80.7112 48.7523 81.0293C48.2433 81.3474 47.7701 81.7968 47.3327 82.3773V88.2229ZM47.3327 80.7907C47.8417 80.2022 48.4143 79.7329 49.0506 79.383C49.6948 79.033 50.4344 78.8581 51.2695 78.8581C51.9773 78.8581 52.6136 78.9933 53.1782 79.2637C53.7509 79.5341 54.236 79.9278 54.6337 80.4447C55.0313 80.9537 55.3335 81.5741 55.5403 82.3058C55.7551 83.0374 55.8624 83.8606 55.8624 84.7752C55.8624 85.7534 55.7431 86.6442 55.5045 87.4475C55.2659 88.2507 54.92 88.9387 54.4667 89.5113C54.0213 90.076 53.4765 90.5174 52.8323 90.8355C52.1881 91.1457 51.4643 91.3008 50.6611 91.3008C49.8658 91.3008 49.1937 91.1536 48.645 90.8594C48.1041 90.5571 47.6309 90.1317 47.2253 89.5829L47.1179 90.6804C47.0543 90.9826 46.8714 91.1337 46.5692 91.1337H45.1973V73.5613H47.3327V80.7907Z" fill="#F55449"/>
<path d="M66.6366 83.7731C66.6366 83.28 66.5651 82.8307 66.4219 82.4251C66.2867 82.0115 66.0839 81.6576 65.8135 81.3633C65.551 81.0611 65.2289 80.8305 64.8472 80.6714C64.4654 80.5044 64.032 80.4209 63.5468 80.4209C62.5288 80.4209 61.7216 80.7191 61.1251 81.3156C60.5366 81.9041 60.1707 82.7233 60.0276 83.7731H66.6366ZM68.3545 89.4397C68.0921 89.7579 67.7779 90.0362 67.4121 90.2748C67.0462 90.5054 66.6525 90.6963 66.231 90.8474C65.8175 90.9985 65.388 91.1099 64.9426 91.1815C64.4972 91.261 64.0558 91.3008 63.6184 91.3008C62.7833 91.3008 62.0119 91.1616 61.3041 90.8832C60.6042 90.5969 59.9958 90.1833 59.4788 89.6425C58.9698 89.0938 58.5722 88.4178 58.2858 87.6145C57.9995 86.8112 57.8564 85.8887 57.8564 84.8468C57.8564 84.0038 57.9836 83.2164 58.2381 82.4847C58.5006 81.753 58.8744 81.1207 59.3595 80.5879C59.8447 80.0471 60.4372 79.6256 61.137 79.3233C61.8369 79.0132 62.6243 78.8581 63.4991 78.8581C64.2229 78.8581 64.8909 78.9813 65.5033 79.2279C66.1237 79.4665 66.6565 79.8164 67.1019 80.2777C67.5552 80.731 67.9091 81.2957 68.1636 81.9717C68.4181 82.6398 68.5454 83.4033 68.5454 84.2622C68.5454 84.5963 68.5096 84.819 68.438 84.9303C68.3664 85.0416 68.2312 85.0973 68.0324 85.0973H59.956C59.9799 85.8608 60.0833 86.5249 60.2662 87.0896C60.457 87.6542 60.7195 88.1275 61.0535 88.5092C61.3876 88.883 61.7852 89.1653 62.2465 89.3562C62.7078 89.5391 63.2247 89.6306 63.7974 89.6306C64.3302 89.6306 64.7875 89.571 65.1693 89.4517C65.559 89.3244 65.893 89.1892 66.1714 89.046C66.4497 88.9029 66.6804 88.7717 66.8633 88.6524C67.0542 88.5251 67.2172 88.4615 67.3524 88.4615C67.5274 88.4615 67.6626 88.5291 67.758 88.6643L68.3545 89.4397Z" fill="#F55449"/>
<path d="M77.7031 85.6938C76.7249 85.7256 75.8898 85.8051 75.1979 85.9324C74.5139 86.0517 73.9532 86.2108 73.5158 86.4096C73.0863 86.6084 72.7722 86.843 72.5734 87.1134C72.3825 87.3838 72.287 87.6861 72.287 88.0201C72.287 88.3382 72.3387 88.6126 72.4421 88.8432C72.5455 89.0739 72.6847 89.2648 72.8597 89.4159C73.0426 89.559 73.2533 89.6664 73.4919 89.738C73.7385 89.8016 74.0009 89.8334 74.2793 89.8334C74.6531 89.8334 74.9951 89.7976 75.3053 89.726C75.6154 89.6465 75.9057 89.5352 76.1761 89.392C76.4545 89.2489 76.7169 89.0779 76.9635 88.879C77.218 88.6802 77.4645 88.4535 77.7031 88.199V85.6938ZM70.8435 80.7549C71.5116 80.1107 72.2314 79.6295 73.0028 79.3114C73.7743 78.9933 74.6292 78.8342 75.5677 78.8342C76.2437 78.8342 76.8442 78.9456 77.3691 79.1682C77.894 79.3909 78.3354 79.7011 78.6933 80.0988C79.0512 80.4964 79.3216 80.9776 79.5045 81.5423C79.6874 82.1069 79.7789 82.7273 79.7789 83.4033V91.1337H78.8365C78.6297 91.1337 78.4706 91.1019 78.3593 91.0383C78.2479 90.9667 78.1604 90.8315 78.0968 90.6327L77.8582 89.4874C77.5401 89.7817 77.2299 90.0442 76.9277 90.2748C76.6255 90.4975 76.3074 90.6884 75.9733 90.8474C75.6393 90.9985 75.2814 91.1139 74.8996 91.1934C74.5258 91.2809 74.1083 91.3246 73.647 91.3246C73.1778 91.3246 72.7364 91.261 72.3228 91.1337C71.9093 90.9985 71.5474 90.7997 71.2372 90.5373C70.935 90.2748 70.6924 89.9448 70.5095 89.5471C70.3345 89.1415 70.2471 88.6643 70.2471 88.1155C70.2471 87.6383 70.3783 87.181 70.6407 86.7436C70.9032 86.2982 71.3287 85.9046 71.9172 85.5626C72.5058 85.2206 73.2732 84.9422 74.2197 84.7275C75.1661 84.5048 76.3272 84.3776 77.7031 84.3457V83.4033C77.7031 82.4648 77.5003 81.757 77.0947 81.2798C76.6891 80.7947 76.0966 80.5521 75.3172 80.5521C74.7923 80.5521 74.3509 80.6197 73.993 80.7549C73.643 80.8821 73.3369 81.0293 73.0744 81.1963C72.8199 81.3554 72.5972 81.5025 72.4063 81.6377C72.2234 81.7649 72.0405 81.8286 71.8576 81.8286C71.7144 81.8286 71.5911 81.7928 71.4877 81.7212C71.3844 81.6417 71.2969 81.5462 71.2253 81.4349L70.8435 80.7549Z" fill="#F55449"/>
<path d="M92.951 79.0489V91.1337H91.6864C91.3842 91.1337 91.1933 90.9866 91.1138 90.6923L90.9468 89.392C90.4219 89.9726 89.8333 90.4418 89.1812 90.7997C88.529 91.1497 87.7814 91.3246 86.9384 91.3246C86.2783 91.3246 85.6937 91.2173 85.1847 91.0025C84.6837 90.7798 84.2622 90.4697 83.9202 90.072C83.5782 89.6743 83.3197 89.1932 83.1448 88.6285C82.9777 88.0638 82.8942 87.4395 82.8942 86.7555V79.0489H85.0177V86.7555C85.0177 87.6702 85.2245 88.378 85.6381 88.879C86.0596 89.3801 86.6998 89.6306 87.5588 89.6306C88.187 89.6306 88.7716 89.4835 89.3124 89.1892C89.8612 88.887 90.3662 88.4734 90.8275 87.9485V79.0489H92.951Z" fill="#F55449"/>
<path d="M100.028 91.3246C99.0737 91.3246 98.3381 91.0582 97.8211 90.5253C97.3121 89.9925 97.0576 89.225 97.0576 88.2229V80.8265H95.6022C95.4749 80.8265 95.3676 80.7907 95.2801 80.7191C95.1926 80.6396 95.1488 80.5203 95.1488 80.3612V79.5142L97.1292 79.2637L97.6183 75.5297C97.6422 75.4104 97.6939 75.3149 97.7734 75.2434C97.8609 75.1638 97.9722 75.1241 98.1074 75.1241H99.1811V79.2875H102.676V80.8265H99.1811V88.0797C99.1811 88.5887 99.3044 88.9665 99.5509 89.2131C99.7975 89.4596 100.116 89.5829 100.505 89.5829C100.728 89.5829 100.919 89.555 101.078 89.4994C101.245 89.4358 101.388 89.3682 101.507 89.2966C101.627 89.225 101.726 89.1614 101.806 89.1057C101.893 89.0421 101.969 89.0103 102.032 89.0103C102.144 89.0103 102.243 89.0779 102.331 89.2131L102.951 90.2271C102.585 90.5691 102.144 90.8395 101.627 91.0383C101.11 91.2292 100.577 91.3246 100.028 91.3246Z" fill="#F55449"/>
<path d="M115.296 79.0489L108.555 94.7007C108.484 94.8598 108.392 94.987 108.281 95.0825C108.178 95.1779 108.015 95.2256 107.792 95.2256H106.217L108.424 90.4299L103.438 79.0489H105.275C105.458 79.0489 105.601 79.0967 105.704 79.1921C105.816 79.2796 105.891 79.379 105.931 79.4903L109.164 87.1015C109.291 87.4355 109.398 87.7855 109.486 88.1513C109.597 87.7775 109.717 87.4236 109.844 87.0896L112.981 79.4903C113.029 79.3631 113.109 79.2597 113.22 79.1802C113.339 79.0927 113.47 79.0489 113.614 79.0489H115.296Z" fill="#F55449"/>
<path d="M129.732 81.0412C129.637 81.2162 129.49 81.3037 129.291 81.3037C129.172 81.3037 129.036 81.2599 128.885 81.1724C128.734 81.085 128.547 80.9895 128.325 80.8861C128.11 80.7748 127.851 80.6754 127.549 80.5879C127.247 80.4924 126.889 80.4447 126.476 80.4447C126.118 80.4447 125.796 80.4924 125.509 80.5879C125.223 80.6754 124.976 80.7986 124.77 80.9577C124.571 81.1168 124.416 81.3037 124.304 81.5184C124.201 81.7252 124.149 81.9518 124.149 82.1984C124.149 82.5086 124.237 82.767 124.412 82.9738C124.595 83.1806 124.833 83.3596 125.127 83.5107C125.422 83.6618 125.756 83.797 126.13 83.9163C126.503 84.0276 126.885 84.1509 127.275 84.2861C127.672 84.4133 128.058 84.5565 128.432 84.7156C128.806 84.8746 129.14 85.0735 129.434 85.312C129.728 85.5506 129.963 85.8449 130.138 86.1948C130.321 86.5368 130.412 86.9504 130.412 87.4355C130.412 87.9923 130.313 88.5092 130.114 88.9864C129.915 89.4556 129.621 89.8652 129.231 90.2152C128.842 90.5571 128.364 90.8276 127.8 91.0264C127.235 91.2252 126.583 91.3246 125.843 91.3246C125 91.3246 124.237 91.1894 123.553 90.919C122.869 90.6407 122.288 90.2867 121.811 89.8573L122.312 89.046C122.376 88.9427 122.451 88.8631 122.539 88.8075C122.626 88.7518 122.738 88.7239 122.873 88.7239C123.016 88.7239 123.167 88.7796 123.326 88.891C123.485 89.0023 123.676 89.1256 123.899 89.2608C124.129 89.396 124.408 89.5193 124.734 89.6306C125.06 89.7419 125.465 89.7976 125.951 89.7976C126.364 89.7976 126.726 89.7459 127.036 89.6425C127.346 89.5312 127.605 89.3841 127.812 89.2011C128.018 89.0182 128.17 88.8075 128.265 88.5689C128.368 88.3303 128.42 88.0758 128.42 87.8054C128.42 87.4713 128.329 87.1969 128.146 86.9822C127.971 86.7595 127.736 86.5726 127.442 86.4215C127.148 86.2624 126.81 86.1272 126.428 86.0159C126.054 85.8966 125.668 85.7733 125.271 85.6461C124.881 85.5188 124.495 85.3757 124.113 85.2166C123.74 85.0496 123.406 84.8428 123.111 84.5963C122.817 84.3497 122.578 84.0475 122.396 83.6896C122.221 83.3238 122.133 82.8824 122.133 82.3654C122.133 81.9041 122.229 81.4627 122.419 81.0412C122.61 80.6117 122.889 80.2379 123.255 79.9198C123.62 79.5937 124.07 79.3353 124.603 79.1444C125.135 78.9535 125.744 78.8581 126.428 78.8581C127.223 78.8581 127.935 78.9853 128.563 79.2398C129.199 79.4864 129.748 79.8284 130.21 80.2658L129.732 81.0412Z" fill="#F55449"/>
<path d="M139.565 85.6938C138.587 85.7256 137.752 85.8051 137.06 85.9324C136.376 86.0517 135.815 86.2108 135.378 86.4096C134.948 86.6084 134.634 86.843 134.435 87.1134C134.245 87.3838 134.149 87.6861 134.149 88.0201C134.149 88.3382 134.201 88.6126 134.304 88.8432C134.408 89.0739 134.547 89.2648 134.722 89.4159C134.905 89.559 135.115 89.6664 135.354 89.738C135.601 89.8016 135.863 89.8334 136.141 89.8334C136.515 89.8334 136.857 89.7976 137.167 89.726C137.478 89.6465 137.768 89.5352 138.038 89.392C138.317 89.2489 138.579 89.0779 138.826 88.879C139.08 88.6802 139.327 88.4535 139.565 88.199V85.6938ZM132.706 80.7549C133.374 80.1107 134.093 79.6295 134.865 79.3114C135.636 78.9933 136.491 78.8342 137.43 78.8342C138.106 78.8342 138.706 78.9456 139.231 79.1682C139.756 79.3909 140.198 79.7011 140.555 80.0988C140.913 80.4964 141.184 80.9776 141.367 81.5423C141.55 82.1069 141.641 82.7273 141.641 83.4033V91.1337H140.699C140.492 91.1337 140.333 91.1019 140.221 91.0383C140.11 90.9667 140.023 90.8315 139.959 90.6327L139.72 89.4874C139.402 89.7817 139.092 90.0442 138.79 90.2748C138.488 90.4975 138.169 90.6884 137.835 90.8474C137.501 90.9985 137.143 91.1139 136.762 91.1934C136.388 91.2809 135.97 91.3246 135.509 91.3246C135.04 91.3246 134.598 91.261 134.185 91.1337C133.771 90.9985 133.409 90.7997 133.099 90.5373C132.797 90.2748 132.555 89.9448 132.372 89.5471C132.197 89.1415 132.109 88.6643 132.109 88.1155C132.109 87.6383 132.24 87.181 132.503 86.7436C132.765 86.2982 133.191 85.9046 133.779 85.5626C134.368 85.2206 135.135 84.9422 136.082 84.7275C137.028 84.5048 138.189 84.3776 139.565 84.3457V83.4033C139.565 82.4648 139.362 81.757 138.957 81.2798C138.551 80.7947 137.959 80.5521 137.179 80.5521C136.654 80.5521 136.213 80.6197 135.855 80.7549C135.505 80.8821 135.199 81.0293 134.937 81.1963C134.682 81.3554 134.459 81.5025 134.268 81.6377C134.086 81.7649 133.903 81.8286 133.72 81.8286C133.577 81.8286 133.453 81.7928 133.35 81.7212C133.246 81.6417 133.159 81.5462 133.087 81.4349L132.706 80.7549Z" fill="#F55449"/>
<path d="M147.071 73.5613V91.1337H144.947V73.5613H147.071Z" fill="#F55449"/>
<path d="M155.608 78.8581C156.491 78.8581 157.286 79.0052 157.994 79.2995C158.702 79.5937 159.306 80.0113 159.808 80.5521C160.309 81.0929 160.69 81.749 160.953 82.5205C161.223 83.284 161.358 84.139 161.358 85.0854C161.358 86.0398 161.223 86.8987 160.953 87.6622C160.69 88.4257 160.309 89.0779 159.808 89.6187C159.306 90.1595 158.702 90.577 157.994 90.8713C157.286 91.1576 156.491 91.3008 155.608 91.3008C154.718 91.3008 153.914 91.1576 153.198 90.8713C152.491 90.577 151.886 90.1595 151.385 89.6187C150.884 89.0779 150.498 88.4257 150.228 87.6622C149.966 86.8987 149.834 86.0398 149.834 85.0854C149.834 84.139 149.966 83.284 150.228 82.5205C150.498 81.749 150.884 81.0929 151.385 80.5521C151.886 80.0113 152.491 79.5937 153.198 79.2995C153.914 79.0052 154.718 78.8581 155.608 78.8581ZM155.608 89.6425C156.801 89.6425 157.692 89.2449 158.281 88.4496C158.869 87.6463 159.163 86.5289 159.163 85.0973C159.163 83.6578 158.869 82.5364 158.281 81.7331C157.692 80.9299 156.801 80.5282 155.608 80.5282C155.004 80.5282 154.475 80.6316 154.022 80.8384C153.576 81.0452 153.202 81.3434 152.9 81.7331C152.606 82.1228 152.383 82.604 152.232 83.1766C152.089 83.7413 152.017 84.3815 152.017 85.0973C152.017 86.5289 152.312 87.6463 152.9 88.4496C153.497 89.2449 154.399 89.6425 155.608 89.6425Z" fill="#F55449"/>
<path d="M166.056 80.8026C166.318 80.5083 166.597 80.2419 166.891 80.0033C167.185 79.7647 167.495 79.5619 167.822 79.3949C168.156 79.2199 168.505 79.0887 168.871 79.0012C169.245 78.9058 169.647 78.8581 170.076 78.8581C170.736 78.8581 171.317 78.9694 171.818 79.1921C172.327 79.4068 172.748 79.717 173.083 80.1226C173.424 80.5203 173.683 81.0014 173.858 81.5661C174.033 82.1308 174.12 82.7551 174.12 83.4391V91.1337H171.985V83.4391C171.985 82.5245 171.774 81.8166 171.353 81.3156C170.939 80.8066 170.307 80.5521 169.456 80.5521C168.828 80.5521 168.239 80.7032 167.69 81.0054C167.149 81.3076 166.648 81.7172 166.187 82.2342V91.1337H164.052V79.0489H165.328C165.63 79.0489 165.817 79.1961 165.889 79.4903L166.056 80.8026Z" fill="#F55449"/>
<path d="M190.01 85.6938C189.032 85.7256 188.197 85.8051 187.505 85.9324C186.821 86.0517 186.26 86.2108 185.823 86.4096C185.393 86.6084 185.079 86.843 184.88 87.1134C184.69 87.3838 184.594 87.6861 184.594 88.0201C184.594 88.3382 184.646 88.6126 184.749 88.8432C184.853 89.0739 184.992 89.2648 185.167 89.4159C185.35 89.559 185.56 89.6664 185.799 89.738C186.046 89.8016 186.308 89.8334 186.586 89.8334C186.96 89.8334 187.302 89.7976 187.612 89.726C187.923 89.6465 188.213 89.5352 188.483 89.392C188.762 89.2489 189.024 89.0779 189.271 88.879C189.525 88.6802 189.772 88.4535 190.01 88.199V85.6938ZM183.151 80.7549C183.819 80.1107 184.538 79.6295 185.31 79.3114C186.081 78.9933 186.936 78.8342 187.875 78.8342C188.551 78.8342 189.151 78.9456 189.676 79.1682C190.201 79.3909 190.642 79.7011 191 80.0988C191.358 80.4964 191.629 80.9776 191.812 81.5423C191.995 82.1069 192.086 82.7273 192.086 83.4033V91.1337H191.144C190.937 91.1337 190.778 91.1019 190.666 91.0383C190.555 90.9667 190.468 90.8315 190.404 90.6327L190.165 89.4874C189.847 89.7817 189.537 90.0442 189.235 90.2748C188.933 90.4975 188.614 90.6884 188.28 90.8474C187.946 90.9985 187.588 91.1139 187.207 91.1934C186.833 91.2809 186.415 91.3246 185.954 91.3246C185.485 91.3246 185.043 91.261 184.63 91.1337C184.216 90.9985 183.854 90.7997 183.544 90.5373C183.242 90.2748 183 89.9448 182.817 89.5471C182.642 89.1415 182.554 88.6643 182.554 88.1155C182.554 87.6383 182.685 87.181 182.948 86.7436C183.21 86.2982 183.636 85.9046 184.224 85.5626C184.813 85.2206 185.58 84.9422 186.527 84.7275C187.473 84.5048 188.634 84.3776 190.01 84.3457V83.4033C190.01 82.4648 189.807 81.757 189.402 81.2798C188.996 80.7947 188.404 80.5521 187.624 80.5521C187.099 80.5521 186.658 80.6197 186.3 80.7549C185.95 80.8821 185.644 81.0293 185.381 81.1963C185.127 81.3554 184.904 81.5025 184.713 81.6377C184.53 81.7649 184.348 81.8286 184.165 81.8286C184.021 81.8286 183.898 81.7928 183.795 81.7212C183.691 81.6417 183.604 81.5462 183.532 81.4349L183.151 80.7549Z" fill="#F55449"/>
<path d="M198.868 91.3246C197.913 91.3246 197.178 91.0582 196.661 90.5253C196.152 89.9925 195.897 89.225 195.897 88.2229V80.8265H194.442C194.314 80.8265 194.207 80.7907 194.12 80.7191C194.032 80.6396 193.988 80.5203 193.988 80.3612V79.5142L195.969 79.2637L196.458 75.5297C196.482 75.4104 196.533 75.3149 196.613 75.2434C196.7 75.1638 196.812 75.1241 196.947 75.1241H198.021V79.2875H201.516V80.8265H198.021V88.0797C198.021 88.5887 198.144 88.9665 198.39 89.2131C198.637 89.4596 198.955 89.5829 199.345 89.5829C199.568 89.5829 199.758 89.555 199.917 89.4994C200.084 89.4358 200.228 89.3682 200.347 89.2966C200.466 89.225 200.566 89.1614 200.645 89.1057C200.733 89.0421 200.808 89.0103 200.872 89.0103C200.983 89.0103 201.083 89.0779 201.17 89.2131L201.79 90.2271C201.425 90.5691 200.983 90.8395 200.466 91.0383C199.949 91.2292 199.416 91.3246 198.868 91.3246Z" fill="#F55449"/>
<path d="M211.949 80.6595C212.466 80.1107 213.038 79.6733 213.667 79.3472C214.295 79.0211 215.019 78.8581 215.838 78.8581C216.498 78.8581 217.079 78.9694 217.58 79.1921C218.089 79.4068 218.51 79.717 218.844 80.1226C219.186 80.5203 219.445 81.0014 219.62 81.5661C219.795 82.1308 219.882 82.7551 219.882 83.4391V91.1337H217.747V83.4391C217.747 82.5245 217.536 81.8166 217.114 81.3156C216.701 80.8066 216.068 80.5521 215.217 80.5521C214.589 80.5521 214.001 80.7032 213.452 81.0054C212.911 81.3076 212.41 81.7172 211.949 82.2342V91.1337H209.813V73.5613H211.949V80.6595Z" fill="#F55449"/>
<path d="M228.212 78.8581C229.095 78.8581 229.89 79.0052 230.598 79.2995C231.306 79.5937 231.91 80.0113 232.411 80.5521C232.912 81.0929 233.294 81.749 233.556 82.5205C233.827 83.284 233.962 84.139 233.962 85.0854C233.962 86.0398 233.827 86.8987 233.556 87.6622C233.294 88.4257 232.912 89.0779 232.411 89.6187C231.91 90.1595 231.306 90.577 230.598 90.8713C229.89 91.1576 229.095 91.3008 228.212 91.3008C227.321 91.3008 226.518 91.1576 225.802 90.8713C225.094 90.577 224.49 90.1595 223.989 89.6187C223.488 89.0779 223.102 88.4257 222.831 87.6622C222.569 86.8987 222.438 86.0398 222.438 85.0854C222.438 84.139 222.569 83.284 222.831 82.5205C223.102 81.749 223.488 81.0929 223.989 80.5521C224.49 80.0113 225.094 79.5937 225.802 79.2995C226.518 79.0052 227.321 78.8581 228.212 78.8581ZM228.212 89.6425C229.405 89.6425 230.296 89.2449 230.884 88.4496C231.473 87.6463 231.767 86.5289 231.767 85.0973C231.767 83.6578 231.473 82.5364 230.884 81.7331C230.296 80.9299 229.405 80.5282 228.212 80.5282C227.607 80.5282 227.078 80.6316 226.625 80.8384C226.18 81.0452 225.806 81.3434 225.504 81.7331C225.209 82.1228 224.987 82.604 224.836 83.1766C224.693 83.7413 224.621 84.3815 224.621 85.0973C224.621 86.5289 224.915 87.6463 225.504 88.4496C226.1 89.2449 227.003 89.6425 228.212 89.6425Z" fill="#F55449"/>
<path d="M236.655 91.1337V79.0489H237.932C238.234 79.0489 238.421 79.1961 238.492 79.4903L238.647 80.731C239.093 80.1823 239.594 79.7329 240.151 79.383C240.707 79.033 241.352 78.8581 242.083 78.8581C242.894 78.8581 243.551 79.0847 244.052 79.5381C244.561 79.9914 244.926 80.6038 245.149 81.3752C245.324 80.9378 245.547 80.56 245.817 80.2419C246.096 79.9238 246.406 79.6613 246.748 79.4546C247.09 79.2478 247.452 79.0967 247.833 79.0012C248.223 78.9058 248.617 78.8581 249.014 78.8581C249.651 78.8581 250.215 78.9615 250.708 79.1682C251.209 79.3671 251.631 79.6613 251.973 80.051C252.323 80.4407 252.589 80.9219 252.772 81.4945C252.955 82.0592 253.047 82.7074 253.047 83.4391V91.1337H250.911V83.4391C250.911 82.4927 250.704 81.7769 250.291 81.2917C249.877 80.7986 249.281 80.5521 248.501 80.5521C248.151 80.5521 247.817 80.6157 247.499 80.743C247.189 80.8623 246.915 81.0412 246.676 81.2798C246.438 81.5184 246.247 81.8206 246.104 82.1865C245.968 82.5444 245.901 82.9619 245.901 83.4391V91.1337H243.765V83.4391C243.765 82.4688 243.57 81.7451 243.181 81.2679C242.791 80.7907 242.222 80.5521 241.475 80.5521C240.95 80.5521 240.465 80.6952 240.019 80.9816C239.574 81.2599 239.164 81.6417 238.791 82.1268V91.1337H236.655Z" fill="#F55449"/>
<path d="M264.362 83.7731C264.362 83.28 264.291 82.8307 264.148 82.4251C264.012 82.0115 263.81 81.6576 263.539 81.3633C263.277 81.0611 262.955 80.8305 262.573 80.6714C262.191 80.5044 261.758 80.4209 261.273 80.4209C260.255 80.4209 259.447 80.7191 258.851 81.3156C258.262 81.9041 257.896 82.7233 257.753 83.7731H264.362ZM266.08 89.4397C265.818 89.7579 265.504 90.0362 265.138 90.2748C264.772 90.5054 264.378 90.6963 263.957 90.8474C263.543 90.9985 263.114 91.1099 262.668 91.1815C262.223 91.261 261.782 91.3008 261.344 91.3008C260.509 91.3008 259.738 91.1616 259.03 90.8832C258.33 90.5969 257.721 90.1833 257.205 89.6425C256.696 89.0938 256.298 88.4178 256.012 87.6145C255.725 86.8112 255.582 85.8887 255.582 84.8468C255.582 84.0038 255.709 83.2164 255.964 82.4847C256.226 81.753 256.6 81.1207 257.085 80.5879C257.57 80.0471 258.163 79.6256 258.863 79.3233C259.563 79.0132 260.35 78.8581 261.225 78.8581C261.949 78.8581 262.617 78.9813 263.229 79.2279C263.849 79.4665 264.382 79.8164 264.828 80.2777C265.281 80.731 265.635 81.2957 265.889 81.9717C266.144 82.6398 266.271 83.4033 266.271 84.2622C266.271 84.5963 266.235 84.819 266.164 84.9303C266.092 85.0416 265.957 85.0973 265.758 85.0973H257.682C257.706 85.8608 257.809 86.5249 257.992 87.0896C258.183 87.6542 258.445 88.1275 258.779 88.5092C259.113 88.883 259.511 89.1653 259.972 89.3562C260.434 89.5391 260.95 89.6306 261.523 89.6306C262.056 89.6306 262.513 89.571 262.895 89.4517C263.285 89.3244 263.619 89.1892 263.897 89.046C264.175 88.9029 264.406 88.7717 264.589 88.6524C264.78 88.5251 264.943 88.4615 265.078 88.4615C265.253 88.4615 265.388 88.5291 265.484 88.6643L266.08 89.4397Z" fill="#F55449"/>
</svg>
