<svg width="233" height="85" viewBox="0 0 233 85" fill="none" xmlns="http://www.w3.org/2000/svg">
<path d="M4.56 50C4.608 47.552 4.656 45.104 4.68 42.584V29.096C7.68 26.816 11.52 25.424 14.688 25.424C20.232 25.424 24.624 30.464 24.624 37.52C24.624 44.576 20.376 49.616 14.688 49.616C10.152 49.616 6.48 45.368 6.48 40.112V36.248C6.48 34.328 6.72 30.92 6.72 30.92L6.12 31.04V40.112C6.12 45.656 9.936 50.12 14.688 50.12C20.784 50.12 25.2 44.792 25.2 37.52C25.2 30.248 20.64 24.92 14.688 24.92C11.448 24.92 7.656 26.312 4.68 28.496V28.472V13.448L1.56 13.52H0.72V13.88H1.56C3.408 13.88 4.08 14.192 4.08 15.08V50H4.56ZM49.9635 36.8H31.5075C31.6995 30.488 35.6595 25.4 40.5075 25.4C46.2195 25.4 50.0355 29.096 50.9715 34.448C51.0195 34.664 51.0435 34.904 51.0435 35.168C51.0435 35.96 50.8035 36.8 49.9635 36.8ZM31.1475 37.28H51.5475C51.6435 37.28 51.7875 37.208 51.7875 37.04C51.7875 30.08 47.3715 24.92 40.5075 24.92C33.7395 24.92 28.7475 30.128 28.7475 37.52C28.7475 44.744 33.5235 50.12 40.2675 50.12C45.8355 50.12 49.3635 47.672 51.2355 44.336L50.8035 44.096C49.0035 47.288 45.6915 49.64 40.2675 49.64C33.8355 49.64 29.3475 44.528 29.3475 37.52C29.3475 31.736 32.4195 27.392 37.0035 25.928C33.5715 27.752 31.1475 32.144 31.1475 37.28ZM80.3198 49.28L77.7518 49.52C77.0798 49.496 76.6238 48.656 76.2878 46.64L75.9038 44.36V32.696C75.9038 28.04 72.4478 24.92 67.2878 24.92C61.9838 24.92 57.4238 27.272 57.4238 30.176C57.4238 30.488 57.6158 30.68 57.9278 30.68C58.2398 30.68 58.4318 30.488 58.4318 30.176C58.4318 27.536 62.5598 25.4 67.3598 25.4C72.1118 25.4 75.3038 28.328 75.3038 32.696V44.384C75.3038 44.576 75.5678 45.992 75.6878 46.736C75.9998 48.68 76.5518 50.12 77.7278 50.12H77.7518L80.3678 49.76L80.3198 49.28ZM73.2638 34.712V39.32C73.2638 44.36 68.9438 49.616 63.2558 49.616C58.6958 49.616 55.4798 47.24 55.4798 44.144C55.4798 40.496 59.2958 38.288 63.9278 37.808C66.4478 37.544 71.4878 37.256 73.2638 34.712ZM73.2638 30.728V32.528C73.2638 32.888 73.1678 33.416 73.0718 33.704C72.1118 36.488 66.7838 36.944 63.8798 37.232C59.1518 37.712 54.9038 40.016 54.9038 44.144C54.9038 47.72 58.5518 50.144 63.2558 50.144C69.3278 50.144 73.6238 44.624 73.6238 39.32V31.136L73.2638 30.728ZM81.075 25.04V25.4H81.675C83.523 25.4 84.195 25.712 84.195 26.6V43.4C84.195 47.768 86.787 50.12 91.635 50.12C97.683 50.12 102.315 44.192 102.315 37.088V25.64H103.755V44.048L103.971 46.472C104.115 48.272 104.907 50.12 106.155 50.12H106.203L108.531 49.736L108.435 49.256L106.131 49.64C105.411 49.616 104.715 48.224 104.571 46.424L104.355 44.024V25.04H96.915V25.4H98.355C101.643 25.4 101.955 26.024 101.955 26.72V37.088C101.955 44.048 97.275 49.568 91.635 49.568C87.171 49.568 84.795 47.384 84.795 43.328V24.968L81.675 25.04H81.075ZM127.704 25.52H116.448V39.2C116.448 44.144 117.648 47.816 119.64 49.304C116.784 48.272 114.984 45.056 114.984 40.64V18.32H114.504V22.568C114.504 25.112 114.192 25.52 112.104 25.52H109.944V26H113.52C114.168 26 114.384 26.312 114.384 26.84V40.64C114.384 46.328 117.312 50.12 121.728 50.12C124.008 50.12 126.528 49.136 127.896 46.952L127.512 46.712C126.24 48.728 123.888 49.64 121.728 49.64C118.776 49.64 116.808 45.464 116.808 39.2V26.84C116.808 26.312 117.024 26 117.672 26H127.704V25.52ZM130.106 50H141.626V49.64H140.786C137.498 49.64 137.186 49.016 137.186 48.32V24.968C135.962 24.992 133.226 25.04 133.226 25.04H131.546V25.4H132.266C134.114 25.4 134.786 25.712 134.786 26.6V40.4C134.786 42.08 134.666 45.92 134.666 45.92H135.146V25.76H136.586V48.32C136.586 49.016 136.274 49.64 132.986 49.64H130.106V50ZM134.93 16.88C134.93 17.408 135.386 17.84 135.89 17.84C136.418 17.84 136.85 17.384 136.85 16.88C136.85 16.352 136.394 15.92 135.89 15.92C135.362 15.92 134.93 16.376 134.93 16.88ZM156.624 50.024L166.632 25.64H168.624L161.04 44.048C160.272 45.824 158.328 50 158.328 50H158.976L168.384 27.176C168.912 25.904 169.8 25.4 171.48 25.4H171.744V25.04H160.272V25.4H162.192C164.76 25.4 165.792 25.496 165.792 26.264C165.792 26.48 165.696 26.744 165.576 27.032L156.816 48.32C156.6 48.848 156.528 49.04 156.36 49.04C156.192 49.04 156.12 48.848 155.904 48.344L147.432 28.496C146.28 25.832 145.872 24.92 143.76 24.92C143.304 24.92 142.128 24.968 142.128 25.592C142.128 25.904 142.296 26.048 142.584 26.048C142.632 26.048 142.704 26.024 142.752 26C143.184 25.856 143.544 25.808 143.88 25.808C145.44 25.808 145.776 26.168 146.856 28.64L155.544 49.088C155.688 49.448 156.144 50.048 156.624 50.024ZM172.528 50H184.048V49.64H183.208C179.92 49.64 179.608 49.016 179.608 48.32V24.968C178.384 24.992 175.648 25.04 175.648 25.04H173.968V25.4H174.688C176.536 25.4 177.208 25.712 177.208 26.6V40.4C177.208 42.08 177.088 45.92 177.088 45.92H177.568V25.76H179.008V48.32C179.008 49.016 178.696 49.64 175.408 49.64H172.528V50ZM177.352 16.88C177.352 17.408 177.808 17.84 178.312 17.84C178.84 17.84 179.272 17.384 179.272 16.88C179.272 16.352 178.816 15.92 178.312 15.92C177.784 15.92 177.352 16.376 177.352 16.88ZM204.994 25.52H192.058V39.2C192.058 44.144 193.258 47.816 195.25 49.304C192.394 48.272 190.594 45.056 190.594 40.64V18.32H190.114V22.568C190.114 25.112 189.802 25.52 187.714 25.52H185.554V26H189.13C189.778 26 189.994 26.312 189.994 26.84V40.64C189.994 46.328 192.922 50.12 197.338 50.12C199.618 50.12 202.138 49.136 203.506 46.952L203.122 46.712C201.85 48.728 199.498 49.64 197.338 49.64C194.386 49.64 192.418 45.464 192.418 39.2V26.84C192.418 26.312 192.634 26 193.282 26H204.994V25.52ZM231.96 49.28L229.392 49.52C228.72 49.496 228.264 48.656 227.928 46.64L227.544 44.36V32.696C227.544 28.04 224.088 24.92 218.928 24.92C213.624 24.92 209.064 27.272 209.064 30.176C209.064 30.488 209.256 30.68 209.568 30.68C209.88 30.68 210.072 30.488 210.072 30.176C210.072 27.536 214.2 25.4 219 25.4C223.752 25.4 226.944 28.328 226.944 32.696V44.384C226.944 44.576 227.208 45.992 227.328 46.736C227.64 48.68 228.192 50.12 229.368 50.12H229.392L232.008 49.76L231.96 49.28ZM224.904 34.712V39.32C224.904 44.36 220.584 49.616 214.896 49.616C210.336 49.616 207.12 47.24 207.12 44.144C207.12 40.496 210.936 38.288 215.568 37.808C218.088 37.544 223.128 37.256 224.904 34.712ZM224.904 30.728V32.528C224.904 32.888 224.808 33.416 224.712 33.704C223.752 36.488 218.424 36.944 215.52 37.232C210.792 37.712 206.544 40.016 206.544 44.144C206.544 47.72 210.192 50.144 214.896 50.144C220.968 50.144 225.264 44.624 225.264 39.32V31.136L224.904 30.728Z" fill="#F55449"/>
<path d="M4.56 50V50.5H5.05029L5.0599 50.0098L4.56 50ZM4.68 42.584L5.18 42.5888V42.584H4.68ZM4.68 29.096L4.37746 28.6979L4.18 28.848V29.096H4.68ZM6.72 30.92L7.21876 30.9551L7.26482 30.3011L6.62194 30.4297L6.72 30.92ZM6.12 31.04L6.02194 30.5497L5.62 30.6301V31.04H6.12ZM4.68 28.496H4.18V29.4831L4.97582 28.8991L4.68 28.496ZM4.68 13.448H5.18V12.9363L4.66846 12.9481L4.68 13.448ZM1.56 13.52V14.0201L1.57154 14.0199L1.56 13.52ZM0.72 13.52V13.02H0.22V13.52H0.72ZM0.72 13.88H0.22V14.38H0.72V13.88ZM4.08 50H3.58V50.5H4.08V50ZM5.0599 50.0098C5.1079 47.5622 5.15595 45.1117 5.17998 42.5888L4.18002 42.5792C4.15605 45.0963 4.1081 47.5418 4.0601 49.9902L5.0599 50.0098ZM5.18 42.584V29.096H4.18V42.584H5.18ZM4.98254 29.4941C7.91045 27.2689 11.6466 25.924 14.688 25.924V24.924C11.3934 24.924 7.44955 26.3631 4.37746 28.6979L4.98254 29.4941ZM14.688 25.924C19.8758 25.924 24.124 30.6526 24.124 37.52H25.124C25.124 30.2754 20.5882 24.924 14.688 24.924V25.924ZM24.124 37.52C24.124 44.3925 20.0155 49.116 14.688 49.116V50.116C20.7365 50.116 25.124 44.7595 25.124 37.52H24.124ZM14.688 49.116C10.4943 49.116 6.98 45.163 6.98 40.112H5.98C5.98 45.573 9.80969 50.116 14.688 50.116V49.116ZM6.98 40.112V36.248H5.98V40.112H6.98ZM6.98 36.248C6.98 35.3029 7.03928 33.9828 7.09925 32.8914C7.12914 32.3474 7.15904 31.863 7.18147 31.5146C7.19268 31.3405 7.20202 31.2004 7.20855 31.104C7.21181 31.0557 7.21437 31.0184 7.21611 30.9932C7.21699 30.9806 7.21765 30.971 7.2181 30.9646C7.21832 30.9614 7.21849 30.959 7.2186 30.9574C7.21866 30.9566 7.2187 30.9561 7.21873 30.9557C7.21874 30.9555 7.21875 30.9553 7.21876 30.9552C7.21876 30.9552 7.21876 30.9552 7.21876 30.9551C7.21876 30.9551 7.21876 30.9551 6.72 30.92C6.22124 30.8849 6.22123 30.8849 6.22123 30.8849C6.22123 30.885 6.22123 30.885 6.22122 30.8851C6.22121 30.8852 6.2212 30.8854 6.22119 30.8856C6.22116 30.886 6.22111 30.8867 6.22105 30.8875C6.22093 30.8892 6.22076 30.8917 6.22052 30.895C6.22006 30.9016 6.21938 30.9114 6.21849 30.9243C6.21672 30.9499 6.21413 30.9877 6.21083 31.0364C6.20423 31.1338 6.19482 31.275 6.18353 31.4504C6.16096 31.801 6.13086 32.2886 6.10075 32.8366C6.04072 33.9292 5.98 35.2731 5.98 36.248H6.98ZM6.62194 30.4297L6.02194 30.5497L6.21806 31.5303L6.81806 31.4103L6.62194 30.4297ZM5.62 31.04V40.112H6.62V31.04H5.62ZM5.62 40.112C5.62 45.8562 9.58961 50.62 14.688 50.62V49.62C10.2824 49.62 6.62 45.4558 6.62 40.112H5.62ZM14.688 50.62C21.142 50.62 25.7 44.9785 25.7 37.52H24.7C24.7 44.6055 20.426 49.62 14.688 49.62V50.62ZM25.7 37.52C25.7 30.0567 20.9939 24.42 14.688 24.42V25.42C20.2861 25.42 24.7 30.4393 24.7 37.52H25.7ZM14.688 24.42C11.3221 24.42 7.42883 25.8585 4.38418 28.0929L4.97582 28.8991C7.88317 26.7655 11.5739 25.42 14.688 25.42V24.42ZM5.18 28.496V28.472H4.18V28.496H5.18ZM5.18 28.472V13.448H4.18V28.472H5.18ZM4.66846 12.9481L1.54846 13.0201L1.57154 14.0199L4.69154 13.9479L4.66846 12.9481ZM1.56 13.02H0.72V14.02H1.56V13.02ZM0.22 13.52V13.88H1.22V13.52H0.22ZM0.72 14.38H1.56V13.38H0.72V14.38ZM1.56 14.38C2.48217 14.38 3.01066 14.4623 3.29896 14.5989C3.4278 14.6599 3.48535 14.7214 3.51664 14.7739C3.54988 14.8296 3.58 14.9201 3.58 15.08H4.58C4.58 14.7959 4.52612 14.5144 4.37561 14.2619C4.22315 14.0061 3.9972 13.8231 3.72704 13.6951C3.21734 13.4537 2.48583 13.38 1.56 13.38V14.38ZM3.58 15.08V50H4.58V15.08H3.58ZM4.08 50.5H4.56V49.5H4.08V50.5ZM31.5075 36.8L31.0077 36.7848L30.9921 37.3H31.5075V36.8ZM50.9715 34.448L50.479 34.5341L50.4809 34.5453L50.4834 34.5565L50.9715 34.448ZM31.1475 37.28H30.6475V37.78H31.1475V37.28ZM51.2355 44.336L51.6715 44.5807L51.9173 44.1428L51.4783 43.8989L51.2355 44.336ZM50.8035 44.096L51.0463 43.6589L50.612 43.4176L50.368 43.8504L50.8035 44.096ZM37.0035 25.928L37.2382 26.3695L36.8514 25.4517L37.0035 25.928ZM49.9635 36.3H31.5075V37.3H49.9635V36.3ZM32.0073 36.8152C32.1003 33.756 33.1066 31.0114 34.6546 29.042C36.2022 27.073 38.2699 25.9 40.5075 25.9V24.9C37.8971 24.9 35.5608 26.271 33.8684 28.424C32.1764 30.5766 31.1067 33.532 31.0077 36.7848L32.0073 36.8152ZM40.5075 25.9C43.2506 25.9 45.5113 26.7851 47.1976 28.29C48.8869 29.7976 50.0275 31.9524 50.479 34.5341L51.464 34.3619C50.9795 31.5916 49.7441 29.2224 47.8634 27.544C45.9797 25.8629 43.4764 24.9 40.5075 24.9V25.9ZM50.4834 34.5565C50.5221 34.7308 50.5435 34.9337 50.5435 35.168H51.5435C51.5435 34.8743 51.5169 34.5972 51.4596 34.3395L50.4834 34.5565ZM50.5435 35.168C50.5435 35.528 50.4867 35.8409 50.3774 36.0455C50.2863 36.2162 50.1727 36.3 49.9635 36.3V37.3C50.5943 37.3 51.0207 36.9638 51.2596 36.5165C51.4803 36.1031 51.5435 35.6 51.5435 35.168H50.5435ZM31.1475 37.78H51.5475V36.78H31.1475V37.78ZM51.5475 37.78C51.7054 37.78 51.8779 37.7255 52.0188 37.6111C52.1752 37.4839 52.2875 37.2851 52.2875 37.04H51.2875C51.2875 37.0084 51.2948 36.9683 51.3152 36.927C51.3351 36.8867 51.362 36.8563 51.3882 36.8349C51.4331 36.7985 51.4856 36.78 51.5475 36.78V37.78ZM52.2875 37.04C52.2875 33.4551 51.1494 30.2993 49.0916 28.0338C47.0295 25.7636 44.0724 24.42 40.5075 24.42V25.42C43.8066 25.42 46.4895 26.6563 48.3514 28.7062C50.2176 30.7607 51.2875 33.6649 51.2875 37.04H52.2875ZM40.5075 24.42C33.435 24.42 28.2475 29.8811 28.2475 37.52H29.2475C29.2475 30.3749 34.044 25.42 40.5075 25.42V24.42ZM28.2475 37.52C28.2475 44.9729 33.2023 50.62 40.2675 50.62V49.62C33.8447 49.62 29.2475 44.5151 29.2475 37.52H28.2475ZM40.2675 50.62C46.006 50.62 49.7061 48.0832 51.6715 44.5807L50.7995 44.0913C49.0209 47.2608 45.665 49.62 40.2675 49.62V50.62ZM51.4783 43.8989L51.0463 43.6589L50.5607 44.5331L50.9927 44.7731L51.4783 43.8989ZM50.368 43.8504C48.6605 46.8783 45.5192 49.14 40.2675 49.14V50.14C45.8638 50.14 49.3465 47.6977 51.239 44.3416L50.368 43.8504ZM40.2675 49.14C34.1628 49.14 29.8475 44.3059 29.8475 37.52H28.8475C28.8475 44.7501 33.5082 50.14 40.2675 50.14V49.14ZM29.8475 37.52C29.8475 31.9211 32.8082 27.7927 37.1556 26.4043L36.8514 25.4517C32.0308 26.9913 28.8475 31.5509 28.8475 37.52H29.8475ZM36.7688 25.4865C33.1363 27.4171 30.6475 32.0055 30.6475 37.28H31.6475C31.6475 32.2825 34.0067 28.0869 37.2382 26.3695L36.7688 25.4865ZM80.3197 49.28L80.8173 49.2302L80.7678 48.7359L80.2732 48.7822L80.3197 49.28ZM77.7518 49.52L77.7339 50.0197L77.7662 50.0208L77.7983 50.0178L77.7518 49.52ZM76.2878 46.64L76.7809 46.5578L76.7808 46.557L76.2878 46.64ZM75.9037 44.36H75.4037V44.4018L75.4107 44.443L75.9037 44.36ZM75.6878 46.736L76.1814 46.6568L76.1814 46.6564L75.6878 46.736ZM77.7518 50.12V50.62H77.786L77.8199 50.6153L77.7518 50.12ZM80.3678 49.76L80.4359 50.2553L80.9132 50.1896L80.8653 49.7102L80.3678 49.76ZM73.2637 34.712H73.7637V33.1223L72.8538 34.4258L73.2637 34.712ZM63.9277 37.808L63.9793 38.3053L63.9798 38.3053L63.9277 37.808ZM73.2637 30.728L73.6387 30.3972L72.7637 29.4056V30.728H73.2637ZM73.0717 33.704L73.5445 33.867L73.5461 33.8621L73.0717 33.704ZM63.8797 37.232L63.8304 36.7344L63.8293 36.7346L63.8797 37.232ZM73.6237 31.136H74.1237V30.9469L73.9987 30.8052L73.6237 31.136ZM80.2732 48.7822L77.7052 49.0222L77.7983 50.0178L80.3663 49.7778L80.2732 48.7822ZM77.7696 49.0203C77.6897 49.0175 77.537 48.983 77.3381 48.5977C77.135 48.2043 76.9469 47.5535 76.7809 46.5578L75.7946 46.7222C75.9646 47.7425 76.1725 48.5197 76.4494 49.0563C76.7305 49.601 77.1418 49.9985 77.7339 50.0197L77.7696 49.0203ZM76.7808 46.557L76.3968 44.277L75.4107 44.443L75.7947 46.723L76.7808 46.557ZM76.4037 44.36V32.696H75.4037V44.36H76.4037ZM76.4037 32.696C76.4037 30.2373 75.4876 28.1546 73.8658 26.6908C72.2485 25.2311 69.9675 24.42 67.2878 24.42V25.42C69.768 25.42 71.795 26.1689 73.1957 27.4332C74.5919 28.6934 75.4037 30.4987 75.4037 32.696H76.4037ZM67.2878 24.42C64.5686 24.42 62.02 25.0217 60.1335 26.0167C58.2729 26.9981 56.9238 28.4431 56.9238 30.176H57.9238C57.9238 29.0049 58.8546 27.8219 60.6 26.9013C62.3195 25.9943 64.7029 25.42 67.2878 25.42V24.42ZM56.9238 30.176C56.9238 30.4355 57.0057 30.699 57.2052 30.8986C57.4047 31.0981 57.6683 31.18 57.9277 31.18V30.18C57.9007 30.18 57.8899 30.1758 57.8908 30.1761C57.8912 30.1763 57.894 30.1774 57.8983 30.1801C57.9026 30.1828 57.9075 30.1866 57.9123 30.1914C57.9171 30.1963 57.9209 30.2012 57.9236 30.2055C57.9263 30.2098 57.9274 30.2126 57.9276 30.213C57.9279 30.2138 57.9238 30.203 57.9238 30.176H56.9238ZM57.9277 31.18C58.1872 31.18 58.4508 31.0981 58.6503 30.8986C58.8498 30.699 58.9318 30.4355 58.9318 30.176H57.9318C57.9318 30.203 57.9276 30.2138 57.9279 30.213C57.9281 30.2126 57.9291 30.2098 57.9319 30.2055C57.9346 30.2012 57.9384 30.1963 57.9432 30.1914C57.948 30.1866 57.9529 30.1828 57.9572 30.1801C57.9615 30.1774 57.9643 30.1763 57.9647 30.1761C57.9656 30.1758 57.9548 30.18 57.9277 30.18V31.18ZM58.9318 30.176C58.9318 29.1359 59.756 28.073 61.3297 27.2399C62.878 26.4202 65.0271 25.9 67.3597 25.9V24.9C64.8924 24.9 62.5774 25.4478 60.8618 26.3561C59.1715 27.251 57.9318 28.5761 57.9318 30.176H58.9318ZM67.3597 25.9C69.6335 25.9 71.4915 26.5994 72.7756 27.7783C74.0559 28.9538 74.8037 30.64 74.8037 32.696H75.8037C75.8037 30.384 74.9556 28.4222 73.4519 27.0417C71.952 25.6646 69.838 24.9 67.3597 24.9V25.9ZM74.8037 32.696V44.384H75.8037V32.696H74.8037ZM74.8037 44.384C74.8037 44.4802 74.8289 44.6511 74.8528 44.8046C74.8801 44.9803 74.9174 45.2019 74.958 45.4377C75.0398 45.9138 75.1347 46.447 75.1941 46.8156L76.1814 46.6564C76.1208 46.281 76.0237 45.7342 75.9435 45.2683C75.9031 45.0331 75.8669 44.8182 75.841 44.6511C75.8116 44.4619 75.8037 44.3838 75.8037 44.384H74.8037ZM75.1941 46.8152C75.3522 47.8006 75.5784 48.7146 75.9433 49.3937C76.3141 50.0837 76.8837 50.62 77.7278 50.62V49.62C77.3958 49.62 77.1014 49.4363 76.8242 48.9203C76.5411 48.3934 76.3353 47.6154 76.1814 46.6568L75.1941 46.8152ZM77.7278 50.62H77.7518V49.62H77.7278V50.62ZM77.8199 50.6153L80.4359 50.2553L80.2996 49.2647L77.6836 49.6247L77.8199 50.6153ZM80.8653 49.7102L80.8173 49.2302L79.8222 49.3298L79.8702 49.8097L80.8653 49.7102ZM72.7637 34.712V39.32H73.7637V34.712H72.7637ZM72.7637 39.32C72.7637 44.1232 68.6298 49.116 63.2557 49.116V50.116C69.2577 50.116 73.7637 44.5968 73.7637 39.32H72.7637ZM63.2557 49.116C61.058 49.116 59.2212 48.5429 57.9483 47.6341C56.6804 46.7288 55.9798 45.5017 55.9798 44.144H54.9798C54.9798 45.8823 55.8871 47.3912 57.3672 48.4479C58.8423 49.5011 60.8935 50.116 63.2557 50.116V49.116ZM55.9798 44.144C55.9798 42.5212 56.8195 41.1966 58.2526 40.1983C59.696 39.1927 61.7192 38.5395 63.9793 38.3053L63.8762 37.3107C61.5043 37.5565 59.3035 38.2473 57.6809 39.3777C56.048 40.5154 54.9798 42.1188 54.9798 44.144H55.9798ZM63.9798 38.3053C65.2183 38.1755 67.1525 38.0341 68.9893 37.6017C70.8061 37.174 72.6729 36.4318 73.6737 34.9982L72.8538 34.4258C72.0786 35.5362 70.5374 36.2099 68.7602 36.6283C67.003 37.0419 65.1572 37.1765 63.8757 37.3107L63.9798 38.3053ZM72.7637 30.728V32.528H73.7637V30.728H72.7637ZM72.7637 32.528C72.7637 32.8299 72.6778 33.3046 72.5974 33.5459L73.5461 33.8621C73.6577 33.5274 73.7637 32.9461 73.7637 32.528H72.7637ZM72.5991 33.541C72.4065 34.0995 71.9862 34.57 71.3678 34.9691C70.7471 35.3697 69.9539 35.68 69.0724 35.9218C67.3065 36.4064 65.2942 36.5893 63.8304 36.7344L63.9291 37.7296C65.3693 37.5867 67.473 37.3976 69.3371 36.8862C70.2706 36.63 71.1709 36.2863 71.91 35.8094C72.6513 35.331 73.257 34.7005 73.5444 33.867L72.5991 33.541ZM63.8293 36.7346C61.409 36.9803 59.0758 37.6951 57.3329 38.9098C55.578 40.1328 54.4038 41.8808 54.4038 44.144H55.4038C55.4038 42.2792 56.3535 40.8112 57.9046 39.7302C59.4677 38.6409 61.6225 37.9637 63.9303 37.7294L63.8293 36.7346ZM54.4038 44.144C54.4038 46.1224 55.4193 47.7646 57.0285 48.8942C58.6295 50.0182 60.8237 50.644 63.2557 50.644V49.644C60.9838 49.644 59.002 49.0578 57.603 48.0758C56.2122 47.0994 55.4038 45.7416 55.4038 44.144H54.4038ZM63.2557 50.644C69.6535 50.644 74.1237 44.8478 74.1237 39.32H73.1237C73.1237 44.4002 69.002 49.644 63.2557 49.644V50.644ZM74.1237 39.32V31.136H73.1237V39.32H74.1237ZM73.9987 30.8052L73.6387 30.3972L72.8888 31.0588L73.2488 31.4668L73.9987 30.8052ZM81.075 25.04V24.54H80.575V25.04H81.075ZM81.075 25.4H80.575V25.9H81.075V25.4ZM102.315 25.64V25.14H101.815V25.64H102.315ZM103.755 25.64H104.255V25.14H103.755V25.64ZM103.755 44.048H103.255V44.0702L103.257 44.0924L103.755 44.048ZM103.971 46.472L104.469 46.4321L104.469 46.4276L103.971 46.472ZM106.203 50.12V50.62H106.244L106.284 50.6133L106.203 50.12ZM108.531 49.736L108.612 50.2293L109.123 50.1452L109.021 49.6379L108.531 49.736ZM108.435 49.256L108.925 49.1579L108.83 48.6832L108.353 48.7628L108.435 49.256ZM106.131 49.64L106.114 50.1397L106.164 50.1414L106.213 50.1332L106.131 49.64ZM104.571 46.424L105.069 46.3841L105.069 46.3792L104.571 46.424ZM104.355 44.024H103.855V44.0465L103.857 44.0688L104.355 44.024ZM104.355 25.04H104.855V24.54H104.355V25.04ZM96.915 25.04V24.54H96.415V25.04H96.915ZM96.915 25.4H96.415V25.9H96.915V25.4ZM84.795 24.968H85.295V24.4563L84.7835 24.4681L84.795 24.968ZM81.675 25.04V25.5401L81.6865 25.5399L81.675 25.04ZM80.575 25.04V25.4H81.575V25.04H80.575ZM81.075 25.9H81.675V24.9H81.075V25.9ZM81.675 25.9C82.5972 25.9 83.1257 25.9823 83.414 26.1189C83.5428 26.1799 83.6003 26.2414 83.6316 26.2939C83.6649 26.3496 83.695 26.4401 83.695 26.6H84.695C84.695 26.3159 84.6411 26.0344 84.4906 25.7819C84.3382 25.5261 84.1122 25.3431 83.842 25.2151C83.3323 24.9737 82.6008 24.9 81.675 24.9V25.9ZM83.695 26.6V43.4H84.695V26.6H83.695ZM83.695 43.4C83.695 45.6843 84.3758 47.5157 85.7616 48.7689C87.139 50.0144 89.1373 50.62 91.635 50.62V49.62C89.2847 49.62 87.563 49.0496 86.4324 48.0271C85.3102 47.0123 84.695 45.4837 84.695 43.4H83.695ZM91.635 50.62C98.0536 50.62 102.815 44.3631 102.815 37.088H101.815C101.815 44.0209 97.3124 49.62 91.635 49.62V50.62ZM102.815 37.088V25.64H101.815V37.088H102.815ZM102.315 26.14H103.755V25.14H102.315V26.14ZM103.255 25.64V44.048H104.255V25.64H103.255ZM103.257 44.0924L103.473 46.5164L104.469 46.4276L104.253 44.0036L103.257 44.0924ZM103.473 46.5119C103.549 47.462 103.796 48.4458 104.209 49.2091C104.612 49.9536 105.254 50.62 106.155 50.62V49.62C105.808 49.62 105.43 49.3624 105.089 48.7329C104.758 48.1222 104.537 47.282 104.469 46.4321L103.473 46.5119ZM106.155 50.62H106.203V49.62H106.155V50.62ZM106.284 50.6133L108.612 50.2293L108.45 49.2427L106.122 49.6267L106.284 50.6133ZM109.021 49.6379L108.925 49.1579L107.945 49.3541L108.041 49.8341L109.021 49.6379ZM108.353 48.7628L106.049 49.1468L106.213 50.1332L108.517 49.7492L108.353 48.7628ZM106.148 49.1403C106.132 49.1397 106.065 49.1297 105.95 49.0198C105.837 48.9109 105.709 48.7328 105.584 48.4781C105.336 47.9705 105.138 47.2364 105.069 46.3841L104.073 46.4639C104.148 47.4116 104.37 48.2735 104.686 48.9179C104.843 49.2392 105.033 49.5261 105.257 49.7412C105.48 49.9553 105.77 50.1283 106.114 50.1397L106.148 49.1403ZM105.069 46.3792L104.853 43.9792L103.857 44.0688L104.073 46.4688L105.069 46.3792ZM104.855 44.024V25.04H103.855V44.024H104.855ZM104.355 24.54H96.915V25.54H104.355V24.54ZM96.415 25.04V25.4H97.415V25.04H96.415ZM96.915 25.9H98.355V24.9H96.915V25.9ZM98.355 25.9C99.9955 25.9 100.79 26.0603 101.165 26.2468C101.335 26.3308 101.388 26.4055 101.41 26.4493C101.438 26.5022 101.455 26.5785 101.455 26.72H102.455C102.455 26.5135 102.433 26.2508 102.299 25.991C102.161 25.722 101.93 25.5102 101.611 25.3512C101.008 25.0517 100.002 24.9 98.355 24.9V25.9ZM101.455 26.72V37.088H102.455V26.72H101.455ZM101.455 37.088C101.455 43.8611 96.9174 49.068 91.635 49.068V50.068C97.6326 50.068 102.455 44.2349 102.455 37.088H101.455ZM91.635 49.068C89.4776 49.068 87.9068 48.54 86.8783 47.5999C85.8574 46.6667 85.295 45.2576 85.295 43.328H84.295C84.295 45.4544 84.9206 47.1653 86.2037 48.3381C87.4792 49.504 89.3284 50.068 91.635 50.068V49.068ZM85.295 43.328V24.968H84.295V43.328H85.295ZM84.7835 24.4681L81.6635 24.5401L81.6865 25.5399L84.8065 25.4679L84.7835 24.4681ZM81.675 24.54H81.075V25.54H81.675V24.54ZM127.704 25.52H128.204V25.02H127.704V25.52ZM116.448 25.52V25.02H115.948V25.52H116.448ZM119.64 49.304L119.47 49.7742L119.94 48.9034L119.64 49.304ZM114.984 18.32H115.484V17.82H114.984V18.32ZM114.504 18.32V17.82H114.004V18.32H114.504ZM109.944 25.52V25.02H109.444V25.52H109.944ZM109.944 26H109.444V26.5H109.944V26ZM127.896 46.952L128.32 47.2174L128.586 46.7933L128.161 46.528L127.896 46.952ZM127.512 46.712L127.777 46.288L127.355 46.0241L127.09 46.4452L127.512 46.712ZM127.704 26V26.5H128.204V26H127.704ZM127.704 25.02H116.448V26.02H127.704V25.02ZM115.948 25.52V39.2H116.948V25.52H115.948ZM115.948 39.2C115.948 41.7092 116.253 43.9168 116.821 45.6999C117.387 47.4758 118.23 48.8747 119.341 49.7046L119.94 48.9034C119.059 48.2453 118.306 47.0642 117.774 45.3961C117.244 43.7352 116.948 41.6348 116.948 39.2H115.948ZM119.81 48.8338C117.233 47.9023 115.484 44.9458 115.484 40.64H114.484C114.484 45.1662 116.336 48.6417 119.47 49.7742L119.81 48.8338ZM115.484 40.64V18.32H114.484V40.64H115.484ZM114.984 17.82H114.504V18.82H114.984V17.82ZM114.004 18.32V22.568H115.004V18.32H114.004ZM114.004 22.568C114.004 23.2003 113.985 23.67 113.929 24.0253C113.873 24.3813 113.789 24.5716 113.698 24.684C113.617 24.7849 113.492 24.8703 113.243 24.9305C112.981 24.9938 112.619 25.02 112.104 25.02V26.02C112.633 26.02 113.094 25.9952 113.478 25.9025C113.874 25.8067 114.219 25.6311 114.476 25.312C114.725 25.0044 114.849 24.6157 114.917 24.1797C114.985 23.743 115.004 23.2077 115.004 22.568H114.004ZM112.104 25.02H109.944V26.02H112.104V25.02ZM109.444 25.52V26H110.444V25.52H109.444ZM109.944 26.5H113.52V25.5H109.944V26.5ZM113.52 26.5C113.773 26.5 113.828 26.561 113.831 26.564C113.839 26.5732 113.884 26.6303 113.884 26.84H114.884C114.884 26.5217 114.821 26.1588 114.56 25.88C114.293 25.595 113.916 25.5 113.52 25.5V26.5ZM113.884 26.84V40.64H114.884V26.84H113.884ZM113.884 40.64C113.884 43.5647 114.637 46.0513 116.005 47.819C117.382 49.5977 119.362 50.62 121.728 50.62V49.62C119.678 49.62 117.987 48.7463 116.796 47.207C115.596 45.6567 114.884 43.4033 114.884 40.64H113.884ZM121.728 50.62C124.133 50.62 126.838 49.5839 128.32 47.2174L127.473 46.6866C126.219 48.6881 123.884 49.62 121.728 49.62V50.62ZM128.161 46.528L127.777 46.288L127.247 47.136L127.631 47.376L128.161 46.528ZM127.09 46.4452C125.933 48.2778 123.767 49.14 121.728 49.14V50.14C124.009 50.14 126.548 49.1782 127.935 46.9788L127.09 46.4452ZM121.728 49.14C120.531 49.14 119.436 48.3007 118.614 46.5559C117.795 44.8185 117.308 42.2888 117.308 39.2H116.308C116.308 42.3752 116.806 45.0655 117.709 46.9821C118.609 48.8913 119.974 50.14 121.728 50.14V49.14ZM117.308 39.2V26.84H116.308V39.2H117.308ZM117.308 26.84C117.308 26.6303 117.353 26.5732 117.362 26.564C117.365 26.561 117.42 26.5 117.672 26.5V25.5C117.277 25.5 116.9 25.595 116.633 25.88C116.371 26.1588 116.308 26.5217 116.308 26.84H117.308ZM117.672 26.5H127.704V25.5H117.672V26.5ZM128.204 26V25.52H127.204V26H128.204ZM130.106 50H129.606V50.5H130.106V50ZM141.626 50V50.5H142.126V50H141.626ZM141.626 49.64H142.126V49.14H141.626V49.64ZM137.186 24.968H137.686V24.4581L137.176 24.4681L137.186 24.968ZM133.226 25.04V25.5401L133.235 25.5399L133.226 25.04ZM131.546 25.04V24.54H131.046V25.04H131.546ZM131.546 25.4H131.046V25.9H131.546V25.4ZM134.666 45.92L134.166 45.9044L134.15 46.42H134.666V45.92ZM135.146 45.92V46.42H135.646V45.92H135.146ZM135.146 25.76V25.26H134.646V25.76H135.146ZM136.586 25.76H137.086V25.26H136.586V25.76ZM130.106 49.64V49.14H129.606V49.64H130.106ZM130.106 50.5H141.626V49.5H130.106V50.5ZM142.126 50V49.64H141.126V50H142.126ZM141.626 49.14H140.786V50.14H141.626V49.14ZM140.786 49.14C139.146 49.14 138.351 48.9797 137.976 48.7932C137.807 48.7092 137.753 48.6345 137.731 48.5907C137.703 48.5378 137.686 48.4615 137.686 48.32H136.686C136.686 48.5265 136.708 48.7892 136.842 49.049C136.981 49.318 137.211 49.5298 137.531 49.6888C138.134 49.9883 139.139 50.14 140.786 50.14V49.14ZM137.686 48.32V24.968H136.686V48.32H137.686ZM137.176 24.4681C136.565 24.4801 135.575 24.4981 134.738 24.5131C134.32 24.5206 133.94 24.5273 133.664 24.5322C133.526 24.5346 133.415 24.5366 133.337 24.538C133.299 24.5386 133.269 24.5392 133.248 24.5395C133.238 24.5397 133.231 24.5398 133.225 24.5399C133.223 24.54 133.221 24.54 133.219 24.54C133.219 24.5401 133.218 24.5401 133.218 24.5401C133.218 24.5401 133.218 24.5401 133.218 24.5401C133.218 24.5401 133.218 24.5401 133.218 24.5401C133.217 24.5401 133.217 24.5401 133.226 25.04C133.235 25.5399 133.235 25.5399 133.235 25.5399C133.235 25.5399 133.235 25.5399 133.235 25.5399C133.235 25.5399 133.235 25.5399 133.236 25.5399C133.236 25.5399 133.236 25.5399 133.237 25.5399C133.238 25.5399 133.24 25.5398 133.243 25.5398C133.248 25.5397 133.256 25.5396 133.266 25.5394C133.286 25.539 133.316 25.5385 133.355 25.5378C133.432 25.5365 133.544 25.5345 133.682 25.532C133.957 25.5272 134.338 25.5204 134.756 25.5129C135.593 25.4979 136.584 25.4799 137.196 25.4679L137.176 24.4681ZM133.226 24.54H131.546V25.54H133.226V24.54ZM131.046 25.04V25.4H132.046V25.04H131.046ZM131.546 25.9H132.266V24.9H131.546V25.9ZM132.266 25.9C133.188 25.9 133.717 25.9823 134.005 26.1189C134.134 26.1799 134.192 26.2414 134.223 26.2939C134.256 26.3496 134.286 26.4401 134.286 26.6H135.286C135.286 26.3159 135.232 26.0344 135.082 25.7819C134.929 25.5261 134.703 25.3431 134.433 25.2151C133.924 24.9737 133.192 24.9 132.266 24.9V25.9ZM134.286 26.6V40.4H135.286V26.6H134.286ZM134.286 40.4C134.286 41.2326 134.256 42.6065 134.226 43.7772C134.211 44.3615 134.196 44.8934 134.185 45.2792C134.18 45.4721 134.175 45.6285 134.172 45.7366C134.17 45.7906 134.169 45.8326 134.168 45.8611C134.167 45.8753 134.167 45.8861 134.167 45.8934C134.167 45.8971 134.167 45.8998 134.167 45.9016C134.167 45.9026 134.167 45.9033 134.167 45.9037C134.167 45.9039 134.167 45.9041 134.167 45.9042C134.167 45.9043 134.166 45.9043 134.166 45.9043C134.166 45.9044 134.166 45.9044 134.666 45.92C135.166 45.9356 135.166 45.9356 135.166 45.9356C135.166 45.9355 135.166 45.9355 135.166 45.9354C135.166 45.9353 135.166 45.9351 135.166 45.9349C135.166 45.9344 135.166 45.9337 135.166 45.9328C135.166 45.9309 135.166 45.9281 135.166 45.9244C135.167 45.9171 135.167 45.9062 135.167 45.8919C135.168 45.8632 135.17 45.8211 135.171 45.7669C135.174 45.6584 135.179 45.5016 135.185 45.3083C135.196 44.9216 135.211 44.3885 135.226 43.8028C135.256 42.6335 135.286 41.2474 135.286 40.4H134.286ZM134.666 46.42H135.146V45.42H134.666V46.42ZM135.646 45.92V25.76H134.646V45.92H135.646ZM135.146 26.26H136.586V25.26H135.146V26.26ZM136.086 25.76V48.32H137.086V25.76H136.086ZM136.086 48.32C136.086 48.4615 136.069 48.5378 136.042 48.5907C136.019 48.6345 135.966 48.7092 135.797 48.7932C135.422 48.9797 134.627 49.14 132.986 49.14V50.14C134.634 50.14 135.639 49.9883 136.242 49.6888C136.562 49.5298 136.792 49.318 136.931 49.049C137.064 48.7892 137.086 48.5265 137.086 48.32H136.086ZM132.986 49.14H130.106V50.14H132.986V49.14ZM129.606 49.64V50H130.606V49.64H129.606ZM134.43 16.88C134.43 17.6922 135.118 18.34 135.89 18.34V17.34C135.654 17.34 135.43 17.1238 135.43 16.88H134.43ZM135.89 18.34C136.702 18.34 137.35 17.652 137.35 16.88H136.35C136.35 17.1159 136.134 17.34 135.89 17.34V18.34ZM137.35 16.88C137.35 16.0678 136.662 15.42 135.89 15.42V16.42C136.126 16.42 136.35 16.6362 136.35 16.88H137.35ZM135.89 15.42C135.078 15.42 134.43 16.108 134.43 16.88H135.43C135.43 16.644 135.646 16.42 135.89 16.42V15.42ZM156.624 50.024L156.649 50.5234L156.966 50.5075L157.087 50.2138L156.624 50.024ZM166.632 25.64V25.14H166.297L166.17 25.4501L166.632 25.64ZM168.624 25.64L169.087 25.8305L169.371 25.14H168.624V25.64ZM161.04 44.048L161.499 44.2465L161.503 44.2385L161.04 44.048ZM158.328 50L157.875 49.789L157.544 50.5H158.328V50ZM158.976 50V50.5H159.311L159.439 50.1905L158.976 50ZM168.384 27.176L167.923 26.9843L167.922 26.9855L168.384 27.176ZM171.744 25.4V25.9H172.244V25.4H171.744ZM171.744 25.04H172.244V24.54H171.744V25.04ZM160.272 25.04V24.54H159.772V25.04H160.272ZM160.272 25.4H159.772V25.9H160.272V25.4ZM165.576 27.032L165.115 26.8397L165.114 26.8417L165.576 27.032ZM156.816 48.32L156.354 48.1297L156.354 48.1307L156.816 48.32ZM155.904 48.344L155.445 48.5403L155.445 48.541L155.904 48.344ZM147.432 28.496L147.892 28.2997L147.891 28.2975L147.432 28.496ZM142.752 26L142.594 25.5257L142.561 25.5369L142.529 25.5528L142.752 26ZM146.856 28.64L147.317 28.4445L147.315 28.4398L146.856 28.64ZM155.544 49.088L156.009 48.9023L156.005 48.8925L155.544 49.088ZM157.087 50.2138L167.095 25.8298L166.17 25.4501L156.162 49.8342L157.087 50.2138ZM166.632 26.14H168.624V25.14H166.632V26.14ZM168.162 25.4495L160.578 43.8575L161.503 44.2385L169.087 25.8305L168.162 25.4495ZM160.581 43.8495C160.2 44.7315 159.524 46.2145 158.942 47.4812C158.651 48.1136 158.385 48.6906 158.19 49.1096C158.093 49.319 158.015 49.4889 157.96 49.6064C157.933 49.6652 157.911 49.7109 157.897 49.7418C157.89 49.7573 157.884 49.7691 157.881 49.777C157.879 49.781 157.877 49.784 157.876 49.786C157.876 49.787 157.876 49.7877 157.875 49.7882C157.875 49.7885 157.875 49.7887 157.875 49.7888C157.875 49.7889 157.875 49.7889 157.875 49.7889C157.875 49.789 157.875 49.789 158.328 50C158.782 50.211 158.782 50.211 158.782 50.211C158.782 50.2109 158.782 50.2109 158.782 50.2108C158.782 50.2107 158.782 50.2105 158.782 50.2102C158.782 50.2097 158.783 50.209 158.783 50.2079C158.784 50.2059 158.785 50.2029 158.787 50.1989C158.791 50.1909 158.797 50.1791 158.804 50.1635C158.818 50.1324 158.84 50.0866 158.867 50.0277C158.922 49.91 159.001 49.7397 159.098 49.5299C159.292 49.1104 159.559 48.5324 159.851 47.8988C160.432 46.6335 161.113 45.1405 161.499 44.2465L160.581 43.8495ZM158.328 50.5H158.976V49.5H158.328V50.5ZM159.439 50.1905L168.847 27.3665L167.922 26.9855L158.514 49.8095L159.439 50.1905ZM168.846 27.3677C169.079 26.8064 169.37 26.4619 169.749 26.245C170.14 26.0209 170.683 25.9 171.48 25.9V24.9C170.598 24.9 169.857 25.0311 169.252 25.377C168.635 25.7301 168.218 26.2736 167.923 26.9843L168.846 27.3677ZM171.48 25.9H171.744V24.9H171.48V25.9ZM172.244 25.4V25.04H171.244V25.4H172.244ZM171.744 24.54H160.272V25.54H171.744V24.54ZM159.772 25.04V25.4H160.772V25.04H159.772ZM160.272 25.9H162.192V24.9H160.272V25.9ZM162.192 25.9C163.49 25.9 164.335 25.9261 164.854 26.0336C165.113 26.0873 165.224 26.1492 165.266 26.1851C165.281 26.1977 165.292 26.2031 165.292 26.264H166.292C166.292 25.9409 166.175 25.6463 165.916 25.4249C165.684 25.2268 165.377 25.1207 165.057 25.0544C164.418 24.9219 163.462 24.9 162.192 24.9V25.9ZM165.292 26.264C165.292 26.3644 165.241 26.5378 165.115 26.8397L166.038 27.2243C166.152 26.9502 166.292 26.5956 166.292 26.264H165.292ZM165.114 26.8417L156.354 48.1297L157.279 48.5103L166.039 27.2223L165.114 26.8417ZM156.354 48.1307C156.298 48.2658 156.256 48.3706 156.218 48.4574C156.18 48.5455 156.155 48.5969 156.138 48.6275C156.118 48.661 156.125 48.6381 156.165 48.6071C156.221 48.5639 156.293 48.54 156.36 48.54V49.54C156.512 49.54 156.656 49.4921 156.779 49.3964C156.886 49.3129 156.956 49.209 157.003 49.1285C157.091 48.9765 157.18 48.7525 157.279 48.5093L156.354 48.1307ZM156.36 48.54C156.427 48.54 156.498 48.5636 156.553 48.6053C156.592 48.6354 156.599 48.6577 156.58 48.6255C156.563 48.5959 156.538 48.5464 156.5 48.4612C156.462 48.3771 156.42 48.277 156.364 48.147L155.445 48.541C155.543 48.7707 155.633 48.9889 155.721 49.1365C155.767 49.2153 155.838 49.3171 155.944 49.3989C156.066 49.4924 156.209 49.54 156.36 49.54V48.54ZM156.364 48.1477L147.892 28.2997L146.973 28.6923L155.445 48.5403L156.364 48.1477ZM147.891 28.2975C147.33 26.9993 146.906 26.01 146.326 25.3727C145.69 24.6722 144.901 24.42 143.76 24.42V25.42C144.731 25.42 145.203 25.6238 145.586 26.0453C146.027 26.53 146.383 27.3286 146.973 28.6945L147.891 28.2975ZM143.76 24.42C143.525 24.42 143.064 24.4312 142.649 24.5377C142.443 24.5904 142.206 24.6769 142.01 24.8306C141.799 24.9967 141.628 25.2515 141.628 25.592H142.628C142.628 25.6205 142.605 25.6353 142.628 25.6169C142.667 25.5861 142.752 25.5436 142.898 25.5063C143.184 25.4328 143.54 25.42 143.76 25.42V24.42ZM141.628 25.592C141.628 25.8348 141.695 26.0988 141.902 26.2974C142.105 26.4926 142.363 26.548 142.584 26.548V25.548C142.553 25.548 142.542 25.5439 142.547 25.5453C142.553 25.5474 142.573 25.5557 142.595 25.5766C142.605 25.5865 142.614 25.5969 142.62 25.607C142.626 25.6168 142.629 25.6246 142.631 25.6285C142.633 25.6356 142.628 25.6263 142.628 25.592H141.628ZM142.584 26.548C142.746 26.548 142.9 26.4854 142.976 26.4472L142.529 25.5528C142.531 25.5516 142.531 25.5517 142.529 25.5525C142.527 25.5533 142.525 25.5539 142.525 25.5541C142.524 25.5544 142.527 25.5534 142.534 25.5521C142.537 25.5515 142.543 25.5505 142.551 25.5497C142.559 25.5489 142.57 25.548 142.584 25.548V26.548ZM142.91 26.4743C143.291 26.3475 143.597 26.308 143.88 26.308V25.308C143.491 25.308 143.078 25.3645 142.594 25.5257L142.91 26.4743ZM143.88 26.308C144.629 26.308 144.933 26.3985 145.201 26.657C145.53 26.9733 145.847 27.5778 146.398 28.8402L147.315 28.4398C146.786 27.2302 146.395 26.4187 145.895 25.937C145.336 25.3975 144.691 25.308 143.88 25.308V26.308ZM146.396 28.8355L155.084 49.2835L156.005 48.8925L147.317 28.4445L146.396 28.8355ZM155.08 49.2737C155.178 49.5177 155.366 49.8145 155.605 50.0536C155.832 50.2807 156.197 50.546 156.649 50.5234L156.599 49.5246C156.572 49.526 156.469 49.5033 156.312 49.3464C156.167 49.2015 156.055 49.0183 156.009 48.9023L155.08 49.2737ZM172.528 50H172.028V50.5H172.528V50ZM184.048 50V50.5H184.548V50H184.048ZM184.048 49.64H184.548V49.14H184.048V49.64ZM179.608 24.968H180.108V24.4581L179.598 24.4681L179.608 24.968ZM175.648 25.04V25.5401L175.657 25.5399L175.648 25.04ZM173.968 25.04V24.54H173.468V25.04H173.968ZM173.968 25.4H173.468V25.9H173.968V25.4ZM177.088 45.92L176.588 45.9044L176.572 46.42H177.088V45.92ZM177.568 45.92V46.42H178.068V45.92H177.568ZM177.568 25.76V25.26H177.068V25.76H177.568ZM179.008 25.76H179.508V25.26H179.008V25.76ZM172.528 49.64V49.14H172.028V49.64H172.528ZM172.528 50.5H184.048V49.5H172.528V50.5ZM184.548 50V49.64H183.548V50H184.548ZM184.048 49.14H183.208V50.14H184.048V49.14ZM183.208 49.14C181.568 49.14 180.773 48.9797 180.398 48.7932C180.229 48.7092 180.175 48.6345 180.153 48.5907C180.125 48.5378 180.108 48.4615 180.108 48.32H179.108C179.108 48.5265 179.13 48.7892 179.264 49.049C179.403 49.318 179.633 49.5298 179.953 49.6888C180.555 49.9883 181.561 50.14 183.208 50.14V49.14ZM180.108 48.32V24.968H179.108V48.32H180.108ZM179.598 24.4681C178.987 24.4801 177.997 24.4981 177.16 24.5131C176.742 24.5206 176.362 24.5273 176.086 24.5322C175.948 24.5346 175.836 24.5366 175.759 24.538C175.721 24.5386 175.691 24.5392 175.67 24.5395C175.66 24.5397 175.652 24.5398 175.647 24.5399C175.645 24.54 175.643 24.54 175.641 24.54C175.641 24.5401 175.64 24.5401 175.64 24.5401C175.64 24.5401 175.64 24.5401 175.639 24.5401C175.639 24.5401 175.639 24.5401 175.639 24.5401C175.639 24.5401 175.639 24.5401 175.648 25.04C175.657 25.5399 175.657 25.5399 175.657 25.5399C175.657 25.5399 175.657 25.5399 175.657 25.5399C175.657 25.5399 175.657 25.5399 175.657 25.5399C175.658 25.5399 175.658 25.5399 175.659 25.5399C175.66 25.5399 175.662 25.5398 175.665 25.5398C175.67 25.5397 175.678 25.5396 175.688 25.5394C175.708 25.539 175.738 25.5385 175.777 25.5378C175.854 25.5365 175.966 25.5345 176.104 25.532C176.379 25.5272 176.76 25.5204 177.178 25.5129C178.015 25.4979 179.005 25.4799 179.618 25.4679L179.598 24.4681ZM175.648 24.54H173.968V25.54H175.648V24.54ZM173.468 25.04V25.4H174.468V25.04H173.468ZM173.968 25.9H174.688V24.9H173.968V25.9ZM174.688 25.9C175.61 25.9 176.139 25.9823 176.427 26.1189C176.556 26.1799 176.613 26.2414 176.645 26.2939C176.678 26.3496 176.708 26.4401 176.708 26.6H177.708C177.708 26.3159 177.654 26.0344 177.504 25.7819C177.351 25.5261 177.125 25.3431 176.855 25.2151C176.345 24.9737 175.614 24.9 174.688 24.9V25.9ZM176.708 26.6V40.4H177.708V26.6H176.708ZM176.708 40.4C176.708 41.2326 176.678 42.6065 176.648 43.7772C176.633 44.3615 176.618 44.8934 176.607 45.2792C176.601 45.4721 176.597 45.6285 176.594 45.7366C176.592 45.7906 176.591 45.8326 176.59 45.8611C176.589 45.8753 176.589 45.8861 176.589 45.8934C176.589 45.8971 176.589 45.8998 176.588 45.9016C176.588 45.9026 176.588 45.9033 176.588 45.9037C176.588 45.9039 176.588 45.9041 176.588 45.9042C176.588 45.9043 176.588 45.9043 176.588 45.9043C176.588 45.9044 176.588 45.9044 177.088 45.92C177.588 45.9356 177.588 45.9356 177.588 45.9356C177.588 45.9355 177.588 45.9355 177.588 45.9354C177.588 45.9353 177.588 45.9351 177.588 45.9349C177.588 45.9344 177.588 45.9337 177.588 45.9328C177.588 45.9309 177.588 45.9281 177.588 45.9244C177.588 45.9171 177.589 45.9062 177.589 45.8919C177.59 45.8632 177.591 45.8211 177.593 45.7669C177.596 45.6584 177.601 45.5016 177.607 45.3083C177.618 44.9216 177.633 44.3885 177.648 43.8028C177.678 42.6335 177.708 41.2474 177.708 40.4H176.708ZM177.088 46.42H177.568V45.42H177.088V46.42ZM178.068 45.92V25.76H177.068V45.92H178.068ZM177.568 26.26H179.008V25.26H177.568V26.26ZM178.508 25.76V48.32H179.508V25.76H178.508ZM178.508 48.32C178.508 48.4615 178.491 48.5378 178.464 48.5907C178.441 48.6345 178.388 48.7092 178.219 48.7932C177.843 48.9797 177.049 49.14 175.408 49.14V50.14C177.056 50.14 178.061 49.9883 178.664 49.6888C178.984 49.5298 179.214 49.318 179.352 49.049C179.486 48.7892 179.508 48.5265 179.508 48.32H178.508ZM175.408 49.14H172.528V50.14H175.408V49.14ZM172.028 49.64V50H173.028V49.64H172.028ZM176.852 16.88C176.852 17.6922 177.54 18.34 178.312 18.34V17.34C178.076 17.34 177.852 17.1238 177.852 16.88H176.852ZM178.312 18.34C179.124 18.34 179.772 17.652 179.772 16.88H178.772C178.772 17.1159 178.556 17.34 178.312 17.34V18.34ZM179.772 16.88C179.772 16.0678 179.084 15.42 178.312 15.42V16.42C178.548 16.42 178.772 16.6362 178.772 16.88H179.772ZM178.312 15.42C177.5 15.42 176.852 16.108 176.852 16.88H177.852C177.852 16.644 178.068 16.42 178.312 16.42V15.42ZM204.994 25.52H205.494V25.02H204.994V25.52ZM192.058 25.52V25.02H191.558V25.52H192.058ZM195.25 49.304L195.08 49.7742L195.549 48.9034L195.25 49.304ZM190.594 18.32H191.094V17.82H190.594V18.32ZM190.114 18.32V17.82H189.614V18.32H190.114ZM185.554 25.52V25.02H185.054V25.52H185.554ZM185.554 26H185.054V26.5H185.554V26ZM203.506 46.952L203.929 47.2174L204.195 46.7933L203.771 46.528L203.506 46.952ZM203.122 46.712L203.387 46.288L202.965 46.0241L202.699 46.4452L203.122 46.712ZM204.994 26V26.5H205.494V26H204.994ZM204.994 25.02H192.058V26.02H204.994V25.02ZM191.558 25.52V39.2H192.558V25.52H191.558ZM191.558 39.2C191.558 41.7092 191.862 43.9168 192.43 45.6999C192.997 47.4758 193.84 48.8747 194.951 49.7046L195.549 48.9034C194.668 48.2453 193.915 47.0642 193.383 45.3961C192.854 43.7352 192.558 41.6348 192.558 39.2H191.558ZM195.42 48.8338C192.842 47.9023 191.094 44.9458 191.094 40.64H190.094C190.094 45.1662 191.946 48.6417 195.08 49.7742L195.42 48.8338ZM191.094 40.64V18.32H190.094V40.64H191.094ZM190.594 17.82H190.114V18.82H190.594V17.82ZM189.614 18.32V22.568H190.614V18.32H189.614ZM189.614 22.568C189.614 23.2003 189.594 23.67 189.538 24.0253C189.483 24.3813 189.398 24.5716 189.308 24.684C189.226 24.7849 189.101 24.8703 188.852 24.9305C188.59 24.9938 188.229 25.02 187.714 25.02V26.02C188.243 26.02 188.703 25.9952 189.087 25.9025C189.484 25.8067 189.828 25.6311 190.086 25.312C190.334 25.0044 190.458 24.6157 190.526 24.1797C190.595 23.743 190.614 23.2077 190.614 22.568H189.614ZM187.714 25.02H185.554V26.02H187.714V25.02ZM185.054 25.52V26H186.054V25.52H185.054ZM185.554 26.5H189.13V25.5H185.554V26.5ZM189.13 26.5C189.382 26.5 189.437 26.561 189.44 26.564C189.449 26.5732 189.494 26.6303 189.494 26.84H190.494C190.494 26.5217 190.431 26.1588 190.17 25.88C189.902 25.595 189.525 25.5 189.13 25.5V26.5ZM189.494 26.84V40.64H190.494V26.84H189.494ZM189.494 40.64C189.494 43.5647 190.246 46.0513 191.614 47.819C192.991 49.5977 194.972 50.62 197.338 50.62V49.62C195.288 49.62 193.597 48.7463 192.405 47.207C191.205 45.6567 190.494 43.4033 190.494 40.64H189.494ZM197.338 50.62C199.742 50.62 202.447 49.5839 203.929 47.2174L203.082 46.6866C201.828 48.6881 199.494 49.62 197.338 49.62V50.62ZM203.771 46.528L203.387 46.288L202.857 47.136L203.241 47.376L203.771 46.528ZM202.699 46.4452C201.543 48.2778 199.377 49.14 197.338 49.14V50.14C199.619 50.14 202.157 49.1782 203.545 46.9788L202.699 46.4452ZM197.338 49.14C196.14 49.14 195.045 48.3007 194.223 46.5559C193.404 44.8185 192.918 42.2888 192.918 39.2H191.918C191.918 42.3752 192.415 45.0655 193.318 46.9821C194.218 48.8913 195.583 50.14 197.338 50.14V49.14ZM192.918 39.2V26.84H191.918V39.2H192.918ZM192.918 26.84C192.918 26.6303 192.963 26.5732 192.972 26.564C192.974 26.561 193.029 26.5 193.282 26.5V25.5C192.886 25.5 192.509 25.595 192.242 25.88C191.981 26.1588 191.918 26.5217 191.918 26.84H192.918ZM193.282 26.5H204.994V25.5H193.282V26.5ZM205.494 26V25.52H204.494V26H205.494ZM231.96 49.28L232.458 49.2302L232.408 48.7359L231.914 48.7822L231.96 49.28ZM229.392 49.52L229.375 50.0197L229.407 50.0208L229.439 50.0178L229.392 49.52ZM227.928 46.64L228.422 46.5578L228.421 46.557L227.928 46.64ZM227.544 44.36H227.044V44.4018L227.051 44.443L227.544 44.36ZM227.328 46.736L227.822 46.6568L227.822 46.6564L227.328 46.736ZM229.392 50.12V50.62H229.427L229.461 50.6153L229.392 50.12ZM232.008 49.76L232.077 50.2553L232.554 50.1896L232.506 49.7102L232.008 49.76ZM224.904 34.712H225.404V33.1223L224.494 34.4258L224.904 34.712ZM215.568 37.808L215.62 38.3053L215.62 38.3053L215.568 37.808ZM224.904 30.728L225.279 30.3972L224.404 29.4056V30.728H224.904ZM224.712 33.704L225.185 33.867L225.187 33.8621L224.712 33.704ZM215.52 37.232L215.471 36.7344L215.47 36.7346L215.52 37.232ZM225.264 31.136H225.764V30.9469L225.639 30.8052L225.264 31.136ZM231.914 48.7822L229.346 49.0222L229.439 50.0178L232.007 49.7778L231.914 48.7822ZM229.41 49.0203C229.33 49.0175 229.178 48.983 228.979 48.5977C228.776 48.2043 228.588 47.5535 228.422 46.5578L227.435 46.7222C227.605 47.7425 227.813 48.5197 228.09 49.0563C228.371 49.601 228.782 49.9985 229.375 50.0197L229.41 49.0203ZM228.421 46.557L228.037 44.277L227.051 44.443L227.435 46.723L228.421 46.557ZM228.044 44.36V32.696H227.044V44.36H228.044ZM228.044 32.696C228.044 30.2373 227.128 28.1546 225.506 26.6908C223.889 25.2311 221.608 24.42 218.928 24.42V25.42C221.409 25.42 223.436 26.1689 224.836 27.4332C226.233 28.6934 227.044 30.4987 227.044 32.696H228.044ZM218.928 24.42C216.209 24.42 213.661 25.0217 211.774 26.0167C209.914 26.9981 208.564 28.4431 208.564 30.176H209.564C209.564 29.0049 210.495 27.8219 212.241 26.9013C213.96 25.9943 216.343 25.42 218.928 25.42V24.42ZM208.564 30.176C208.564 30.4355 208.646 30.699 208.846 30.8986C209.045 31.0981 209.309 31.18 209.568 31.18V30.18C209.541 30.18 209.531 30.1758 209.531 30.1761C209.532 30.1763 209.535 30.1774 209.539 30.1801C209.543 30.1828 209.548 30.1866 209.553 30.1914C209.558 30.1963 209.562 30.2012 209.564 30.2055C209.567 30.2098 209.568 30.2126 209.568 30.213C209.569 30.2138 209.564 30.203 209.564 30.176H208.564ZM209.568 31.18C209.828 31.18 210.091 31.0981 210.291 30.8986C210.49 30.699 210.572 30.4355 210.572 30.176H209.572C209.572 30.203 209.568 30.2138 209.569 30.213C209.569 30.2126 209.57 30.2098 209.572 30.2055C209.575 30.2012 209.579 30.1963 209.584 30.1914C209.589 30.1866 209.594 30.1828 209.598 30.1801C209.602 30.1774 209.605 30.1763 209.605 30.1761C209.606 30.1758 209.595 30.18 209.568 30.18V31.18ZM210.572 30.176C210.572 29.1359 211.397 28.073 212.97 27.2399C214.519 26.4202 216.668 25.9 219 25.9V24.9C216.533 24.9 214.218 25.4478 212.502 26.3561C210.812 27.251 209.572 28.5761 209.572 30.176H210.572ZM219 25.9C221.274 25.9 223.132 26.5994 224.416 27.7783C225.697 28.9538 226.444 30.64 226.444 32.696H227.444C227.444 30.384 226.596 28.4222 225.093 27.0417C223.593 25.6646 221.479 24.9 219 24.9V25.9ZM226.444 32.696V44.384H227.444V32.696H226.444ZM226.444 44.384C226.444 44.4802 226.47 44.6511 226.493 44.8046C226.521 44.9803 226.558 45.2019 226.599 45.4377C226.68 45.9138 226.775 46.447 226.835 46.8156L227.822 46.6564C227.761 46.281 227.664 45.7342 227.584 45.2683C227.544 45.0331 227.508 44.8182 227.482 44.6511C227.452 44.4619 227.444 44.3838 227.444 44.384H226.444ZM226.835 46.8152C226.993 47.8006 227.219 48.7146 227.584 49.3937C227.955 50.0837 228.524 50.62 229.368 50.62V49.62C229.036 49.62 228.742 49.4363 228.465 48.9203C228.182 48.3934 227.976 47.6154 227.822 46.6568L226.835 46.8152ZM229.368 50.62H229.392V49.62H229.368V50.62ZM229.461 50.6153L232.077 50.2553L231.94 49.2647L229.324 49.6247L229.461 50.6153ZM232.506 49.7102L232.458 49.2302L231.463 49.3298L231.511 49.8097L232.506 49.7102ZM224.404 34.712V39.32H225.404V34.712H224.404ZM224.404 39.32C224.404 44.1232 220.27 49.116 214.896 49.116V50.116C220.898 50.116 225.404 44.5968 225.404 39.32H224.404ZM214.896 49.116C212.699 49.116 210.862 48.5429 209.589 47.6341C208.321 46.7288 207.62 45.5017 207.62 44.144H206.62C206.62 45.8823 207.528 47.3912 209.008 48.4479C210.483 49.5011 212.534 50.116 214.896 50.116V49.116ZM207.62 44.144C207.62 42.5212 208.46 41.1966 209.893 40.1983C211.337 39.1927 213.36 38.5395 215.62 38.3053L215.517 37.3107C213.145 37.5565 210.944 38.2473 209.322 39.3777C207.689 40.5154 206.62 42.1188 206.62 44.144H207.62ZM215.62 38.3053C216.859 38.1755 218.793 38.0341 220.63 37.6017C222.447 37.174 224.314 36.4318 225.314 34.9982L224.494 34.4258C223.719 35.5362 222.178 36.2099 220.401 36.6283C218.644 37.0419 216.798 37.1765 215.516 37.3107L215.62 38.3053ZM224.404 30.728V32.528H225.404V30.728H224.404ZM224.404 32.528C224.404 32.8299 224.318 33.3046 224.238 33.5459L225.187 33.8621C225.298 33.5274 225.404 32.9461 225.404 32.528H224.404ZM224.24 33.541C224.047 34.0995 223.627 34.57 223.008 34.9691C222.388 35.3697 221.595 35.68 220.713 35.9218C218.947 36.4064 216.935 36.5893 215.471 36.7344L215.57 37.7296C217.01 37.5867 219.114 37.3976 220.978 36.8862C221.911 36.63 222.812 36.2863 223.551 35.8094C224.292 35.331 224.898 34.7005 225.185 33.867L224.24 33.541ZM215.47 36.7346C213.05 36.9803 210.716 37.6951 208.973 38.9098C207.219 40.1328 206.044 41.8808 206.044 44.144H207.044C207.044 42.2792 207.994 40.8112 209.545 39.7302C211.108 38.6409 213.263 37.9637 215.571 37.7294L215.47 36.7346ZM206.044 44.144C206.044 46.1224 207.06 47.7646 208.669 48.8942C210.27 50.0182 212.464 50.644 214.896 50.644V49.644C212.624 49.644 210.643 49.0578 209.244 48.0758C207.853 47.0994 207.044 45.7416 207.044 44.144H206.044ZM214.896 50.644C221.294 50.644 225.764 44.8478 225.764 39.32H224.764C224.764 44.4002 220.643 49.644 214.896 49.644V50.644ZM225.764 39.32V31.136H224.764V39.32H225.764ZM225.639 30.8052L225.279 30.3972L224.529 31.0588L224.889 31.4668L225.639 30.8052Z" fill="#F55449"/>
<line x1="3" y1="62.5" x2="230" y2="62.5" stroke="#F55449"/>
<line x1="50" y1="64.5" x2="183" y2="64.5" stroke="#F55449"/>
<path d="M34.88 78.804C35.174 79.2 35.495 79.479 35.843 79.641C36.197 79.803 36.584 79.884 37.004 79.884C37.862 79.884 38.519 79.581 38.975 78.975C39.431 78.369 39.659 77.466 39.659 76.266C39.659 75.15 39.455 74.331 39.047 73.809C38.645 73.281 38.069 73.017 37.319 73.017C36.797 73.017 36.341 73.137 35.951 73.377C35.567 73.617 35.21 73.956 34.88 74.394V78.804ZM34.88 73.197C35.264 72.753 35.696 72.399 36.176 72.135C36.662 71.871 37.22 71.739 37.85 71.739C38.384 71.739 38.864 71.841 39.29 72.045C39.722 72.249 40.088 72.546 40.388 72.936C40.688 73.32 40.916 73.788 41.072 74.34C41.234 74.892 41.315 75.513 41.315 76.203C41.315 76.941 41.225 77.613 41.045 78.219C40.865 78.825 40.604 79.344 40.262 79.776C39.926 80.202 39.515 80.535 39.029 80.775C38.543 81.009 37.997 81.126 37.391 81.126C36.791 81.126 36.284 81.015 35.87 80.793C35.462 80.565 35.105 80.244 34.799 79.83L34.718 80.658C34.67 80.886 34.532 81 34.304 81H33.269V67.743H34.88V73.197ZM49.4433 75.447C49.4433 75.075 49.3893 74.736 49.2813 74.43C49.1793 74.118 49.0263 73.851 48.8223 73.629C48.6243 73.401 48.3813 73.227 48.0933 73.107C47.8053 72.981 47.4783 72.918 47.1123 72.918C46.3443 72.918 45.7353 73.143 45.2853 73.593C44.8413 74.037 44.5653 74.655 44.4573 75.447H49.4433ZM50.7393 79.722C50.5413 79.962 50.3043 80.172 50.0283 80.352C49.7523 80.526 49.4553 80.67 49.1373 80.784C48.8253 80.898 48.5013 80.982 48.1653 81.036C47.8293 81.096 47.4963 81.126 47.1663 81.126C46.5363 81.126 45.9543 81.021 45.4203 80.811C44.8923 80.595 44.4333 80.283 44.0433 79.875C43.6593 79.461 43.3593 78.951 43.1433 78.345C42.9273 77.739 42.8193 77.043 42.8193 76.257C42.8193 75.621 42.9153 75.027 43.1073 74.475C43.3053 73.923 43.5873 73.446 43.9533 73.044C44.3193 72.636 44.7663 72.318 45.2943 72.09C45.8223 71.856 46.4163 71.739 47.0763 71.739C47.6223 71.739 48.1263 71.832 48.5883 72.018C49.0563 72.198 49.4583 72.462 49.7943 72.81C50.1363 73.152 50.4033 73.578 50.5953 74.088C50.7873 74.592 50.8833 75.168 50.8833 75.816C50.8833 76.068 50.8563 76.236 50.8023 76.32C50.7483 76.404 50.6463 76.446 50.4963 76.446H44.4033C44.4213 77.022 44.4993 77.523 44.6373 77.949C44.7813 78.375 44.9793 78.732 45.2313 79.02C45.4833 79.302 45.7833 79.515 46.1313 79.659C46.4793 79.797 46.8693 79.866 47.3013 79.866C47.7033 79.866 48.0483 79.821 48.3363 79.731C48.6303 79.635 48.8823 79.533 49.0923 79.425C49.3023 79.317 49.4763 79.218 49.6143 79.128C49.7583 79.032 49.8813 78.984 49.9833 78.984C50.1153 78.984 50.2173 79.035 50.2893 79.137L50.7393 79.722ZM57.792 76.896C57.054 76.92 56.424 76.98 55.902 77.076C55.386 77.166 54.963 77.286 54.633 77.436C54.309 77.586 54.072 77.763 53.922 77.967C53.778 78.171 53.706 78.399 53.706 78.651C53.706 78.891 53.745 79.098 53.823 79.272C53.901 79.446 54.006 79.59 54.138 79.704C54.276 79.812 54.435 79.893 54.615 79.947C54.801 79.995 54.999 80.019 55.209 80.019C55.491 80.019 55.749 79.992 55.983 79.938C56.217 79.878 56.436 79.794 56.64 79.686C56.85 79.578 57.048 79.449 57.234 79.299C57.426 79.149 57.612 78.978 57.792 78.786V76.896ZM52.617 73.17C53.121 72.684 53.664 72.321 54.246 72.081C54.828 71.841 55.473 71.721 56.181 71.721C56.691 71.721 57.144 71.805 57.54 71.973C57.936 72.141 58.269 72.375 58.539 72.675C58.809 72.975 59.013 73.338 59.151 73.764C59.289 74.19 59.358 74.658 59.358 75.168V81H58.647C58.491 81 58.371 80.976 58.287 80.928C58.203 80.874 58.137 80.772 58.089 80.622L57.909 79.758C57.669 79.98 57.435 80.178 57.207 80.352C56.979 80.52 56.739 80.664 56.487 80.784C56.235 80.898 55.965 80.985 55.677 81.045C55.395 81.111 55.08 81.144 54.732 81.144C54.378 81.144 54.045 81.096 53.733 81C53.421 80.898 53.148 80.748 52.914 80.55C52.686 80.352 52.503 80.103 52.365 79.803C52.233 79.497 52.167 79.137 52.167 78.723C52.167 78.363 52.266 78.018 52.464 77.688C52.662 77.352 52.983 77.055 53.427 76.797C53.871 76.539 54.45 76.329 55.164 76.167C55.878 75.999 56.754 75.903 57.792 75.879V75.168C57.792 74.46 57.639 73.926 57.333 73.566C57.027 73.2 56.58 73.017 55.992 73.017C55.596 73.017 55.263 73.068 54.993 73.17C54.729 73.266 54.498 73.377 54.3 73.503C54.108 73.623 53.94 73.734 53.796 73.836C53.658 73.932 53.52 73.98 53.382 73.98C53.274 73.98 53.181 73.953 53.103 73.899C53.025 73.839 52.959 73.767 52.905 73.683L52.617 73.17ZM69.2953 71.883V81H68.3413C68.1133 81 67.9693 80.889 67.9093 80.667L67.7833 79.686C67.3873 80.124 66.9433 80.478 66.4513 80.748C65.9593 81.012 65.3953 81.144 64.7593 81.144C64.2613 81.144 63.8203 81.063 63.4363 80.901C63.0583 80.733 62.7403 80.499 62.4823 80.199C62.2243 79.899 62.0293 79.536 61.8973 79.11C61.7713 78.684 61.7083 78.213 61.7083 77.697V71.883H63.3103V77.697C63.3103 78.387 63.4663 78.921 63.7783 79.299C64.0963 79.677 64.5793 79.866 65.2273 79.866C65.7013 79.866 66.1423 79.755 66.5503 79.533C66.9643 79.305 67.3453 78.993 67.6933 78.597V71.883H69.2953ZM74.6344 81.144C73.9144 81.144 73.3594 80.943 72.9694 80.541C72.5854 80.139 72.3934 79.56 72.3934 78.804V73.224H71.2954C71.1994 73.224 71.1184 73.197 71.0524 73.143C70.9864 73.083 70.9534 72.993 70.9534 72.873V72.234L72.4474 72.045L72.8164 69.228C72.8344 69.138 72.8734 69.066 72.9334 69.012C72.9994 68.952 73.0834 68.922 73.1854 68.922H73.9954V72.063H76.6324V73.224H73.9954V78.696C73.9954 79.08 74.0884 79.365 74.2744 79.551C74.4604 79.737 74.7004 79.83 74.9944 79.83C75.1624 79.83 75.3064 79.809 75.4264 79.767C75.5524 79.719 75.6604 79.668 75.7504 79.614C75.8404 79.56 75.9154 79.512 75.9754 79.47C76.0414 79.422 76.0984 79.398 76.1464 79.398C76.2304 79.398 76.3054 79.449 76.3714 79.551L76.8394 80.316C76.5634 80.574 76.2304 80.778 75.8404 80.928C75.4504 81.072 75.0484 81.144 74.6344 81.144ZM86.1526 71.883L81.0676 83.691C81.0136 83.811 80.9446 83.907 80.8606 83.979C80.7826 84.051 80.6596 84.087 80.4916 84.087H79.3036L80.9686 80.469L77.2066 71.883H78.5926C78.7306 71.883 78.8386 71.919 78.9166 71.991C79.0006 72.057 79.0576 72.132 79.0876 72.216L81.5266 77.958C81.6226 78.21 81.7036 78.474 81.7696 78.75C81.8536 78.468 81.9436 78.201 82.0396 77.949L84.4066 72.216C84.4426 72.12 84.5026 72.042 84.5866 71.982C84.6766 71.916 84.7756 71.883 84.8836 71.883H86.1526ZM97.0438 73.386C96.9718 73.518 96.8608 73.584 96.7108 73.584C96.6208 73.584 96.5188 73.551 96.4048 73.485C96.2908 73.419 96.1498 73.347 95.9818 73.269C95.8198 73.185 95.6248 73.11 95.3968 73.044C95.1688 72.972 94.8988 72.936 94.5868 72.936C94.3168 72.936 94.0738 72.972 93.8578 73.044C93.6418 73.11 93.4558 73.203 93.2998 73.323C93.1498 73.443 93.0328 73.584 92.9488 73.746C92.8708 73.902 92.8318 74.073 92.8318 74.259C92.8318 74.493 92.8978 74.688 93.0298 74.844C93.1678 75 93.3478 75.135 93.5698 75.249C93.7918 75.363 94.0438 75.465 94.3258 75.555C94.6078 75.639 94.8958 75.732 95.1898 75.834C95.4898 75.93 95.7808 76.038 96.0628 76.158C96.3448 76.278 96.5968 76.428 96.8188 76.608C97.0408 76.788 97.2178 77.01 97.3498 77.274C97.4878 77.532 97.5568 77.844 97.5568 78.21C97.5568 78.63 97.4818 79.02 97.3318 79.38C97.1818 79.734 96.9598 80.043 96.6658 80.307C96.3718 80.565 96.0118 80.769 95.5858 80.919C95.1598 81.069 94.6678 81.144 94.1098 81.144C93.4738 81.144 92.8978 81.042 92.3818 80.838C91.8658 80.628 91.4278 80.361 91.0678 80.037L91.4458 79.425C91.4938 79.347 91.5508 79.287 91.6168 79.245C91.6828 79.203 91.7668 79.182 91.8688 79.182C91.9768 79.182 92.0908 79.224 92.2108 79.308C92.3308 79.392 92.4748 79.485 92.6428 79.587C92.8168 79.689 93.0268 79.782 93.2728 79.866C93.5188 79.95 93.8248 79.992 94.1908 79.992C94.5028 79.992 94.7758 79.953 95.0098 79.875C95.2438 79.791 95.4388 79.68 95.5948 79.542C95.7508 79.404 95.8648 79.245 95.9368 79.065C96.0148 78.885 96.0538 78.693 96.0538 78.489C96.0538 78.237 95.9848 78.03 95.8468 77.868C95.7148 77.7 95.5378 77.559 95.3158 77.445C95.0938 77.325 94.8388 77.223 94.5508 77.139C94.2688 77.049 93.9778 76.956 93.6778 76.86C93.3838 76.764 93.0928 76.656 92.8048 76.536C92.5228 76.41 92.2708 76.254 92.0488 76.068C91.8268 75.882 91.6468 75.654 91.5088 75.384C91.3768 75.108 91.3108 74.775 91.3108 74.385C91.3108 74.037 91.3828 73.704 91.5268 73.386C91.6708 73.062 91.8808 72.78 92.1568 72.54C92.4328 72.294 92.7718 72.099 93.1738 71.955C93.5758 71.811 94.0348 71.739 94.5508 71.739C95.1508 71.739 95.6878 71.835 96.1618 72.027C96.6418 72.213 97.0558 72.471 97.4038 72.801L97.0438 73.386ZM104.462 76.896C103.724 76.92 103.094 76.98 102.572 77.076C102.056 77.166 101.633 77.286 101.303 77.436C100.979 77.586 100.742 77.763 100.592 77.967C100.448 78.171 100.376 78.399 100.376 78.651C100.376 78.891 100.415 79.098 100.493 79.272C100.571 79.446 100.676 79.59 100.808 79.704C100.946 79.812 101.105 79.893 101.285 79.947C101.471 79.995 101.669 80.019 101.879 80.019C102.161 80.019 102.419 79.992 102.653 79.938C102.887 79.878 103.106 79.794 103.31 79.686C103.52 79.578 103.718 79.449 103.904 79.299C104.096 79.149 104.282 78.978 104.462 78.786V76.896ZM99.287 73.17C99.791 72.684 100.334 72.321 100.916 72.081C101.498 71.841 102.143 71.721 102.851 71.721C103.361 71.721 103.814 71.805 104.21 71.973C104.606 72.141 104.939 72.375 105.209 72.675C105.479 72.975 105.683 73.338 105.821 73.764C105.959 74.19 106.028 74.658 106.028 75.168V81H105.317C105.161 81 105.041 80.976 104.957 80.928C104.873 80.874 104.807 80.772 104.759 80.622L104.579 79.758C104.339 79.98 104.105 80.178 103.877 80.352C103.649 80.52 103.409 80.664 103.157 80.784C102.905 80.898 102.635 80.985 102.347 81.045C102.065 81.111 101.75 81.144 101.402 81.144C101.048 81.144 100.715 81.096 100.403 81C100.091 80.898 99.818 80.748 99.584 80.55C99.356 80.352 99.173 80.103 99.035 79.803C98.903 79.497 98.837 79.137 98.837 78.723C98.837 78.363 98.936 78.018 99.134 77.688C99.332 77.352 99.653 77.055 100.097 76.797C100.541 76.539 101.12 76.329 101.834 76.167C102.548 75.999 103.424 75.903 104.462 75.879V75.168C104.462 74.46 104.309 73.926 104.003 73.566C103.697 73.2 103.25 73.017 102.662 73.017C102.266 73.017 101.933 73.068 101.663 73.17C101.399 73.266 101.168 73.377 100.97 73.503C100.778 73.623 100.61 73.734 100.466 73.836C100.328 73.932 100.19 73.98 100.052 73.98C99.944 73.98 99.851 73.953 99.773 73.899C99.695 73.839 99.629 73.767 99.575 73.683L99.287 73.17ZM110.124 67.743V81H108.522V67.743H110.124ZM116.565 71.739C117.231 71.739 117.831 71.85 118.365 72.072C118.899 72.294 119.355 72.609 119.733 73.017C120.111 73.425 120.399 73.92 120.597 74.502C120.801 75.078 120.903 75.723 120.903 76.437C120.903 77.157 120.801 77.805 120.597 78.381C120.399 78.957 120.111 79.449 119.733 79.857C119.355 80.265 118.899 80.58 118.365 80.802C117.831 81.018 117.231 81.126 116.565 81.126C115.893 81.126 115.287 81.018 114.747 80.802C114.213 80.58 113.757 80.265 113.379 79.857C113.001 79.449 112.71 78.957 112.506 78.381C112.308 77.805 112.209 77.157 112.209 76.437C112.209 75.723 112.308 75.078 112.506 74.502C112.71 73.92 113.001 73.425 113.379 73.017C113.757 72.609 114.213 72.294 114.747 72.072C115.287 71.85 115.893 71.739 116.565 71.739ZM116.565 79.875C117.465 79.875 118.137 79.575 118.581 78.975C119.025 78.369 119.247 77.526 119.247 76.446C119.247 75.36 119.025 74.514 118.581 73.908C118.137 73.302 117.465 72.999 116.565 72.999C116.109 72.999 115.71 73.077 115.368 73.233C115.032 73.389 114.75 73.614 114.522 73.908C114.3 74.202 114.132 74.565 114.018 74.997C113.91 75.423 113.856 75.906 113.856 76.446C113.856 77.526 114.078 78.369 114.522 78.975C114.972 79.575 115.653 79.875 116.565 79.875ZM124.447 73.206C124.645 72.984 124.855 72.783 125.077 72.603C125.299 72.423 125.533 72.27 125.779 72.144C126.031 72.012 126.295 71.913 126.571 71.847C126.853 71.775 127.156 71.739 127.48 71.739C127.978 71.739 128.416 71.823 128.794 71.991C129.178 72.153 129.496 72.387 129.748 72.693C130.006 72.993 130.201 73.356 130.333 73.782C130.465 74.208 130.531 74.679 130.531 75.195V81H128.92V75.195C128.92 74.505 128.761 73.971 128.443 73.593C128.131 73.209 127.654 73.017 127.012 73.017C126.538 73.017 126.094 73.131 125.68 73.359C125.272 73.587 124.894 73.896 124.546 74.286V81H122.935V71.883H123.898C124.126 71.883 124.267 71.994 124.321 72.216L124.447 73.206ZM142.519 76.896C141.781 76.92 141.151 76.98 140.629 77.076C140.113 77.166 139.69 77.286 139.36 77.436C139.036 77.586 138.799 77.763 138.649 77.967C138.505 78.171 138.433 78.399 138.433 78.651C138.433 78.891 138.472 79.098 138.55 79.272C138.628 79.446 138.733 79.59 138.865 79.704C139.003 79.812 139.162 79.893 139.342 79.947C139.528 79.995 139.726 80.019 139.936 80.019C140.218 80.019 140.476 79.992 140.71 79.938C140.944 79.878 141.163 79.794 141.367 79.686C141.577 79.578 141.775 79.449 141.961 79.299C142.153 79.149 142.339 78.978 142.519 78.786V76.896ZM137.344 73.17C137.848 72.684 138.391 72.321 138.973 72.081C139.555 71.841 140.2 71.721 140.908 71.721C141.418 71.721 141.871 71.805 142.267 71.973C142.663 72.141 142.996 72.375 143.266 72.675C143.536 72.975 143.74 73.338 143.878 73.764C144.016 74.19 144.085 74.658 144.085 75.168V81H143.374C143.218 81 143.098 80.976 143.014 80.928C142.93 80.874 142.864 80.772 142.816 80.622L142.636 79.758C142.396 79.98 142.162 80.178 141.934 80.352C141.706 80.52 141.466 80.664 141.214 80.784C140.962 80.898 140.692 80.985 140.404 81.045C140.122 81.111 139.807 81.144 139.459 81.144C139.105 81.144 138.772 81.096 138.46 81C138.148 80.898 137.875 80.748 137.641 80.55C137.413 80.352 137.23 80.103 137.092 79.803C136.96 79.497 136.894 79.137 136.894 78.723C136.894 78.363 136.993 78.018 137.191 77.688C137.389 77.352 137.71 77.055 138.154 76.797C138.598 76.539 139.177 76.329 139.891 76.167C140.605 75.999 141.481 75.903 142.519 75.879V75.168C142.519 74.46 142.366 73.926 142.06 73.566C141.754 73.2 141.307 73.017 140.719 73.017C140.323 73.017 139.99 73.068 139.72 73.17C139.456 73.266 139.225 73.377 139.027 73.503C138.835 73.623 138.667 73.734 138.523 73.836C138.385 73.932 138.247 73.98 138.109 73.98C138.001 73.98 137.908 73.953 137.83 73.899C137.752 73.839 137.686 73.767 137.632 73.683L137.344 73.17ZM149.201 81.144C148.481 81.144 147.926 80.943 147.536 80.541C147.152 80.139 146.96 79.56 146.96 78.804V73.224H145.862C145.766 73.224 145.685 73.197 145.619 73.143C145.553 73.083 145.52 72.993 145.52 72.873V72.234L147.014 72.045L147.383 69.228C147.401 69.138 147.44 69.066 147.5 69.012C147.566 68.952 147.65 68.922 147.752 68.922H148.562V72.063H151.199V73.224H148.562V78.696C148.562 79.08 148.655 79.365 148.841 79.551C149.027 79.737 149.267 79.83 149.561 79.83C149.729 79.83 149.873 79.809 149.993 79.767C150.119 79.719 150.227 79.668 150.317 79.614C150.407 79.56 150.482 79.512 150.542 79.47C150.608 79.422 150.665 79.398 150.713 79.398C150.797 79.398 150.872 79.449 150.938 79.551L151.406 80.316C151.13 80.574 150.797 80.778 150.407 80.928C150.017 81.072 149.615 81.144 149.201 81.144ZM159.069 73.098C159.459 72.684 159.891 72.354 160.365 72.108C160.839 71.862 161.385 71.739 162.003 71.739C162.501 71.739 162.939 71.823 163.317 71.991C163.701 72.153 164.019 72.387 164.271 72.693C164.529 72.993 164.724 73.356 164.856 73.782C164.988 74.208 165.054 74.679 165.054 75.195V81H163.443V75.195C163.443 74.505 163.284 73.971 162.966 73.593C162.654 73.209 162.177 73.017 161.535 73.017C161.061 73.017 160.617 73.131 160.203 73.359C159.795 73.587 159.417 73.896 159.069 74.286V81H157.458V67.743H159.069V73.098ZM171.339 71.739C172.005 71.739 172.605 71.85 173.139 72.072C173.673 72.294 174.129 72.609 174.507 73.017C174.885 73.425 175.173 73.92 175.371 74.502C175.575 75.078 175.677 75.723 175.677 76.437C175.677 77.157 175.575 77.805 175.371 78.381C175.173 78.957 174.885 79.449 174.507 79.857C174.129 80.265 173.673 80.58 173.139 80.802C172.605 81.018 172.005 81.126 171.339 81.126C170.667 81.126 170.061 81.018 169.521 80.802C168.987 80.58 168.531 80.265 168.153 79.857C167.775 79.449 167.484 78.957 167.28 78.381C167.082 77.805 166.983 77.157 166.983 76.437C166.983 75.723 167.082 75.078 167.28 74.502C167.484 73.92 167.775 73.425 168.153 73.017C168.531 72.609 168.987 72.294 169.521 72.072C170.061 71.85 170.667 71.739 171.339 71.739ZM171.339 79.875C172.239 79.875 172.911 79.575 173.355 78.975C173.799 78.369 174.021 77.526 174.021 76.446C174.021 75.36 173.799 74.514 173.355 73.908C172.911 73.302 172.239 72.999 171.339 72.999C170.883 72.999 170.484 73.077 170.142 73.233C169.806 73.389 169.524 73.614 169.296 73.908C169.074 74.202 168.906 74.565 168.792 74.997C168.684 75.423 168.63 75.906 168.63 76.446C168.63 77.526 168.852 78.369 169.296 78.975C169.746 79.575 170.427 79.875 171.339 79.875ZM177.708 81V71.883H178.671C178.899 71.883 179.04 71.994 179.094 72.216L179.211 73.152C179.547 72.738 179.925 72.399 180.345 72.135C180.765 71.871 181.251 71.739 181.803 71.739C182.415 71.739 182.91 71.91 183.288 72.252C183.672 72.594 183.948 73.056 184.116 73.638C184.248 73.308 184.416 73.023 184.62 72.783C184.83 72.543 185.064 72.345 185.322 72.189C185.58 72.033 185.853 71.919 186.141 71.847C186.435 71.775 186.732 71.739 187.032 71.739C187.512 71.739 187.938 71.817 188.31 71.973C188.688 72.123 189.006 72.345 189.264 72.639C189.528 72.933 189.729 73.296 189.867 73.728C190.005 74.154 190.074 74.643 190.074 75.195V81H188.463V75.195C188.463 74.481 188.307 73.941 187.995 73.575C187.683 73.203 187.233 73.017 186.645 73.017C186.381 73.017 186.129 73.065 185.889 73.161C185.655 73.251 185.448 73.386 185.268 73.566C185.088 73.746 184.944 73.974 184.836 74.25C184.734 74.52 184.683 74.835 184.683 75.195V81H183.072V75.195C183.072 74.463 182.925 73.917 182.631 73.557C182.337 73.197 181.908 73.017 181.344 73.017C180.948 73.017 180.582 73.125 180.246 73.341C179.91 73.551 179.601 73.839 179.319 74.205V81H177.708ZM198.611 75.447C198.611 75.075 198.557 74.736 198.449 74.43C198.347 74.118 198.194 73.851 197.99 73.629C197.792 73.401 197.549 73.227 197.261 73.107C196.973 72.981 196.646 72.918 196.28 72.918C195.512 72.918 194.903 73.143 194.453 73.593C194.009 74.037 193.733 74.655 193.625 75.447H198.611ZM199.907 79.722C199.709 79.962 199.472 80.172 199.196 80.352C198.92 80.526 198.623 80.67 198.305 80.784C197.993 80.898 197.669 80.982 197.333 81.036C196.997 81.096 196.664 81.126 196.334 81.126C195.704 81.126 195.122 81.021 194.588 80.811C194.06 80.595 193.601 80.283 193.211 79.875C192.827 79.461 192.527 78.951 192.311 78.345C192.095 77.739 191.987 77.043 191.987 76.257C191.987 75.621 192.083 75.027 192.275 74.475C192.473 73.923 192.755 73.446 193.121 73.044C193.487 72.636 193.934 72.318 194.462 72.09C194.99 71.856 195.584 71.739 196.244 71.739C196.79 71.739 197.294 71.832 197.756 72.018C198.224 72.198 198.626 72.462 198.962 72.81C199.304 73.152 199.571 73.578 199.763 74.088C199.955 74.592 200.051 75.168 200.051 75.816C200.051 76.068 200.024 76.236 199.97 76.32C199.916 76.404 199.814 76.446 199.664 76.446H193.571C193.589 77.022 193.667 77.523 193.805 77.949C193.949 78.375 194.147 78.732 194.399 79.02C194.651 79.302 194.951 79.515 195.299 79.659C195.647 79.797 196.037 79.866 196.469 79.866C196.871 79.866 197.216 79.821 197.504 79.731C197.798 79.635 198.05 79.533 198.26 79.425C198.47 79.317 198.644 79.218 198.782 79.128C198.926 79.032 199.049 78.984 199.151 78.984C199.283 78.984 199.385 79.035 199.457 79.137L199.907 79.722Z" fill="#F55449"/>
</svg>
