<svg width="301" height="85" viewBox="0 0 301 85" fill="none" xmlns="http://www.w3.org/2000/svg">
<path d="M4.97764 47.1188C5.03986 43.9631 5.10208 40.8074 5.13319 37.5589V20.1717C9.02198 17.2325 13.9996 15.4381 18.1062 15.4381C25.2926 15.4381 30.9858 21.9351 30.9858 31.0309C30.9858 40.1268 25.4793 46.6238 18.1062 46.6238C12.2263 46.6238 7.46646 41.1477 7.46646 34.3723V29.3912C7.46646 26.9162 7.77757 22.523 7.77757 22.523L6.99981 22.6777V34.3723C6.99981 41.519 11.9463 47.2735 18.1062 47.2735C26.0082 47.2735 31.7325 40.4052 31.7325 31.0309C31.7325 21.6567 25.8215 14.7884 18.1062 14.7884C13.9063 14.7884 8.99087 16.5828 5.13319 19.3982V0L1.08886 0.0928156H0V0.556887H1.08886C3.48435 0.556887 4.35544 0.959084 4.35544 2.1038V47.1188H4.97764Z" fill="#F55449"/>
<path d="M63.8324 30.1028H39.9086C40.1575 21.9661 45.2907 15.4072 51.575 15.4072C58.9792 15.4072 63.9258 20.1717 65.1391 27.0709C65.2013 27.3493 65.2324 27.6587 65.2324 27.999C65.2324 29.02 64.9213 30.1028 63.8324 30.1028ZM39.442 30.7216H65.8857C66.0102 30.7216 66.1968 30.6288 66.1968 30.4122C66.1968 21.4401 60.4725 14.7884 51.575 14.7884C42.8019 14.7884 36.331 21.502 36.331 31.0309C36.331 40.3433 42.5219 47.2735 51.2639 47.2735C58.4815 47.2735 63.0547 44.1178 65.4813 39.8174L64.9213 39.508C62.588 43.6228 58.2948 46.6547 51.2639 46.6547C42.9263 46.6547 37.1087 40.0649 37.1087 31.0309C37.1087 23.5749 41.0908 17.9751 47.0329 16.0878C42.5841 18.4391 39.442 24.1008 39.442 30.7216Z" fill="#F55449"/>
<path d="M103.182 46.1906L99.8533 46.5C98.9822 46.4691 98.3911 45.3862 97.9555 42.7874L97.4578 39.8483V24.8124C97.4578 18.8104 92.9779 14.7884 86.2892 14.7884C79.4138 14.7884 73.5029 17.8204 73.5029 21.5639C73.5029 21.9661 73.7517 22.2136 74.1562 22.2136C74.5606 22.2136 74.8095 21.9661 74.8095 21.5639C74.8095 18.1607 80.1605 15.4072 86.3825 15.4072C92.5424 15.4072 96.68 19.1816 96.68 24.8124V39.8793C96.68 40.1268 97.0222 41.9521 97.1778 42.9112C97.5822 45.4172 98.2977 47.2735 99.8222 47.2735H99.8533L103.244 46.8094L103.182 46.1906ZM94.0356 27.4112V33.3513C94.0356 39.8483 88.4358 46.6238 81.0627 46.6238C75.1517 46.6238 70.9829 43.5609 70.9829 39.5699C70.9829 34.8673 75.9295 32.021 81.9338 31.4022C85.2003 31.0619 91.7335 30.6906 94.0356 27.4112ZM94.0356 22.2755V24.5958C94.0356 25.0599 93.9112 25.7405 93.7868 26.1118C92.5424 29.7006 85.6359 30.2884 81.8715 30.6597C75.7428 31.2785 70.2363 34.2485 70.2363 39.5699C70.2363 44.1797 74.965 47.3044 81.0627 47.3044C88.9336 47.3044 94.5023 40.1886 94.5023 33.3513V22.8014L94.0356 22.2755Z" fill="#F55449"/>
<path d="M104.161 14.9431V15.4072H104.939C107.334 15.4072 108.205 15.8094 108.205 16.9541V38.6108C108.205 44.2415 111.565 47.2735 117.85 47.2735C125.689 47.2735 131.694 39.6318 131.694 30.4741V15.7166H133.56V39.4461L133.84 42.5709C134.027 44.8912 135.054 47.2735 136.671 47.2735H136.734L139.751 46.7785L139.627 46.1597L136.64 46.6547C135.707 46.6238 134.805 44.8294 134.618 42.509L134.338 39.4152V14.9431H124.694V15.4072H126.56C130.823 15.4072 131.227 16.2116 131.227 17.1088V30.4741C131.227 39.4461 125.16 46.5619 117.85 46.5619C112.063 46.5619 108.983 43.7465 108.983 38.518V14.8503L104.939 14.9431H104.161Z" fill="#F55449"/>
<path d="M164.605 15.5619H150.014V33.1966C150.014 39.5699 151.57 44.3034 154.152 46.2216C150.45 44.8912 148.116 40.7455 148.116 35.0529V6.28044H147.494V11.7565C147.494 15.0359 147.09 15.5619 144.383 15.5619H141.583V16.1806H146.219C147.059 16.1806 147.339 16.5828 147.339 17.2635V35.0529C147.339 42.3852 151.134 47.2735 156.858 47.2735C159.814 47.2735 163.081 46.005 164.854 43.1896L164.356 42.8803C162.707 45.4791 159.658 46.6547 156.858 46.6547C153.032 46.6547 150.481 41.2715 150.481 33.1966V17.2635C150.481 16.5828 150.761 16.1806 151.601 16.1806H164.605V15.5619Z" fill="#F55449"/>
<path d="M167.718 47.1188H182.651V46.6547H181.562C177.3 46.6547 176.896 45.8503 176.896 44.9531V14.8503C175.309 14.8812 171.763 14.9431 171.763 14.9431H169.585V15.4072H170.518C172.914 15.4072 173.785 15.8094 173.785 16.9541V34.7435C173.785 36.9092 173.629 41.8593 173.629 41.8593H174.252V15.8713H176.118V44.9531C176.118 45.8503 175.714 46.6547 171.452 46.6547H167.718V47.1188ZM173.972 4.42415C173.972 5.10479 174.563 5.66168 175.216 5.66168C175.9 5.66168 176.46 5.07385 176.46 4.42415C176.46 3.74352 175.869 3.18663 175.216 3.18663C174.532 3.18663 173.972 3.77445 173.972 4.42415Z" fill="#F55449"/>
<path d="M202.093 47.1497L215.066 15.7166H217.648L207.817 39.4461C206.822 41.7355 204.302 47.1188 204.302 47.1188H205.142L217.337 17.6966C218.021 16.0569 219.172 15.4072 221.35 15.4072H221.692V14.9431H206.822V15.4072H209.31C212.639 15.4072 213.977 15.5309 213.977 16.521C213.977 16.7994 213.852 17.1397 213.697 17.511L202.342 44.9531C202.062 45.6338 201.968 45.8813 201.751 45.8813C201.533 45.8813 201.439 45.6337 201.159 44.984L190.178 19.3982C188.684 15.9641 188.155 14.7884 185.418 14.7884C184.827 14.7884 183.302 14.8503 183.302 15.6547C183.302 16.0569 183.52 16.2425 183.893 16.2425C183.956 16.2425 184.049 16.2116 184.111 16.1806C184.671 15.995 185.138 15.9331 185.573 15.9331C187.595 15.9331 188.031 16.3972 189.431 19.5838L200.693 45.9431C200.879 46.4072 201.471 47.1807 202.093 47.1497Z" fill="#F55449"/>
<path d="M222.708 47.1188H237.641V46.6547H236.552C232.29 46.6547 231.886 45.8503 231.886 44.9531V14.8503C230.299 14.8812 226.753 14.9431 226.753 14.9431H224.575V15.4072H225.508C227.904 15.4072 228.775 15.8094 228.775 16.9541V34.7435C228.775 36.9092 228.619 41.8593 228.619 41.8593H229.241V15.8713H231.108V44.9531C231.108 45.8503 230.704 46.6547 226.441 46.6547H222.708V47.1188ZM228.961 4.42415C228.961 5.10479 229.552 5.66168 230.206 5.66168C230.89 5.66168 231.45 5.07385 231.45 4.42415C231.45 3.74352 230.859 3.18663 230.206 3.18663C229.521 3.18663 228.961 3.77445 228.961 4.42415Z" fill="#F55449"/>
<path d="M264.792 15.5619H248.024V33.1966C248.024 39.5699 249.579 44.3034 252.161 46.2216C248.459 44.8912 246.126 40.7455 246.126 35.0529V6.28044H245.504V11.7565C245.504 15.0359 245.099 15.5619 242.393 15.5619H239.593V16.1806H244.228C245.068 16.1806 245.348 16.5828 245.348 17.2635V35.0529C245.348 42.3852 249.144 47.2735 254.868 47.2735C257.823 47.2735 261.09 46.005 262.863 43.1896L262.366 42.8803C260.717 45.4791 257.668 46.6547 254.868 46.6547C251.041 46.6547 248.49 41.2715 248.49 33.1966V17.2635C248.49 16.5828 248.77 16.1806 249.61 16.1806H264.792V15.5619Z" fill="#F55449"/>
<path d="M299.748 46.1906L296.419 46.5C295.548 46.4691 294.957 45.3862 294.521 42.7874L294.024 39.8483V24.8124C294.024 18.8104 289.544 14.7884 282.855 14.7884C275.98 14.7884 270.069 17.8204 270.069 21.5639C270.069 21.9661 270.318 22.2136 270.722 22.2136C271.126 22.2136 271.375 21.9661 271.375 21.5639C271.375 18.1607 276.726 15.4072 282.948 15.4072C289.108 15.4072 293.246 19.1816 293.246 24.8124V39.8793C293.246 40.1268 293.588 41.9521 293.744 42.9112C294.148 45.4172 294.864 47.2735 296.388 47.2735H296.419L299.81 46.8094L299.748 46.1906ZM290.602 27.4112V33.3513C290.602 39.8483 285.002 46.6238 277.629 46.6238C271.718 46.6238 267.549 43.5609 267.549 39.5699C267.549 34.8673 272.495 32.021 278.5 31.4022C281.766 31.0619 288.299 30.6906 290.602 27.4112ZM290.602 22.2755V24.5958C290.602 25.0599 290.477 25.7405 290.353 26.1118C289.108 29.7006 282.202 30.2884 278.437 30.6597C272.309 31.2785 266.802 34.2485 266.802 39.5699C266.802 44.1797 271.531 47.3044 277.629 47.3044C285.499 47.3044 291.068 40.1886 291.068 33.3513V22.8014L290.602 22.2755Z" fill="#F55449"/>
<path fill-rule="evenodd" clip-rule="evenodd" d="M301 54.9349H3.65133V54.2836H301V54.9349Z" fill="#F55449"/>
<path fill-rule="evenodd" clip-rule="evenodd" d="M238.779 58.1915H65.8719V57.5402H238.779V58.1915Z" fill="#F55449"/>
<path d="M50.5132 78.5144C50.9564 79.1679 51.4416 79.6276 51.9688 79.8936C52.5037 80.1519 53.1036 80.2811 53.7683 80.2811C54.4484 80.2811 55.0406 80.1595 55.5449 79.9164C56.0568 79.6732 56.4809 79.3275 56.8171 78.8791C57.161 78.4232 57.417 77.8723 57.5851 77.2264C57.7532 76.5805 57.8372 75.8548 57.8372 75.0493C57.8372 73.484 57.5239 72.3061 56.8974 71.5159C56.2708 70.7256 55.3921 70.3304 54.2612 70.3304C53.4512 70.3304 52.7444 70.5242 52.1408 70.9118C51.5371 71.2993 50.9946 71.8388 50.5132 72.5303V78.5144ZM50.5132 71.6184C51.0099 70.9497 51.5906 70.4254 52.2554 70.0455C52.9202 69.6579 53.6919 69.4642 54.5706 69.4642C55.2584 69.4642 55.8735 69.5896 56.416 69.8403C56.9585 70.0911 57.417 70.452 57.7914 70.9231C58.1734 71.3943 58.4638 71.9756 58.6625 72.6671C58.8611 73.351 58.9605 74.1299 58.9605 75.0037C58.9605 75.9232 58.8497 76.7629 58.6281 77.5227C58.4065 78.275 58.0817 78.9209 57.6538 79.4604C57.2336 79.9924 56.7178 80.4065 56.1065 80.7029C55.4952 80.9916 54.7961 81.136 54.009 81.136C53.1991 81.136 52.5075 80.984 51.9345 80.6801C51.369 80.3685 50.88 79.9088 50.4674 79.3009L50.3871 80.7029C50.3642 80.8928 50.2611 80.9878 50.0777 80.9878H49.4129V64.4033H50.5132V71.6184Z" fill="#F55449"/>
<path d="M70.0389 74.1717C70.0389 73.5637 69.951 73.0204 69.7753 72.5417C69.6072 72.0554 69.3665 71.645 69.0532 71.3107C68.7399 70.9763 68.3655 70.7218 67.9299 70.547C67.502 70.3646 67.0283 70.2734 66.5087 70.2734C65.9203 70.2734 65.3931 70.3646 64.927 70.547C64.4609 70.7294 64.0559 70.9915 63.7121 71.3335C63.3758 71.6754 63.1046 72.0858 62.8983 72.5645C62.692 73.0432 62.5544 73.5789 62.4856 74.1717H70.0389ZM62.4283 74.867V75.0835C62.4283 75.9346 62.5277 76.6831 62.7264 77.329C62.925 77.9749 63.2077 78.5182 63.5745 78.9589C63.9413 79.3921 64.3845 79.7188 64.9041 79.9392C65.4237 80.1595 66.0044 80.2697 66.6462 80.2697C67.2193 80.2697 67.716 80.2089 68.1363 80.0873C68.5565 79.9582 68.908 79.8176 69.1907 79.6656C69.4811 79.506 69.7103 79.3655 69.8784 79.2439C70.0465 79.1147 70.1688 79.0501 70.2452 79.0501C70.3445 79.0501 70.421 79.0881 70.4744 79.1641L70.7725 79.5288C70.5891 79.7568 70.3445 79.9696 70.0389 80.1671C69.7409 80.3647 69.4047 80.5357 69.0303 80.6801C68.6635 80.8168 68.2662 80.927 67.8383 81.0106C67.418 81.0942 66.9939 81.136 66.566 81.136C65.7866 81.136 65.076 81.003 64.4341 80.7371C63.7923 80.4635 63.2421 80.0684 62.7837 79.5516C62.3252 79.0349 61.9699 78.4042 61.7177 77.6595C61.4732 76.9072 61.3509 76.0486 61.3509 75.0835C61.3509 74.2704 61.4656 73.5219 61.6948 72.8381C61.9317 72.1466 62.2679 71.5539 62.7034 71.0599C63.1466 70.5584 63.6853 70.1671 64.3195 69.8859C64.9614 69.6048 65.6873 69.4642 66.4972 69.4642C67.1391 69.4642 67.7351 69.5744 68.2853 69.7947C68.8354 70.0151 69.313 70.338 69.718 70.7636C70.1229 71.1815 70.4401 71.6982 70.6693 72.3137C70.9062 72.9292 71.0246 73.6359 71.0246 74.4338C71.0246 74.601 71.0017 74.715 70.9558 74.7758C70.91 74.8366 70.8336 74.867 70.7266 74.867H62.4283Z" fill="#F55449"/>
<path d="M80.377 75.5052C79.2919 75.5432 78.3559 75.6306 77.5689 75.7674C76.7895 75.8966 76.1438 76.0752 75.6318 76.3031C75.1275 76.5311 74.7531 76.8046 74.5086 77.1238C74.2641 77.4354 74.1418 77.7925 74.1418 78.1952C74.1418 78.5752 74.2029 78.9057 74.3252 79.1869C74.4551 79.4604 74.6232 79.6884 74.8295 79.8708C75.0435 80.0456 75.288 80.1747 75.5631 80.2583C75.8382 80.3419 76.1247 80.3837 76.4227 80.3837C76.8659 80.3837 77.2709 80.3381 77.6376 80.2469C78.012 80.1481 78.3559 80.0152 78.6692 79.848C78.9901 79.6732 79.2881 79.468 79.5632 79.2325C79.8383 78.9969 80.1095 78.7424 80.377 78.4688V75.5052ZM73.6719 71.2537C74.2679 70.661 74.8945 70.2127 75.5516 69.9087C76.2087 69.6048 76.9538 69.4528 77.7866 69.4528C78.3979 69.4528 78.9328 69.5516 79.3913 69.7491C79.8497 69.9391 80.228 70.2165 80.526 70.5812C80.8316 70.9383 81.0609 71.3753 81.2137 71.892C81.3665 72.4011 81.4429 72.971 81.4429 73.6017V80.9878H81.0074C80.7781 80.9878 80.6368 80.8814 80.5833 80.6687L80.4228 79.2097C80.1095 79.5136 79.7962 79.7872 79.483 80.0304C79.1773 80.2735 78.8564 80.4787 78.5202 80.6459C78.184 80.813 77.821 80.9422 77.4313 81.0334C77.0416 81.1246 76.6137 81.1702 76.1476 81.1702C75.7579 81.1702 75.3797 81.1132 75.0129 80.9992C74.6461 80.8852 74.3176 80.7105 74.0272 80.4749C73.7445 80.2393 73.5153 79.9392 73.3395 79.5744C73.1714 79.2021 73.0873 78.7576 73.0873 78.2408C73.0873 77.7621 73.2249 77.3176 73.5 76.9072C73.775 76.4969 74.2068 76.1398 74.7951 75.8358C75.3835 75.5319 76.1362 75.2887 77.0531 75.1063C77.9777 74.9239 79.0856 74.8176 80.377 74.7872V73.6017C80.377 72.5531 80.1477 71.7476 79.6893 71.1853C79.2384 70.6154 78.566 70.3304 77.672 70.3304C77.1219 70.3304 76.6519 70.4064 76.2622 70.5584C75.8802 70.7104 75.5554 70.8776 75.288 71.0599C75.0206 71.2423 74.8028 71.4095 74.6347 71.5614C74.4666 71.7134 74.3252 71.7894 74.2106 71.7894C74.1265 71.7894 74.0578 71.7704 74.0043 71.7324C73.9508 71.6944 73.9049 71.645 73.8667 71.5843L73.6719 71.2537Z" fill="#F55449"/>
<path d="M93.9447 69.6465V80.9878H93.3373C93.1462 80.9878 93.0354 80.889 93.0049 80.6915L92.9017 79.0045C92.3745 79.658 91.7632 80.1823 91.0679 80.5775C90.3802 80.9726 89.6122 81.1702 88.7641 81.1702C88.1298 81.1702 87.5759 81.0714 87.1021 80.8738C86.6284 80.6763 86.2349 80.3913 85.9216 80.019C85.6083 79.6466 85.3714 79.1983 85.2109 78.674C85.0505 78.1497 84.9702 77.5569 84.9702 76.8958V69.6465H86.0706V76.8958C86.0706 77.9597 86.3151 78.7955 86.8041 79.4035C87.2931 80.0038 88.0382 80.3039 89.0391 80.3039C89.7803 80.3039 90.4718 80.1177 91.1137 79.7454C91.7632 79.3655 92.3401 78.8411 92.8444 78.1724V69.6465H93.9447Z" fill="#F55449"/>
<path d="M100.817 81.1702C100.046 81.1702 99.4419 80.9574 99.0063 80.5319C98.5784 80.1063 98.3645 79.4491 98.3645 78.56V70.8092H96.7254C96.6414 70.8092 96.5726 70.7864 96.5191 70.7408C96.4656 70.6952 96.4389 70.6306 96.4389 70.547V70.1253L98.3874 69.9885L98.6625 65.9307C98.6777 65.8623 98.7083 65.8015 98.7542 65.7483C98.8 65.6952 98.865 65.6685 98.949 65.6685H99.4648V69.9999H103.064V70.8092H99.4648V78.503C99.4648 78.8145 99.503 79.0843 99.5794 79.3123C99.6635 79.5326 99.7743 79.715 99.9118 79.8594C100.057 80.0038 100.225 80.1101 100.416 80.1785C100.607 80.2469 100.813 80.2811 101.035 80.2811C101.31 80.2811 101.547 80.2431 101.746 80.1671C101.944 80.0835 102.116 79.9962 102.261 79.905C102.407 79.8062 102.525 79.7188 102.617 79.6428C102.708 79.5592 102.781 79.5174 102.835 79.5174C102.896 79.5174 102.957 79.5554 103.018 79.6314L103.316 80.1102C103.026 80.4293 102.655 80.6877 102.204 80.8852C101.761 81.0752 101.299 81.1702 100.817 81.1702Z" fill="#F55449"/>
<path d="M114.772 69.6465L108.216 84.6353C108.17 84.7416 108.109 84.829 108.033 84.8974C107.964 84.9658 107.861 85 107.723 85H106.944L108.95 80.5661L104.124 69.6465H105.03C105.145 69.6465 105.236 69.6769 105.305 69.7377C105.374 69.7909 105.42 69.8517 105.443 69.9201L109.282 78.7424C109.328 78.8563 109.366 78.9741 109.397 79.0957C109.435 79.2097 109.469 79.3275 109.5 79.4491C109.538 79.3275 109.576 79.2097 109.615 79.0957C109.66 78.9741 109.706 78.8563 109.752 78.7424L113.546 69.9201C113.584 69.8365 113.638 69.7719 113.706 69.7263C113.775 69.6731 113.852 69.6465 113.936 69.6465H114.772Z" fill="#F55449"/>
<path d="M128.997 71.0485C128.936 71.1549 128.848 71.2081 128.733 71.2081C128.649 71.2081 128.542 71.1625 128.412 71.0713C128.282 70.9725 128.107 70.8662 127.885 70.7522C127.671 70.6306 127.404 70.5242 127.083 70.433C126.762 70.3342 126.372 70.2848 125.914 70.2848C125.501 70.2848 125.123 70.3456 124.779 70.4672C124.443 70.5812 124.152 70.737 123.908 70.9345C123.671 71.1321 123.488 71.3639 123.358 71.6298C123.228 71.8882 123.163 72.1618 123.163 72.4505C123.163 72.8077 123.255 73.104 123.438 73.3396C123.621 73.5751 123.858 73.7765 124.149 73.9437C124.447 74.1109 124.787 74.2552 125.169 74.3768C125.551 74.4984 125.937 74.62 126.326 74.7416C126.724 74.8631 127.113 74.9999 127.495 75.1519C127.877 75.2963 128.214 75.4787 128.504 75.699C128.802 75.9194 129.043 76.1891 129.226 76.5083C129.41 76.8274 129.501 77.215 129.501 77.6709C129.501 78.1648 129.413 78.6246 129.238 79.0501C129.062 79.4756 128.802 79.8442 128.458 80.1557C128.122 80.4673 127.706 80.7143 127.209 80.8966C126.712 81.079 126.143 81.1702 125.501 81.1702C124.699 81.1702 124.007 81.0448 123.426 80.794C122.846 80.5357 122.326 80.2013 121.868 79.791L122.12 79.4035C122.158 79.3427 122.2 79.2971 122.246 79.2667C122.299 79.2363 122.368 79.2211 122.452 79.2211C122.552 79.2211 122.67 79.2819 122.808 79.4035C122.953 79.525 123.144 79.658 123.381 79.8024C123.618 79.9392 123.908 80.0684 124.252 80.1899C124.603 80.3115 125.035 80.3723 125.547 80.3723C126.028 80.3723 126.452 80.3077 126.819 80.1785C127.186 80.0418 127.492 79.8594 127.736 79.6314C127.981 79.4035 128.164 79.1375 128.286 78.8335C128.416 78.522 128.481 78.1952 128.481 77.8533C128.481 77.4734 128.389 77.158 128.206 76.9072C128.023 76.6565 127.782 76.4437 127.484 76.2689C127.186 76.0942 126.846 75.946 126.464 75.8244C126.089 75.7028 125.704 75.5812 125.306 75.4597C124.909 75.3381 124.519 75.2051 124.137 75.0607C123.763 74.9163 123.426 74.734 123.128 74.5136C122.83 74.2932 122.59 74.0273 122.406 73.7157C122.223 73.3966 122.131 73.0014 122.131 72.5303C122.131 72.1276 122.219 71.74 122.395 71.3677C122.571 70.9953 122.819 70.6686 123.14 70.3874C123.469 70.1063 123.866 69.8821 124.332 69.7149C124.798 69.5478 125.321 69.4642 125.902 69.4642C126.598 69.4642 127.213 69.563 127.748 69.7605C128.29 69.9581 128.783 70.262 129.226 70.6724L128.997 71.0485Z" fill="#F55449"/>
<path d="M138.849 75.5052C137.764 75.5432 136.828 75.6306 136.041 75.7674C135.262 75.8966 134.616 76.0752 134.104 76.3031C133.6 76.5311 133.226 76.8046 132.981 77.1238C132.737 77.4354 132.614 77.7925 132.614 78.1952C132.614 78.5752 132.675 78.9057 132.798 79.1869C132.928 79.4604 133.096 79.6884 133.302 79.8708C133.516 80.0456 133.76 80.1747 134.036 80.2583C134.311 80.3419 134.597 80.3837 134.895 80.3837C135.338 80.3837 135.743 80.3381 136.11 80.2469C136.485 80.1481 136.828 80.0152 137.142 79.848C137.463 79.6732 137.761 79.468 138.036 79.2325C138.311 78.9969 138.582 78.7424 138.849 78.4688V75.5052ZM132.144 71.2537C132.74 70.661 133.367 70.2127 134.024 69.9087C134.681 69.6048 135.426 69.4528 136.259 69.4528C136.87 69.4528 137.405 69.5516 137.864 69.7491C138.322 69.9391 138.7 70.2165 138.998 70.5812C139.304 70.9383 139.533 71.3753 139.686 71.892C139.839 72.4011 139.915 72.971 139.915 73.6017V80.9878H139.48C139.251 80.9878 139.109 80.8814 139.056 80.6687L138.895 79.2097C138.582 79.5136 138.269 79.7872 137.955 80.0304C137.65 80.2735 137.329 80.4787 136.993 80.6459C136.656 80.813 136.293 80.9422 135.904 81.0334C135.514 81.1246 135.086 81.1702 134.62 81.1702C134.23 81.1702 133.852 81.1132 133.485 80.9992C133.119 80.8852 132.79 80.7105 132.5 80.4749C132.217 80.2393 131.988 79.9392 131.812 79.5744C131.644 79.2021 131.56 78.7576 131.56 78.2408C131.56 77.7621 131.697 77.3176 131.972 76.9072C132.248 76.4969 132.679 76.1398 133.268 75.8358C133.856 75.5319 134.609 75.2887 135.526 75.1063C136.45 74.9239 137.558 74.8176 138.849 74.7872V73.6017C138.849 72.5531 138.62 71.7476 138.162 71.1853C137.711 70.6154 137.038 70.3304 136.144 70.3304C135.594 70.3304 135.124 70.4064 134.735 70.5584C134.353 70.7104 134.028 70.8776 133.76 71.0599C133.493 71.2423 133.275 71.4095 133.107 71.5614C132.939 71.7134 132.798 71.7894 132.683 71.7894C132.599 71.7894 132.53 71.7704 132.477 71.7324C132.423 71.6944 132.377 71.645 132.339 71.5843L132.144 71.2537Z" fill="#F55449"/>
<path d="M144.772 64.4033V80.9878H143.672V64.4033H144.772Z" fill="#F55449"/>
<path d="M153.144 69.4642C153.962 69.4642 154.691 69.6048 155.333 69.8859C155.983 70.1595 156.529 70.5508 156.972 71.0599C157.415 71.5691 157.752 72.1846 157.981 72.9064C158.218 73.6207 158.336 74.4224 158.336 75.3115C158.336 76.2005 158.218 77.0022 157.981 77.7165C157.752 78.4308 157.415 79.0425 156.972 79.5516C156.529 80.0608 155.983 80.4521 155.333 80.7256C154.691 80.9992 153.962 81.136 153.144 81.136C152.326 81.136 151.593 80.9992 150.943 80.7256C150.301 80.4521 149.755 80.0608 149.304 79.5516C148.861 79.0425 148.521 78.4308 148.284 77.7165C148.055 77.0022 147.94 76.2005 147.94 75.3115C147.94 74.4224 148.055 73.6207 148.284 72.9064C148.521 72.1846 148.861 71.5691 149.304 71.0599C149.755 70.5508 150.301 70.1595 150.943 69.8859C151.593 69.6048 152.326 69.4642 153.144 69.4642ZM153.144 80.2811C153.824 80.2811 154.416 80.1671 154.921 79.9392C155.432 79.7036 155.857 79.3693 156.193 78.9361C156.537 78.503 156.793 77.9825 156.961 77.3746C157.129 76.7591 157.213 76.0714 157.213 75.3115C157.213 74.5592 157.129 73.8753 156.961 73.2598C156.793 72.6443 156.537 72.12 156.193 71.6868C155.857 71.2461 155.432 70.908 154.921 70.6724C154.416 70.4368 153.824 70.319 153.144 70.319C152.464 70.319 151.868 70.4368 151.356 70.6724C150.852 70.908 150.428 71.2461 150.084 71.6868C149.747 72.12 149.491 72.6443 149.316 73.2598C149.148 73.8753 149.064 74.5592 149.064 75.3115C149.064 76.0714 149.148 76.7591 149.316 77.3746C149.491 77.9825 149.747 78.503 150.084 78.9361C150.428 79.3693 150.852 79.7036 151.356 79.9392C151.868 80.1671 152.464 80.2811 153.144 80.2811Z" fill="#F55449"/>
<path d="M162.454 71.6298C162.981 70.9763 163.588 70.452 164.276 70.0569C164.971 69.6617 165.743 69.4642 166.591 69.4642C167.218 69.4642 167.768 69.563 168.242 69.7605C168.723 69.9581 169.12 70.243 169.434 70.6154C169.747 70.9877 169.984 71.4361 170.144 71.9604C170.305 72.4847 170.385 73.0774 170.385 73.7385V80.9878H169.285V73.7385C169.285 72.6747 169.04 71.8426 168.551 71.2423C168.062 70.6344 167.317 70.3304 166.316 70.3304C165.575 70.3304 164.88 70.5204 164.23 70.9004C163.588 71.2727 163.015 71.7932 162.511 72.4619V80.9878H161.41V69.6465H162.018C162.209 69.6465 162.32 69.7415 162.35 69.9315L162.454 71.6298Z" fill="#F55449"/>
<path d="M186.621 75.5052C185.536 75.5432 184.6 75.6306 183.813 75.7674C183.034 75.8966 182.388 76.0752 181.876 76.3031C181.372 76.5311 180.997 76.8046 180.753 77.1238C180.508 77.4354 180.386 77.7925 180.386 78.1952C180.386 78.5752 180.447 78.9057 180.57 79.1869C180.699 79.4604 180.868 79.6884 181.074 79.8708C181.288 80.0456 181.532 80.1747 181.807 80.2583C182.083 80.3419 182.369 80.3837 182.667 80.3837C183.11 80.3837 183.515 80.3381 183.882 80.2469C184.256 80.1481 184.6 80.0152 184.914 79.848C185.234 79.6732 185.533 79.468 185.808 79.2325C186.083 78.9969 186.354 78.7424 186.621 78.4688V75.5052ZM179.916 71.2537C180.512 70.661 181.139 70.2127 181.796 69.9087C182.453 69.6048 183.198 69.4528 184.031 69.4528C184.642 69.4528 185.177 69.5516 185.636 69.7491C186.094 69.9391 186.472 70.2165 186.77 70.5812C187.076 70.9383 187.305 71.3753 187.458 71.892C187.611 72.4011 187.687 72.971 187.687 73.6017V80.9878H187.252C187.023 80.9878 186.881 80.8814 186.828 80.6687L186.667 79.2097C186.354 79.5136 186.041 79.7872 185.727 80.0304C185.422 80.2735 185.101 80.4787 184.765 80.6459C184.428 80.813 184.065 80.9422 183.676 81.0334C183.286 81.1246 182.858 81.1702 182.392 81.1702C182.002 81.1702 181.624 81.1132 181.257 80.9992C180.891 80.8852 180.562 80.7105 180.272 80.4749C179.989 80.2393 179.76 79.9392 179.584 79.5744C179.416 79.2021 179.332 78.7576 179.332 78.2408C179.332 77.7621 179.469 77.3176 179.744 76.9072C180.019 76.4969 180.451 76.1398 181.04 75.8358C181.628 75.5319 182.381 75.2887 183.297 75.1063C184.222 74.9239 185.33 74.8176 186.621 74.7872V73.6017C186.621 72.5531 186.392 71.7476 185.934 71.1853C185.483 70.6154 184.81 70.3304 183.916 70.3304C183.366 70.3304 182.896 70.4064 182.507 70.5584C182.125 70.7104 181.8 70.8776 181.532 71.0599C181.265 71.2423 181.047 71.4095 180.879 71.5614C180.711 71.7134 180.57 71.7894 180.455 71.7894C180.371 71.7894 180.302 71.7704 180.249 71.7324C180.195 71.6944 180.149 71.645 180.111 71.5843L179.916 71.2537Z" fill="#F55449"/>
<path d="M194.324 81.1702C193.552 81.1702 192.949 80.9574 192.513 80.5319C192.085 80.1063 191.871 79.4491 191.871 78.56V70.8092H190.232C190.148 70.8092 190.079 70.7864 190.026 70.7408C189.972 70.6952 189.946 70.6306 189.946 70.547V70.1253L191.894 69.9885L192.169 65.9307C192.184 65.8623 192.215 65.8015 192.261 65.7483C192.307 65.6952 192.372 65.6685 192.456 65.6685H192.971V69.9999H196.57V70.8092H192.971V78.503C192.971 78.8145 193.01 79.0843 193.086 79.3123C193.17 79.5326 193.281 79.715 193.418 79.8594C193.564 80.0038 193.732 80.1101 193.923 80.1785C194.114 80.2469 194.32 80.2811 194.542 80.2811C194.817 80.2811 195.054 80.2431 195.252 80.1671C195.451 80.0835 195.623 79.9962 195.768 79.905C195.913 79.8062 196.032 79.7188 196.123 79.6428C196.215 79.5592 196.288 79.5174 196.341 79.5174C196.402 79.5174 196.463 79.5554 196.525 79.6314L196.823 80.1102C196.532 80.4293 196.162 80.6877 195.711 80.8852C195.268 81.0752 194.805 81.1702 194.324 81.1702Z" fill="#F55449"/>
<path d="M206.388 71.5614C206.915 70.9231 207.515 70.414 208.187 70.0341C208.867 69.6541 209.627 69.4642 210.468 69.4642C211.094 69.4642 211.645 69.563 212.118 69.7605C212.6 69.9581 212.997 70.243 213.31 70.6154C213.624 70.9877 213.861 71.4361 214.021 71.9604C214.182 72.4847 214.262 73.0774 214.262 73.7385V80.9878H213.161V73.7385C213.161 72.6747 212.917 71.8426 212.428 71.2423C211.939 70.6344 211.194 70.3304 210.193 70.3304C209.452 70.3304 208.756 70.5204 208.107 70.9004C207.465 71.2727 206.892 71.7932 206.388 72.4619V80.9878H205.287V64.4033H206.388V71.5614Z" fill="#F55449"/>
<path d="M222.407 69.4642C223.224 69.4642 223.954 69.6048 224.596 69.8859C225.245 70.1595 225.792 70.5508 226.235 71.0599C226.678 71.5691 227.014 72.1846 227.243 72.9064C227.48 73.6207 227.599 74.4224 227.599 75.3115C227.599 76.2005 227.48 77.0022 227.243 77.7165C227.014 78.4308 226.678 79.0425 226.235 79.5516C225.792 80.0608 225.245 80.4521 224.596 80.7256C223.954 80.9992 223.224 81.136 222.407 81.136C221.589 81.136 220.855 80.9992 220.206 80.7256C219.564 80.4521 219.018 80.0608 218.567 79.5516C218.124 79.0425 217.784 78.4308 217.547 77.7165C217.318 77.0022 217.203 76.2005 217.203 75.3115C217.203 74.4224 217.318 73.6207 217.547 72.9064C217.784 72.1846 218.124 71.5691 218.567 71.0599C219.018 70.5508 219.564 70.1595 220.206 69.8859C220.855 69.6048 221.589 69.4642 222.407 69.4642ZM222.407 80.2811C223.087 80.2811 223.679 80.1671 224.183 79.9392C224.695 79.7036 225.119 79.3693 225.455 78.9361C225.799 78.503 226.055 77.9825 226.223 77.3746C226.391 76.7591 226.475 76.0714 226.475 75.3115C226.475 74.5592 226.391 73.8753 226.223 73.2598C226.055 72.6443 225.799 72.12 225.455 71.6868C225.119 71.2461 224.695 70.908 224.183 70.6724C223.679 70.4368 223.087 70.319 222.407 70.319C221.726 70.319 221.13 70.4368 220.618 70.6724C220.114 70.908 219.69 71.2461 219.346 71.6868C219.01 72.12 218.754 72.6443 218.578 73.2598C218.41 73.8753 218.326 74.5592 218.326 75.3115C218.326 76.0714 218.41 76.7591 218.578 77.3746C218.754 77.9825 219.01 78.503 219.346 78.9361C219.69 79.3693 220.114 79.7036 220.618 79.9392C221.13 80.1671 221.726 80.2811 222.407 80.2811Z" fill="#F55449"/>
<path d="M230.673 80.9878V69.6465H231.281C231.472 69.6465 231.582 69.7415 231.613 69.9315L231.716 71.5729C232.159 70.9421 232.667 70.433 233.24 70.0455C233.814 69.6579 234.459 69.4642 235.177 69.4642C236.01 69.4642 236.675 69.7035 237.172 70.1823C237.676 70.661 238.016 71.3259 238.192 72.177C238.329 71.7134 238.52 71.3107 238.765 70.9687C239.017 70.6268 239.304 70.3456 239.625 70.1253C239.946 69.8973 240.293 69.7301 240.668 69.6237C241.05 69.5174 241.439 69.4642 241.837 69.4642C242.402 69.4642 242.91 69.5592 243.361 69.7491C243.812 69.9315 244.194 70.2051 244.507 70.5698C244.821 70.9345 245.061 71.3829 245.229 71.9148C245.397 72.4467 245.482 73.0546 245.482 73.7385V80.9878H244.393V73.7385C244.393 72.6291 244.152 71.7856 243.671 71.2081C243.189 70.623 242.502 70.3304 241.607 70.3304C241.21 70.3304 240.828 70.4026 240.461 70.547C240.102 70.6914 239.781 70.908 239.499 71.1967C239.223 71.4779 239.002 71.8312 238.834 72.2567C238.673 72.6823 238.593 73.1762 238.593 73.7385V80.9878H237.493V73.7385C237.493 72.6367 237.271 71.7932 236.828 71.2081C236.392 70.623 235.751 70.3304 234.902 70.3304C234.283 70.3304 233.71 70.5128 233.183 70.8776C232.656 71.2423 232.186 71.7476 231.773 72.3935V80.9878H230.673Z" fill="#F55449"/>
<path d="M257.119 74.1717C257.119 73.5637 257.032 73.0204 256.856 72.5417C256.688 72.0554 256.447 71.645 256.134 71.3107C255.82 70.9763 255.446 70.7218 255.01 70.547C254.583 70.3646 254.109 70.2734 253.589 70.2734C253.001 70.2734 252.474 70.3646 252.008 70.547C251.541 70.7294 251.136 70.9915 250.793 71.3335C250.456 71.6754 250.185 72.0858 249.979 72.5645C249.773 73.0432 249.635 73.5789 249.566 74.1717H257.119ZM249.509 74.867V75.0835C249.509 75.9346 249.608 76.6831 249.807 77.329C250.006 77.9749 250.288 78.5182 250.655 78.9589C251.022 79.3921 251.465 79.7188 251.985 79.9392C252.504 80.1595 253.085 80.2697 253.727 80.2697C254.3 80.2697 254.797 80.2089 255.217 80.0873C255.637 79.9582 255.989 79.8176 256.271 79.6656C256.562 79.506 256.791 79.3655 256.959 79.2439C257.127 79.1147 257.249 79.0501 257.326 79.0501C257.425 79.0501 257.501 79.0881 257.555 79.1641L257.853 79.5288C257.67 79.7568 257.425 79.9696 257.119 80.1671C256.821 80.3647 256.485 80.5357 256.111 80.6801C255.744 80.8168 255.347 80.927 254.919 81.0106C254.499 81.0942 254.074 81.136 253.647 81.136C252.867 81.136 252.157 81.003 251.515 80.7371C250.873 80.4635 250.323 80.0684 249.864 79.5516C249.406 79.0349 249.05 78.4042 248.798 77.6595C248.554 76.9072 248.432 76.0486 248.432 75.0835C248.432 74.2704 248.546 73.5219 248.775 72.8381C249.012 72.1466 249.348 71.5539 249.784 71.0599C250.227 70.5584 250.766 70.1671 251.4 69.8859C252.042 69.6048 252.768 69.4642 253.578 69.4642C254.22 69.4642 254.816 69.5744 255.366 69.7947C255.916 70.0151 256.394 70.338 256.799 70.7636C257.203 71.1815 257.521 71.6982 257.75 72.3137C257.987 72.9292 258.105 73.6359 258.105 74.4338C258.105 74.601 258.082 74.715 258.036 74.7758C257.991 74.8366 257.914 74.867 257.807 74.867H249.509Z" fill="#F55449"/>
</svg>
