<svg width="142" height="19" viewBox="0 0 142 19" fill="none" xmlns="http://www.w3.org/2000/svg">
<path d="M50.2829 7.88914C50.8433 8.15388 51.4737 8.28625 52.1741 8.28625C52.8745 8.28625 53.575 8.15388 54.1353 7.88914C54.6957 7.6244 54.9759 7.29348 54.9759 6.96255C54.9759 6.56544 54.6957 6.3007 54.1353 6.03596C53.575 5.77122 52.9446 5.63885 52.1741 5.63885C51.4036 5.63885 50.7732 5.77122 50.2829 6.03596C49.7225 6.3007 49.5124 6.56544 49.5124 6.96255C49.5124 7.35966 49.7926 7.69059 50.2829 7.88914ZM89.2976 7.88914C89.858 8.15388 90.4884 8.28625 91.2589 8.28625C92.0294 8.28625 92.6598 8.15388 93.1501 7.88914C93.7104 7.6244 93.9206 7.29348 93.9206 6.96255C93.9206 6.56544 93.6404 6.23452 93.1501 6.03596C92.6598 5.83741 91.9593 5.63885 91.2589 5.63885C90.4884 5.63885 89.858 5.77122 89.2976 6.03596C88.7373 6.3007 88.5272 6.63163 88.5272 6.96255C88.5272 7.29348 88.8073 7.6244 89.2976 7.88914Z" fill="black"/>
<path d="M106.178 15.1036C99.1739 14.2432 98.5435 11.3973 98.3334 10.3383V9.47791C98.9638 6.36722 101.485 4.64642 106.108 4.18312H139.52C140.29 4.18312 140.92 3.58746 140.92 2.85943C140.92 2.13139 140.29 1.53573 139.52 1.53573H105.828C98.3334 2.26376 96.092 5.97011 95.4616 9.01462C95.3915 9.14699 95.3215 9.34554 95.3915 9.54409L95.4616 10.7354V10.8678C95.6717 12.0591 96.162 13.1181 96.8625 13.9785L90.5585 10.6692L72.6271 1.13862C72.2068 0.807697 71.5064 0.741512 71.0161 1.00625L46.8508 14.3094V2.39613C46.8508 1.6681 46.2204 1.07244 45.4499 1.07244C45.3098 1.07244 45.1697 1.07244 45.0296 1.13862C44.8195 1.13862 44.6093 1.20481 44.4693 1.27099L23.0357 10.934C22.8956 11.0002 22.8255 11.0663 22.7555 11.1325L20.444 12.1915L22.8956 13.3828C23.1057 13.5152 23.3158 13.5152 23.526 13.5152C23.7361 13.5152 24.0163 13.5152 24.2264 13.3828L43.9789 4.38168V16.4273C43.9789 16.8244 44.1891 17.1553 44.4693 17.4201C44.8895 17.9496 45.66 18.0158 46.2904 17.751L54.8358 13.0519H54.9059L59.7389 10.3383L71.7866 3.71983L84.4646 10.3383H62.1905L57.2874 13.0519H89.5078L98.7537 17.9496C99.4541 18.2805 100.295 18.0819 100.715 17.4201C100.855 17.1553 100.925 16.8906 100.855 16.6259C102.256 17.1553 103.937 17.5525 105.898 17.751H139.66C140.43 17.751 141.06 17.1553 141.06 16.4273C141.06 15.6993 140.43 15.1036 139.66 15.1036H106.178ZM3.07301 0.873882C2.37257 0.542958 1.53203 0.807697 1.18181 1.46955C1.11177 1.6681 1.04172 1.86665 1.04172 2.06521C0.97168 2.19758 0.97168 2.32995 0.97168 2.46232V16.5597C0.97168 17.2877 1.60208 17.8834 2.37257 17.8834C3.14306 17.8834 3.77346 17.2877 3.77346 16.5597V4.24931L19.0431 11.5296L22.2652 10.0074L3.07301 0.873882Z" fill="black"/>
</svg>
