<svg width="90" height="112" viewBox="0 0 90 112" fill="none" xmlns="http://www.w3.org/2000/svg">
<path fill-rule="evenodd" clip-rule="evenodd" d="M0 111.854H10.8005V0H0V111.854ZM78.2482 111.854H89.0487V0H78.2482V111.854ZM9.36775 8.84781H1.65313L1.53014 3.0585H9.49074L9.36775 8.84781ZM87.616 8.84781L79.7912 8.9671V3.0585H87.739L87.616 8.84781ZM15.9018 11.9609C15.5009 13.8535 15.1204 15.6231 15.0565 15.8933C14.9604 16.301 15.0331 16.3848 15.4824 16.3848C16.0019 16.3848 16.0501 16.259 16.6563 13.3303C17.0041 11.6501 17.3528 10.3476 17.4317 10.4356C17.5104 10.5234 17.6958 11.6769 17.8437 12.9986C18.2045 16.223 18.251 16.3851 18.8144 16.384C19.1918 16.3831 19.633 15.7696 21.0135 13.3255C21.9635 11.6437 22.7656 10.2678 22.7958 10.2678C22.8262 10.2678 22.5699 11.5703 22.226 13.1625C21.8822 14.7544 21.6009 16.131 21.6009 16.221C21.6009 16.311 21.828 16.3848 22.1052 16.3848C22.5796 16.3848 22.6541 16.1734 23.3539 12.8348C23.7632 10.8824 24.143 9.11259 24.1979 8.90243C24.2781 8.59396 24.1527 8.52012 23.5492 8.52012C22.8141 8.52012 22.7705 8.57517 21.0439 11.6809C20.0774 13.4192 19.2301 14.8447 19.1609 14.8486C19.0919 14.8525 18.9134 13.7989 18.7644 12.5071C18.2779 8.29029 18.3546 8.52012 17.4348 8.52012H16.6312L15.9018 11.9609ZM29.8267 8.78206C29.463 9.24608 25.348 16.1113 25.348 16.2538C25.348 16.3259 25.5728 16.3848 25.8475 16.3848C26.2182 16.3848 26.5341 16.0748 27.0721 15.1833L27.7973 13.9817H31.0452L31.2283 15.1287C31.3936 16.164 31.4703 16.2824 32.0165 16.3446C32.7739 16.4312 32.7772 16.5391 31.8843 12.1248C31.2017 8.75082 31.1576 8.62717 30.6131 8.56359C30.303 8.52755 29.949 8.62585 29.8267 8.78206ZM36.4009 11.7425C35.3074 16.8246 35.3466 16.3848 35.9858 16.3848C36.489 16.3848 36.5642 16.2605 36.8111 15.0194C37.0332 13.9035 37.2204 13.5391 37.836 13.0249C38.2502 12.6788 38.6242 12.433 38.667 12.4787C38.7097 12.5244 39.1479 13.422 39.6406 14.4733C40.4797 16.2638 40.5789 16.3848 41.2079 16.3848C41.5771 16.3848 41.8793 16.3274 41.8793 16.257C41.8793 16.1865 41.3834 15.1721 40.7773 14.0025C40.1711 12.8328 39.6752 11.8163 39.6752 11.7436C39.6752 11.6708 40.5308 10.9403 41.5767 10.1204C43.4505 8.6512 43.4681 8.62826 42.785 8.56053C42.1939 8.50198 41.7511 8.76939 39.7814 10.3753C38.5107 11.4111 37.4725 12.1302 37.4745 11.9732C37.4763 11.8163 37.6215 11.098 37.7972 10.3771C38.2246 8.62236 38.2145 8.52012 37.6132 8.52012C37.123 8.52012 37.0557 8.6986 36.4009 11.7425ZM46.0622 8.57473C46.0593 8.60488 45.6809 10.3742 45.2209 12.5071L44.3844 16.3848H47.4301C50.3286 16.3848 50.4756 16.3639 50.4756 15.9479C50.4756 15.5392 50.3286 15.511 48.1981 15.511C46.9452 15.511 45.8641 15.4553 45.7953 15.3871C45.7265 15.3187 45.7499 14.9502 45.8473 14.5679C45.9447 14.1853 46.0816 13.6175 46.1517 13.3058C46.2773 12.7454 46.3022 12.7391 48.4099 12.7203C50.4461 12.7024 50.9006 12.5643 50.9132 11.9609C50.9149 11.8707 49.9246 11.7971 48.7123 11.7971C47.5 11.7971 46.5081 11.7527 46.5081 11.6986C46.5081 11.6444 46.6154 11.1037 46.7468 10.497L46.9855 9.39398H49.3918C51.6511 9.39398 51.7981 9.36732 51.7981 8.95705C51.7981 8.54262 51.6511 8.52012 48.9327 8.52012C47.3567 8.52012 46.0651 8.54459 46.0622 8.57473ZM58.7512 11.5681C58.2039 14.2445 58.1631 14.7005 58.4175 15.3089C58.9355 16.5485 60.8114 16.9557 62.4884 16.1924C63.5113 15.7268 64.0106 15.225 64.3622 14.309C64.5727 13.7606 65.6844 8.98807 65.6844 8.63306C65.6844 8.57102 65.4365 8.52012 65.1334 8.52012C64.8303 8.52012 64.5824 8.57102 64.5824 8.63306C64.5824 8.69511 64.3355 9.87766 64.0337 11.2608C63.2255 14.9664 62.8457 15.511 61.0702 15.511C60.2005 15.511 59.2923 14.9535 59.2923 14.4195C59.2923 14.2998 59.5399 13.0463 59.8423 11.6341C60.5139 8.4974 60.5137 8.52012 59.8846 8.52012C59.4056 8.52012 59.3366 8.70603 58.7512 11.5681ZM68.8849 8.7932C68.8342 8.9435 68.4824 10.5409 68.1031 12.3432C67.7235 14.1456 67.3647 15.7921 67.3054 16.0025C67.2234 16.2931 67.3299 16.3848 67.7484 16.3848C68.2539 16.3848 68.3294 16.2509 68.6625 14.7675L69.0255 13.15L70.9775 13.0744C72.7885 13.0041 72.9789 12.9521 73.6067 12.3557C74.8159 11.207 74.9292 9.3529 73.8245 8.79648C73.0874 8.42509 69.0099 8.42246 68.8849 8.7932ZM72.9728 9.62009C73.5893 9.94713 73.5293 11.0322 72.8579 11.6977C72.3851 12.1665 72.12 12.234 70.7492 12.234C69.3599 12.234 69.1944 12.1905 69.2947 11.8517C69.357 11.6415 69.4758 11.0762 69.5589 10.5955C69.642 10.1149 69.7522 9.64805 69.804 9.55782C69.946 9.31118 72.4843 9.36099 72.9728 9.62009ZM30.7377 12.0702L30.8856 13.1079H29.6596C28.9856 13.1079 28.4339 13.0554 28.4339 12.9916C28.4339 12.9276 28.8553 12.1451 29.3706 11.2529L30.3074 9.63035L30.4485 10.3314C30.5261 10.717 30.6563 11.4995 30.7377 12.0702ZM53.1206 13.5448C53.1206 13.9402 53.2677 13.9817 54.6636 13.9817C56.0595 13.9817 56.2065 13.9402 56.2065 13.5448C56.2065 13.1494 56.0595 13.1079 54.6636 13.1079C53.2677 13.1079 53.1206 13.1494 53.1206 13.5448ZM9.47796 20.0987H1.54292V14.2002H9.47796V20.0987ZM87.616 19.9895L79.7912 20.1088V14.1901L87.616 14.3094V19.9895ZM14.5476 22.0649H74.2807V20.5357H14.5476V22.0649ZM9.49074 31.2404H1.54292V25.3318L9.36775 25.4511L9.49074 31.2404ZM87.739 31.2404H79.7912V25.3318L87.616 25.4511L87.739 31.2404ZM37.4448 29.9843C36.9378 31.5762 35.4581 36.2706 34.1563 40.4159L31.7897 47.953L24.4664 48.0727V49.373H27.8976C31.0637 49.373 31.3198 49.4025 31.2107 49.7553C29.5717 55.0533 23.9903 72.6283 23.9016 72.7705C23.8342 72.8787 21.7021 72.9672 19.1633 72.9672H14.5476V74.2814L40.8875 74.1687L40.9562 73.5778C41.0248 72.9881 41.0215 72.9866 39.4133 72.9224C38.5054 72.8861 37.8131 72.7625 37.8281 72.6395C37.8426 72.5193 39.38 67.6277 41.2445 61.7691L44.6346 51.117L54.2992 51.2299L57.7518 61.9884C59.6505 67.9058 61.1516 72.7994 61.0872 72.8632C61.0228 72.927 58.0882 72.9707 54.5657 72.9604L48.1612 72.9416V74.1687L74.2807 74.2814V72.9672H68.5629C65.3474 72.9672 62.7906 72.8798 62.7205 72.7675C62.5979 72.5709 55.6497 50.8223 55.4035 49.8645L55.277 49.373H67.0069V48.0692L54.7841 47.953L48.1621 27.0896H38.3661L37.4448 29.9843ZM47.0503 29.2196C45.1054 35.6115 41.0171 48.5465 41.0085 48.3353C41.0003 48.1277 40.0735 48.0622 37.1404 48.0622C35.0188 48.0622 33.2793 47.9884 33.2749 47.8984C33.2705 47.8083 34.628 43.3353 36.292 37.9582L39.317 28.1819H47.366L47.0503 29.2196ZM51.197 41.2898C52.1054 44.1135 52.9163 46.6448 52.9994 46.9153L53.1504 47.4068H49.4837C46.0928 47.4068 45.8261 47.378 45.9372 47.0245C46.0034 46.8141 46.6591 44.7252 47.3944 42.3821C49.182 36.6865 49.4075 36.0065 49.482 36.0871C49.5168 36.1249 50.2887 38.4661 51.197 41.2898ZM9.47796 42.3821H1.54292V36.702H9.47796V42.3821ZM87.7262 42.3821H79.7912V36.702H87.7262V42.3821ZM9.36775 53.633L1.54292 53.7523V47.8437H9.49074L9.36775 53.633ZM87.616 53.633L79.7912 53.7523V47.8337L87.616 47.953V53.633ZM40.6562 49.8436C40.5734 50.1024 39.2237 54.4527 37.6572 59.5106C36.0907 64.5687 34.511 69.6655 34.1466 70.8371L33.4845 72.9672H29.5265C26.7494 72.9672 25.5684 72.894 25.5684 72.7223C25.5684 72.4385 32.3079 50.6005 32.6225 49.8645C32.8294 49.3806 32.8942 49.373 36.8199 49.373C40.8019 49.373 40.8068 49.3736 40.6562 49.8436ZM9.49074 64.884H1.54292V58.9754L9.36775 59.0947L9.49074 64.884ZM87.739 64.884H79.7912V58.9754L87.616 59.0947L87.739 64.884ZM9.47796 76.0257H1.54292V70.3456H9.47796V76.0257ZM87.7262 76.0257H79.7912V70.3456H87.7262V76.0257ZM14.5476 80.6134H74.2807V79.0842H14.5476V80.6134ZM9.47796 87.3858H1.54292V81.4873H9.47796V87.3858ZM87.616 87.2766L79.7912 87.3959V81.4772L87.616 81.5965V87.2766ZM9.47796 98.5275H1.54292V92.629H9.47796V98.5275ZM87.616 98.4183L79.7912 98.5376V92.6189L87.616 92.7382V98.4183ZM9.49074 109.669H1.54292V106.866C1.54292 105.324 1.61434 103.991 1.7014 103.905C1.78869 103.818 3.54916 103.777 5.61382 103.814L9.36775 103.88L9.49074 109.669ZM87.739 109.669H79.7912V106.866C79.7912 105.324 79.8626 103.991 79.9496 103.905C80.0369 103.818 81.7974 103.777 83.8621 103.814L87.616 103.88L87.739 109.669Z" fill="black"/>
<path d="M32.9444 89.081H31.1433L30.7388 90.039H30.1542L31.7958 86.3682H32.2919L33.9365 90.039H33.3548L32.9444 89.081ZM31.3145 88.6826H32.7761L32.0438 86.9657L31.3145 88.6826Z" fill="black"/>
<path d="M38.3111 86.7665H36.9292V90.039H36.3653V86.7665H34.9864V86.3682H38.3111V86.7665Z" fill="black"/>
<path d="M42.5882 88.3423H40.7251V89.6432H42.8894V90.039H40.1582V86.3682H42.8598V86.7665H40.7251V87.9464H42.5882V88.3423Z" fill="black"/>
<path d="M45.3743 89.6432H47.4116V90.039H44.8044V86.3682H45.3743V89.6432Z" fill="black"/>
<path d="M49.8758 90.039H49.3089V86.3682H49.8758V90.039Z" fill="black"/>
<path d="M54.5545 88.3423H52.6914V89.6432H54.8557V90.039H52.1245V86.3682H54.8262V86.7665H52.6914V87.9464H54.5545V88.3423Z" fill="black"/>
<path d="M58.3475 88.5541H57.3377V90.039H56.7678V86.3682H58.191C58.6752 86.3682 59.0472 86.4623 59.3071 86.6505C59.5689 86.8388 59.6998 87.1128 59.6998 87.4725C59.6998 87.701 59.6269 87.9002 59.4813 88.07C59.3376 88.2397 59.1368 88.3666 58.8789 88.4507L59.8887 90.0088V90.039H59.2805L58.3475 88.5541ZM57.3377 88.1582H58.2087C58.4902 88.1582 58.7136 88.096 58.8789 87.9716C59.0463 87.8473 59.1299 87.6809 59.1299 87.4725C59.1299 87.2455 59.0502 87.0716 58.8907 86.9506C58.7333 86.8295 58.5049 86.7682 58.2057 86.7665H57.3377V88.1582Z" fill="black"/>
<path d="M16.1151 96.3499H15.5482V92.679H16.1151V96.3499Z" fill="black"/>
<path d="M21.6678 96.3499H21.0979L18.9337 93.5211V96.3499H18.3638V92.679H18.9337L21.1038 95.5204V92.679H21.6678V96.3499Z" fill="black"/>
<path d="M26.7657 93.0774H25.3839V96.3499H24.82V93.0774H23.4411V92.679H26.7657V93.0774Z" fill="black"/>
<path d="M31.0429 94.6531H29.1798V95.9541H31.3441V96.3499H28.6129V92.679H31.3145V93.0774H29.1798V94.2573H31.0429V94.6531Z" fill="black"/>
<path d="M34.8358 94.8649H33.826V96.3499H33.2562V92.679H34.6793C35.1636 92.679 35.5356 92.7732 35.7954 92.9614C36.0572 93.1497 36.1881 93.4236 36.1881 93.7833C36.1881 94.0119 36.1153 94.2111 35.9696 94.3809C35.8259 94.5506 35.6252 94.6775 35.3673 94.7616L36.3771 96.3197V96.3499H35.7688L34.8358 94.8649ZM33.826 94.4691H34.6971C34.9785 94.4691 35.202 94.4069 35.3673 94.2825C35.5346 94.1581 35.6183 93.9917 35.6183 93.7833C35.6183 93.5564 35.5385 93.3825 35.3791 93.2614C35.2216 93.1404 34.9933 93.0791 34.6941 93.0774H33.826V94.4691Z" fill="black"/>
<path d="M41.4987 96.3499H40.9288L38.7646 93.5211V96.3499H38.1947V92.679H38.7646L40.9347 95.5204V92.679H41.4987V96.3499Z" fill="black"/>
<path d="M46.142 95.3919H44.3409L43.9364 96.3499H43.3517L44.9934 92.679H45.4894L47.134 96.3499H46.5524L46.142 95.3919ZM44.5121 94.9935H45.9737L45.2414 93.2766L44.5121 94.9935Z" fill="black"/>
<path d="M51.5086 93.0774H50.1268V96.3499H49.5629V93.0774H48.184V92.679H51.5086V93.0774Z" fill="black"/>
<path d="M53.964 96.3499H53.3971V92.679H53.964V96.3499Z" fill="black"/>
<path d="M59.5197 94.633C59.5197 94.9927 59.4488 95.307 59.3071 95.5759C59.1653 95.8432 58.9646 96.0474 58.7047 96.1886C58.4449 96.3298 58.1418 96.4004 57.7953 96.4004C57.4568 96.4004 57.1566 96.3298 56.8948 96.1886C56.633 96.0457 56.4293 95.8432 56.2836 95.5809C56.1399 95.3171 56.0661 95.012 56.0621 94.6658V94.401C56.0621 94.0481 56.134 93.7363 56.2777 93.4657C56.4214 93.195 56.6241 92.9883 56.8859 92.8454C57.1497 92.7009 57.4509 92.6286 57.7894 92.6286C58.1339 92.6286 58.437 92.7001 58.6988 92.8429C58.9626 92.9841 59.1653 93.19 59.3071 93.4606C59.4488 93.7295 59.5197 94.043 59.5197 94.401V94.633ZM58.9557 94.396C58.9557 93.9607 58.8534 93.627 58.6486 93.3951C58.4439 93.1614 58.1575 93.0446 57.7894 93.0446C57.4312 93.0446 57.1487 93.1614 56.942 93.3951C56.7373 93.627 56.632 93.9497 56.6261 94.3632V94.633C56.6261 95.0549 56.7294 95.3868 56.9361 95.6289C57.1448 95.8692 57.4312 95.9894 57.7953 95.9894C58.1615 95.9894 58.4449 95.8759 58.6457 95.649C58.8465 95.4204 58.9498 95.0935 58.9557 94.6683V94.396Z" fill="black"/>
<path d="M64.8834 96.3499H64.3135L62.1493 93.5211V96.3499H61.5794V92.679H62.1493L64.3194 95.5204V92.679H64.8834V96.3499Z" fill="black"/>
<path d="M69.5267 95.3919H67.7256L67.321 96.3499H66.7364L68.3781 92.679H68.8741L70.5187 96.3499H69.9371L69.5267 95.3919ZM67.8968 94.9935H69.3584L68.6261 93.2766L67.8968 94.9935Z" fill="black"/>
<path d="M72.8767 95.9541H74.914V96.3499H72.3068V92.679H72.8767V95.9541Z" fill="black"/>
<path d="M22.3227 98.9899L23.7281 101.985L25.1335 98.9899H25.8687V102.661H25.3018V101.231L25.355 99.6883L23.9436 102.661H23.5096L22.1012 99.6959L22.1573 101.231V102.661H21.5904V98.9899H22.3227Z" fill="black"/>
<path d="M30.5061 101.703H28.705L28.3005 102.661H27.7159L29.3575 98.9899H29.8536L31.4982 102.661H30.9165L30.5061 101.703ZM28.8763 101.304H30.3378L29.6056 99.5874L28.8763 101.304Z" fill="black"/>
<path d="M36.5342 100.944C36.5342 101.299 36.4682 101.604 36.3363 101.862C36.2045 102.117 36.0194 102.317 35.7812 102.462L36.5489 102.976L36.1621 103.281L35.2557 102.666C35.114 102.696 34.9644 102.711 34.8069 102.711C34.4683 102.711 34.1681 102.641 33.9063 102.499C33.6445 102.357 33.4408 102.154 33.2952 101.892C33.1515 101.628 33.0776 101.323 33.0737 100.977V100.712C33.0737 100.359 33.1456 100.047 33.2892 99.7765C33.4329 99.5059 33.6357 99.2992 33.8975 99.1563C34.1613 99.0118 34.4624 98.9395 34.801 98.9395C35.1474 98.9395 35.4515 99.0109 35.7133 99.1538C35.9771 99.2967 36.1799 99.5026 36.3216 99.7715C36.4633 100.039 36.5342 100.351 36.5342 100.709V100.944ZM35.9673 100.707C35.9673 100.275 35.8659 99.9421 35.6631 99.7085C35.4624 99.4732 35.175 99.3555 34.801 99.3555C34.4447 99.3555 34.1632 99.4723 33.9565 99.7059C33.7518 99.9379 33.6465 100.261 33.6406 100.674V100.944C33.6406 101.364 33.743 101.695 33.9477 101.937C34.1544 102.179 34.4408 102.3 34.8069 102.3C35.173 102.3 35.4565 102.187 35.6572 101.96C35.858 101.731 35.9614 101.404 35.9673 100.979V100.707Z" fill="black"/>
<path d="M41.644 98.9899V101.486C41.642 101.832 41.514 102.115 41.2601 102.336C41.0082 102.556 40.6657 102.679 40.2326 102.706L40.082 102.711C39.6116 102.711 39.2366 102.603 38.9571 102.386C38.6776 102.169 38.5358 101.871 38.5319 101.491V98.9899H39.0929V101.476C39.0929 101.741 39.1785 101.948 39.3498 102.096C39.521 102.242 39.7651 102.315 40.082 102.315C40.4029 102.315 40.6479 102.242 40.8172 102.096C40.9885 101.95 41.0741 101.744 41.0741 101.478V98.9899H41.644Z" fill="black"/>
<path d="M44.3562 102.661H43.7893V98.9899H44.3562V102.661Z" fill="black"/>
<path d="M47.1748 102.265H49.2121V102.661H46.6049V98.9899H47.1748V102.265Z" fill="black"/>
<path d="M51.638 102.265H53.6753V102.661H51.0681V98.9899H51.638V102.265Z" fill="black"/>
<path d="M57.9642 101.703H56.1631L55.7586 102.661H55.174L56.8157 98.9899H57.3117L58.9563 102.661H58.3746L57.9642 101.703ZM56.3344 101.304H57.7959L57.0637 99.5874L56.3344 101.304Z" fill="black"/>
<path d="M63.883 102.179C63.7374 102.357 63.5336 102.491 63.2718 102.58C63.012 102.668 62.7089 102.711 62.3624 102.711C62.0121 102.711 61.701 102.641 61.4294 102.502C61.1578 102.361 60.9472 102.161 60.7976 101.902C60.6499 101.643 60.5741 101.343 60.5702 101.002V100.682C60.5702 100.129 60.7208 99.7001 61.0219 99.3958C61.3251 99.0916 61.7503 98.9395 62.2975 98.9395C62.7463 98.9395 63.1075 99.0378 63.3811 99.2345C63.6547 99.4295 63.822 99.7068 63.883 100.066H63.3161C63.2098 99.5807 62.8713 99.3378 62.3004 99.3378C61.9205 99.3378 61.6322 99.4521 61.4353 99.6807C61.2404 99.9076 61.142 100.237 61.1401 100.669V100.969C61.1401 101.381 61.2503 101.709 61.4707 101.952C61.6912 102.194 61.9894 102.315 62.3654 102.315C62.578 102.315 62.764 102.295 62.9234 102.255C63.0829 102.215 63.2148 102.146 63.3191 102.051V101.226H62.3241V100.833H63.883V102.179Z" fill="black"/>
<path d="M68.4702 100.964H66.6071V102.265H68.7714V102.661H66.0402V98.9899H68.7418V99.3883H66.6071V100.568H68.4702V100.964Z" fill="black"/>
<path d="M35.5238 107.535V108.972H34.9569V105.301H36.5424C37.0129 105.301 37.381 105.403 37.6467 105.608C37.9144 105.813 38.0483 106.085 38.0483 106.423C38.0483 106.779 37.9174 107.054 37.6556 107.247C37.3957 107.439 37.0227 107.535 36.5365 107.535H35.5238ZM35.5238 107.139H36.5424C36.8456 107.139 37.0778 107.078 37.2393 106.957C37.4007 106.835 37.4814 106.658 37.4814 106.428C37.4814 106.209 37.4007 106.034 37.2393 105.903C37.0778 105.772 36.8564 105.704 36.5749 105.699H35.5238V107.139Z" fill="black"/>
<path d="M41.9475 108.014H40.1464L39.7419 108.972H39.1573L40.7989 105.301H41.295L42.9396 108.972H42.3579L41.9475 108.014ZM40.3176 107.615H41.7792L41.0469 105.898L40.3176 107.615Z" fill="black"/>
<path d="M46.3044 107.487H45.2946V108.972H44.7247V105.301H46.1479C46.6321 105.301 47.0041 105.395 47.264 105.583C47.5258 105.771 47.6567 106.045 47.6567 106.405C47.6567 106.634 47.5838 106.833 47.4382 107.003C47.2945 107.172 47.0937 107.299 46.8358 107.383L47.8456 108.941V108.972H47.2374L46.3044 107.487ZM45.2946 107.091H46.1656C46.4471 107.091 46.6705 107.029 46.8358 106.904C47.0031 106.78 47.0868 106.614 47.0868 106.405C47.0868 106.178 47.0071 106.004 46.8476 105.883C46.6902 105.762 46.4618 105.701 46.1626 105.699H45.2946V107.091Z" fill="black"/>
<path d="M50.2715 108.972H49.7046V105.301H50.2715V108.972Z" fill="black"/>
<path d="M53.7869 107.335C53.3007 107.216 52.9464 107.07 52.7239 106.897C52.5035 106.722 52.3932 106.507 52.3932 106.251C52.3932 105.962 52.5281 105.724 52.7977 105.535C53.0694 105.345 53.4217 105.25 53.8548 105.25C54.15 105.25 54.4128 105.299 54.6431 105.397C54.8754 105.494 55.0545 105.629 55.1805 105.8C55.3084 105.971 55.3724 106.159 55.3724 106.362H54.8026C54.8026 106.14 54.7199 105.966 54.5545 105.84C54.3892 105.713 54.1559 105.649 53.8548 105.649C53.5753 105.649 53.3568 105.702 53.1993 105.808C53.0438 105.912 52.966 106.057 52.966 106.244C52.966 106.393 53.0399 106.52 53.1875 106.624C53.3371 106.727 53.59 106.821 53.9463 106.907C54.3046 106.993 54.5841 107.088 54.7848 107.192C54.9876 107.294 55.1372 107.414 55.2336 107.552C55.3321 107.69 55.3813 107.852 55.3813 108.039C55.3813 108.336 55.2455 108.575 54.9738 108.755C54.7022 108.933 54.339 109.022 53.8843 109.022C53.589 109.022 53.3135 108.974 53.0576 108.878C52.8017 108.781 52.6039 108.648 52.4641 108.48C52.3263 108.312 52.2574 108.121 52.2574 107.908H52.8273C52.8273 108.13 52.9227 108.305 53.1137 108.435C53.3066 108.562 53.5634 108.626 53.8843 108.626C54.1835 108.626 54.4128 108.574 54.5723 108.47C54.7317 108.366 54.8114 108.224 54.8114 108.044C54.8114 107.864 54.7376 107.725 54.59 107.628C54.4423 107.529 54.1746 107.431 53.7869 107.335Z" fill="black"/>
</svg>
