<svg width="16" height="21" viewBox="0 0 16 21" fill="none" xmlns="http://www.w3.org/2000/svg">
<path d="M8.21191 4.56104C7.17025 4.56104 6.28483 4.92562 5.55566 5.65479C4.8265 6.38395 4.46191 7.26937 4.46191 8.31104C4.46191 9.3527 4.8265 10.2381 5.55566 10.9673C6.28483 11.6965 7.17025 12.061 8.21191 12.061C9.25358 12.061 10.139 11.6965 10.8682 10.9673C11.5973 10.2381 11.9619 9.3527 11.9619 8.31104C11.9619 7.26937 11.5973 6.38395 10.8682 5.65479C10.139 4.92562 9.25358 4.56104 8.21191 4.56104ZM8.21191 10.811C7.53483 10.811 6.94889 10.5636 6.4541 10.0688C5.95931 9.57406 5.71191 8.98812 5.71191 8.31104C5.71191 7.63395 5.95931 7.04801 6.4541 6.55322C6.94889 6.05843 7.53483 5.81104 8.21191 5.81104C8.889 5.81104 9.47493 6.05843 9.96973 6.55322C10.4645 7.04801 10.7119 7.63395 10.7119 8.31104C10.7119 8.98812 10.4645 9.57406 9.96973 10.0688C9.47493 10.5636 8.889 10.811 8.21191 10.811ZM8.21191 0.811035C6.85775 0.811035 5.60775 1.14958 4.46191 1.82666C3.31608 2.50374 2.40462 3.4152 1.72754 4.56104C1.05046 5.70687 0.711914 6.95687 0.711914 8.31104C0.711914 9.14437 0.816081 9.88656 1.02441 10.5376C1.23275 11.1626 1.63639 11.9438 2.23535 12.8813C2.65202 13.5324 3.51139 14.7954 4.81348 16.6704L7.43066 20.4204C7.61296 20.6808 7.87337 20.811 8.21191 20.811C8.55046 20.811 8.81087 20.6808 8.99316 20.4204L11.6104 16.6704C12.9124 14.7954 13.7718 13.5324 14.1885 12.8813C14.7874 11.9438 15.1911 11.1626 15.3994 10.5376C15.6077 9.88656 15.7119 9.14437 15.7119 8.31104C15.7119 6.95687 15.3734 5.70687 14.6963 4.56104C14.0192 3.4152 13.1077 2.50374 11.9619 1.82666C10.8161 1.14958 9.56608 0.811035 8.21191 0.811035ZM8.21191 19.3267C7.58691 18.4152 6.77962 17.2563 5.79004 15.8501C4.54004 14.0532 3.71973 12.8683 3.3291 12.2954C2.78223 11.41 2.41764 10.7069 2.23535 10.186C2.05306 9.63916 1.96191 9.01416 1.96191 8.31104C1.96191 7.4777 2.11816 6.68343 2.43066 5.92822C2.74316 5.17301 3.19889 4.49593 3.79785 3.89697C4.39681 3.29801 5.07389 2.84229 5.8291 2.52979C6.58431 2.21729 7.37858 2.06104 8.21191 2.06104C9.04525 2.06104 9.83952 2.21729 10.5947 2.52979C11.3499 2.84229 12.027 3.29801 12.626 3.89697C13.2249 4.49593 13.6807 5.17301 13.9932 5.92822C14.3057 6.68343 14.4619 7.4777 14.4619 8.31104C14.4619 9.01416 14.3708 9.63916 14.1885 10.186C14.0062 10.7069 13.6416 11.41 13.0947 12.2954C12.7041 12.8683 11.8838 14.0532 10.6338 15.8501L8.21191 19.3267Z" fill="#0F001A"/>
</svg>
