<svg width="21" height="21" viewBox="0 0 21 21" fill="none" xmlns="http://www.w3.org/2000/svg">
<path d="M19.2744 19.373L20.1729 15.4277C20.251 15.1413 20.2119 14.8678 20.0557 14.6074C19.9255 14.347 19.7301 14.1517 19.4697 14.0215L15.251 12.2246C14.9906 12.1204 14.7301 12.0944 14.4697 12.1465C14.2093 12.2246 13.988 12.3678 13.8057 12.5762L12.0869 14.6855C10.7327 14.0085 9.52181 13.1361 8.4541 12.0684C7.38639 11.0007 6.514 9.78971 5.83691 8.43555L7.94629 6.7168C8.15462 6.53451 8.28483 6.31315 8.33691 6.05273C8.41504 5.79232 8.40202 5.5319 8.29785 5.27148L6.50098 1.05273C6.37077 0.792318 6.17546 0.583984 5.91504 0.427734C5.65462 0.297526 5.38118 0.271484 5.09473 0.349609L1.14941 1.24805C0.888997 1.32617 0.667643 1.4694 0.485352 1.67773C0.30306 1.91211 0.211914 2.17253 0.211914 2.45898C0.211914 5.68815 1.01921 8.68294 2.63379 11.4434C4.22233 14.1517 6.35775 16.2871 9.04004 17.8496C11.8265 19.4902 14.8473 20.3105 18.1025 20.3105C18.363 20.3105 18.5973 20.2194 18.8057 20.0371C19.04 19.8548 19.1963 19.6335 19.2744 19.373ZM1.46191 2.45898L5.36816 1.56055L7.16504 5.7793L4.31348 8.08398C5.25098 10.1152 6.33171 11.7428 7.55566 12.9668C8.77962 14.1908 10.4072 15.2715 12.4385 16.209L14.7432 13.3574L18.9619 15.1543L18.0635 19.0605C15.0687 19.0605 12.2822 18.3053 9.7041 16.7949C7.17806 15.3105 5.18587 13.3184 3.72754 10.8184C2.21712 8.24023 1.46191 5.45378 1.46191 2.45898Z" fill="#0F001A"/>
</svg>
