<svg width="21" height="21" viewBox="0 0 21 21" fill="none" xmlns="http://www.w3.org/2000/svg">
<path d="M19.2744 19.3735L20.1729 15.4282C20.251 15.1418 20.2119 14.8683 20.0557 14.6079C19.9255 14.3475 19.7301 14.1522 19.4697 14.022L15.251 12.2251C14.9906 12.1209 14.7301 12.0949 14.4697 12.147C14.2093 12.2251 13.988 12.3683 13.8057 12.5767L12.0869 14.686C10.7327 14.009 9.52181 13.1366 8.4541 12.0688C7.38639 11.0011 6.514 9.7902 5.83691 8.43604L7.94629 6.71729C8.15462 6.53499 8.28483 6.31364 8.33691 6.05322C8.41504 5.79281 8.40202 5.53239 8.29785 5.27197L6.50098 1.05322C6.37077 0.792806 6.17546 0.584473 5.91504 0.428223C5.65462 0.298014 5.38118 0.271973 5.09473 0.350098L1.14941 1.24854C0.888997 1.32666 0.667643 1.46989 0.485352 1.67822C0.30306 1.9126 0.211914 2.17301 0.211914 2.45947C0.211914 5.68864 1.01921 8.68343 2.63379 11.4438C4.22233 14.1522 6.35775 16.2876 9.04004 17.8501C11.8265 19.4907 14.8473 20.311 18.1025 20.311C18.363 20.311 18.5973 20.2199 18.8057 20.0376C19.04 19.8553 19.1963 19.634 19.2744 19.3735ZM1.46191 2.45947L5.36816 1.56104L7.16504 5.77979L4.31348 8.08447C5.25098 10.1157 6.33171 11.7433 7.55566 12.9673C8.77962 14.1912 10.4072 15.272 12.4385 16.2095L14.7432 13.3579L18.9619 15.1548L18.0635 19.061C15.0687 19.061 12.2822 18.3058 9.7041 16.7954C7.17806 15.311 5.18587 13.3188 3.72754 10.8188C2.21712 8.24072 1.46191 5.45426 1.46191 2.45947Z" fill="#0F001A"/>
</svg>
