<svg width="123" height="23" viewBox="0 0 123 23" fill="none" xmlns="http://www.w3.org/2000/svg">
<rect width="121.627" height="22.8052" transform="translate(0.573242 0.083847)" fill="black"/>
<path d="M80.4129 5.5968C77.1529 5.5968 74.8651 8.18249 74.8651 11.4769C74.8651 14.7712 77.1719 17.3761 80.4701 17.3761C83.7301 17.3761 86.0179 14.7904 86.0179 11.496C85.9988 8.20164 83.692 5.5968 80.4129 5.5968ZM80.4129 20.0384C75.3608 20.0384 71.8338 16.2652 71.8338 11.496C71.8338 6.74599 75.3989 2.93449 80.4701 2.93449C85.5222 2.93449 89.0682 6.70769 89.0682 11.4769C89.0492 16.2269 85.465 20.0384 80.4129 20.0384ZM26.8985 5.5968C23.6385 5.5968 21.3698 8.18249 21.3698 11.4769C21.3698 14.7712 23.6766 17.3761 26.9366 17.3761C30.1967 17.3761 32.4844 14.7904 32.4844 11.496C32.4844 8.20164 30.1776 5.5968 26.8985 5.5968ZM26.8985 20.0384C21.8464 20.0384 18.3004 16.2652 18.3004 11.496C18.3004 6.74599 21.8654 2.93449 26.9366 2.93449C31.9888 2.93449 35.5348 6.70769 35.5348 11.4769C35.5348 16.2269 31.9697 20.0384 26.8985 20.0384ZM43.9232 19.7511L39.4621 7.89519V19.7511H36.6024V3.22179H40.7204L44.743 13.8519L48.7466 3.22179H52.8455V19.7511H49.9476V7.87604L45.4674 19.7511H43.9232ZM110.554 5.86494H107.313V17.1079H110.554C114.043 17.1079 116.273 14.8287 116.273 11.5152C116.273 8.23995 114.119 5.86494 110.554 5.86494ZM110.554 19.7511H104.415V3.20264H110.592C115.892 3.20264 119.305 6.66938 119.305 11.4577C119.305 16.1311 115.949 19.7511 110.554 19.7511ZM96.8275 5.86494H92.9956V10.7299H96.8466C99.0772 10.7299 100.335 9.77221 100.335 8.2208C100.354 6.40124 98.9818 5.86494 96.8275 5.86494ZM100.698 19.7511L96.6178 13.3539H92.9956V19.7319H90.1168V3.18348H97.3995C101.231 3.18348 103.31 5.00305 103.31 8.08672C103.31 10.9023 101.727 12.3387 99.7063 12.8176L104.091 19.7128L100.698 19.7511ZM71.5669 5.86494H62.2062V10.7299H70.8425V13.373H62.2062V19.7511H59.3084V3.20264H71.5669V5.86494ZM13.4389 19.7511H10.522V5.86494H4.91699V3.20264H18.9867V5.86494H13.4389V19.7511Z" fill="white"/>
</svg>
