<svg width="28" height="20" viewBox="0 0 28 20" fill="none" xmlns="http://www.w3.org/2000/svg">
<path fill-rule="evenodd" clip-rule="evenodd" d="M26.6757 3.22722C26.3707 2.05566 25.4721 1.13311 24.3311 0.820003C22.2633 0.250977 13.9709 0.250977 13.9709 0.250977C13.9709 0.250977 5.67845 0.250977 3.6105 0.820003C2.46948 1.13311 1.57088 2.05566 1.26593 3.22722C0.711914 5.35054 0.711914 9.78086 0.711914 9.78086C0.711914 9.78086 0.711914 14.211 1.26593 16.3345C1.57088 17.5061 2.46948 18.4286 3.6105 18.7419C5.67845 19.3107 13.9709 19.3107 13.9709 19.3107C13.9709 19.3107 22.2633 19.3107 24.3311 18.7419C25.4721 18.4286 26.3707 17.5061 26.6757 16.3345C27.2298 14.211 27.2298 9.78086 27.2298 9.78086C27.2298 9.78086 27.2298 5.35054 26.6757 3.22722Z" fill="#072652"/>
<path fill-rule="evenodd" clip-rule="evenodd" d="M11.4851 14.3381V6.05127L18.1146 10.1949L11.4851 14.3381Z" fill="white"/>
</svg>
